<svg width="22" height="19" viewBox="0 0 22 19" fill="none" xmlns="http://www.w3.org/2000/svg">
<path fill-rule="evenodd" clip-rule="evenodd" d="M0.0596198 4.8226L4.83339 0.0625763C4.87157 0.0229442 4.92439 0.00052148 4.97983 0C5.03631 0 5.0907 0.0224227 5.13045 0.0625763L6.18059 1.1097C6.21772 1.14933 6.23864 1.20148 6.23916 1.25571C6.23969 1.31151 6.21877 1.36522 6.18059 1.4059L3.75762 3.81824C3.68388 3.89177 3.73618 4.01744 3.84025 4.01744H5.9999V5.91978H3.84025C3.73618 5.91978 3.68388 6.04546 3.75762 6.11899L6.18059 8.53133C6.21877 8.57201 6.23969 8.62572 6.23916 8.68152C6.23916 8.73575 6.21772 8.7879 6.18059 8.82753L5.13045 9.87465C5.04782 9.95444 4.91602 9.95444 4.83339 9.87465L0.0596199 5.11463C-0.0198733 5.03328 -0.0198733 4.90395 0.0596198 4.8226ZM8.9999 5.91978V4.01744H10.9999V5.91978H8.9999ZM13.9999 5.91978V4.01744H15.9999V5.91978H13.9999ZM18.9999 5.91978V4.01744H21.0793C21.1949 4.01744 21.2885 4.11079 21.2885 4.22603V5.71119C21.2885 5.82644 21.1949 5.91978 21.0793 5.91978H18.9999ZM21.229 14.112L16.4552 18.872C16.417 18.9116 16.3642 18.934 16.3087 18.9346C16.2523 18.9346 16.1979 18.9121 16.1581 18.872L15.108 17.8249C15.0709 17.7852 15.0499 17.7331 15.0494 17.6789C15.0489 17.6231 15.0698 17.5693 15.108 17.5287L17.531 15.1163C17.6047 15.0428 17.5524 14.9171 17.4483 14.9171L15.2887 14.9171L15.2887 13.0148L17.4483 13.0148C17.5524 13.0148 17.6047 12.8891 17.531 12.8156L15.108 10.4032C15.0698 10.3626 15.0489 10.3089 15.0494 10.2531C15.0494 10.1988 15.0709 10.1467 15.108 10.107L16.1581 9.05992C16.2408 8.98013 16.3726 8.98013 16.4552 9.05992L21.229 13.8199C21.3084 13.9013 21.3084 14.0306 21.229 14.112ZM12.2887 13.0148L12.2887 14.9171L10.2887 14.9171L10.2887 13.0148L12.2887 13.0148ZM7.28868 13.0148V14.9171H5.28868V13.0148H7.28868ZM2.28868 13.0148V14.9171H0.209296C0.0937181 14.9171 0.000103543 14.8238 0.000103533 14.7085L0.000103403 13.2234C0.000103393 13.1081 0.093718 13.0148 0.209296 13.0148H2.28868Z" fill="white"/>
</svg>
