<svg width="280" height="78" viewBox="0 0 280 78" fill="none" xmlns="http://www.w3.org/2000/svg">
<path d="M38.912 59.248V62H0V59.248H14.464V25.904H1.792V17.264H37.12V25.904H24.448V59.248H38.912ZM44.4415 59.248V17.264H61.4015C68.3562 17.264 73.3055 18.4373 76.2495 20.784C79.2362 23.1307 80.7295 26.9067 80.7295 32.112C80.7295 39.28 77.8922 43.9093 72.2175 46L81.5615 59.248H87.5775V62H71.2575L61.3375 47.728H54.4255V62H38.2335V59.248H44.4415ZM61.7215 39.088C65.1348 39.088 67.4602 38.5333 68.6975 37.424C69.9348 36.3147 70.5535 34.5653 70.5535 32.176C70.5535 29.744 69.9135 28.08 68.6335 27.184C67.3535 26.288 65.1135 25.84 61.9135 25.84H54.4255V39.088H61.7215ZM124.99 59.248V62H85.4375V59.248H100.222V44.336L84.7335 17.264H95.5495L105.214 33.904L114.878 17.264H125.694L110.206 44.336V59.248H124.99ZM163.912 59.248V62H125V59.248H139.464V25.904H126.792V17.264H162.12V25.904H149.448V59.248H163.912ZM215.614 59.248V62H162.75V59.248H177.022C173.523 57.2427 170.75 54.4907 168.702 50.992C166.697 47.4933 165.694 43.6107 165.694 39.344C165.694 32.7733 167.955 27.2907 172.478 22.896C177.001 18.4587 182.569 16.24 189.182 16.24C195.795 16.24 201.363 18.4587 205.886 22.896C210.409 27.2907 212.67 32.7733 212.67 39.344C212.67 43.6107 211.646 47.4933 209.598 50.992C207.55 54.4907 204.798 57.2427 201.342 59.248H215.614ZM202.494 39.408C202.494 35.3973 201.214 31.984 198.654 29.168C196.094 26.352 192.937 24.944 189.182 24.944C185.47 24.944 182.334 26.352 179.774 29.168C177.214 31.984 175.934 35.3973 175.934 39.408C175.934 43.376 177.214 46.768 179.774 49.584C182.334 52.3573 185.47 53.744 189.182 53.744C192.937 53.744 196.094 52.3573 198.654 49.584C201.214 46.768 202.494 43.376 202.494 39.408ZM221.129 59.248V17.264H230.473L252.425 46.064V17.264H262.409V59.248H268.617V62H252.425L231.113 33.968V62H214.921V59.248H221.129Z" fill="#FFA800"/>
<path d="M268 25V24.398H271.066C270.338 23.9407 269.764 23.3387 269.344 22.592C268.924 21.836 268.714 21.0147 268.714 20.128C268.714 18.7373 269.204 17.5427 270.184 16.544C271.173 15.5453 272.368 15.046 273.768 15.046C275.168 15.046 276.358 15.5407 277.338 16.53C278.327 17.5193 278.822 18.7093 278.822 20.1C278.822 20.9867 278.607 21.8127 278.178 22.578C277.749 23.334 277.17 23.9407 276.442 24.398H279.536V25H268ZM276.61 22.942C277.394 22.1487 277.786 21.2013 277.786 20.1C277.786 18.9987 277.394 18.056 276.61 17.272C275.826 16.488 274.879 16.096 273.768 16.096C272.667 16.096 271.719 16.4927 270.926 17.286C270.142 18.0793 269.75 19.0267 269.75 20.128C269.75 21.2293 270.137 22.172 270.912 22.956C271.687 23.74 272.634 24.132 273.754 24.132C274.874 24.132 275.826 23.7353 276.61 22.942ZM273.824 22.956C273.04 22.956 272.363 22.69 271.794 22.158C271.225 21.626 270.94 20.9307 270.94 20.072C270.94 19.2133 271.234 18.518 271.822 17.986C272.41 17.4447 273.133 17.174 273.992 17.174C274.851 17.174 275.597 17.5053 276.232 18.168L275.392 19.218C275.019 18.77 274.547 18.546 273.978 18.546C273.577 18.546 273.231 18.6813 272.942 18.952C272.662 19.2133 272.522 19.582 272.522 20.058C272.522 20.5247 272.667 20.898 272.956 21.178C273.255 21.4487 273.609 21.584 274.02 21.584C274.627 21.584 275.093 21.3133 275.42 20.772L276.288 21.822C275.569 22.578 274.748 22.956 273.824 22.956Z" fill="#FFA800"/>
</svg>
