<svg width="163" height="164" viewBox="0 0 163 164" fill="none" xmlns="http://www.w3.org/2000/svg">
<path d="M102.898 156.265C102.649 155.406 101.755 154.908 100.896 155.157C94.0972 157.117 87.0215 158.104 79.8748 158.104C37.981 158.104 3.90103 124 3.90103 82.0753C3.90103 40.151 37.981 6.04622 79.8748 6.04622C87.0286 6.04622 94.0972 7.04052 100.896 8.99363C101.755 9.24221 102.649 8.74506 102.898 7.88569C103.146 7.02632 102.649 6.13144 101.79 5.88286C94.7005 3.84453 87.3267 2.80762 79.8748 2.80762C58.7185 2.80762 38.8255 11.0533 23.865 26.0247C8.91153 41.0033 0.671875 60.9107 0.671875 82.0824C0.671875 103.254 8.91153 123.162 23.8721 138.133C38.8326 153.104 58.7256 161.35 79.8819 161.35C87.3338 161.35 94.7076 160.313 101.798 158.275C102.656 158.026 103.153 157.131 102.905 156.272L102.898 156.265Z" fill="#F7A715"/>
<path d="M121.932 122.756C144.379 100.293 144.379 63.8729 121.932 41.4097C99.4852 18.9464 63.0916 18.9464 40.6447 41.4097C18.1978 63.8729 18.1978 100.293 40.6447 122.756C63.0916 145.22 99.4852 145.22 121.932 122.756Z" fill="url(#paint0_linear_2026_12)"/>
<path d="M25.0786 82.0822C25.0786 74.49 26.5619 67.125 29.493 60.1861C32.3247 53.4888 36.3771 47.4732 41.5366 42.3028C46.6962 37.1395 52.7074 33.077 59.407 30.2503C66.3337 27.3171 73.7004 25.8328 81.2871 25.8328C88.8738 25.8328 96.2335 27.3171 103.167 30.2503C109.86 33.0841 115.871 37.1395 121.038 42.3028C126.197 47.4661 130.257 53.4817 133.081 60.1861C136.012 67.1179 137.496 74.49 137.496 82.0822C137.496 89.6745 136.012 97.0395 133.081 103.978C130.25 110.676 126.197 116.691 121.038 121.862C115.878 127.025 109.867 131.087 103.167 133.914C96.2406 136.847 88.8738 138.332 81.2871 138.332C73.7004 138.332 66.3408 136.847 59.407 133.914C52.7145 131.08 46.7033 127.025 41.5366 121.862C36.3771 116.698 32.3176 110.683 29.493 103.978C26.5619 97.0466 25.0786 89.6745 25.0786 82.0822Z" fill="url(#paint1_linear_2026_12)"/>
<path d="M51.0303 84.122C51.0041 83.1521 50.9778 82.156 51.0303 81.1861C51.3715 80.9764 51.529 81.1861 51.634 81.4744C51.9489 82.4181 52.2639 83.3356 52.6051 84.253C52.7101 84.5414 52.8413 84.7773 53.0513 85.0132C53.3137 85.3016 53.5762 85.6161 53.7336 85.9831C53.7861 86.1142 53.8911 86.2452 54.0224 86.2977C54.3636 86.4287 54.4948 86.7433 54.521 87.0841C54.5998 88.2374 54.8622 89.3646 55.3609 90.4131C55.5971 90.885 55.5971 91.4355 55.9646 91.8287C56.122 92.0122 56.2008 92.2481 56.2795 92.4578C57.2769 95.1053 58.6417 97.5169 60.4001 99.7189C60.4789 99.8237 60.5576 99.9023 60.6364 99.981C62.9723 102.812 65.7543 105.093 68.9826 106.849C72.2634 108.631 75.7541 109.706 79.4548 110.073C83.5754 110.466 87.6698 110.126 91.6329 108.841C92.4991 108.553 93.3389 108.238 94.1788 107.897C94.3363 107.845 94.4675 107.74 94.6512 107.793C94.9137 108.238 95.4911 108.107 95.8323 108.395C95.9373 108.474 96.0423 108.343 96.121 108.238C96.3835 107.924 96.6984 107.897 97.0396 108.081C97.4596 108.317 97.8532 108.317 98.2207 107.95C98.3257 107.845 98.4832 107.766 98.6669 107.74C98.9818 107.688 99.218 107.557 99.4543 107.373C99.8479 107.085 100.268 106.98 100.688 107.347C100.845 107.478 101.16 107.347 101.239 107.635C101.003 107.819 100.767 108.002 100.53 108.186C100.268 108.579 99.8217 108.736 99.4543 108.998C99.1918 109.182 98.9031 109.339 98.6406 109.523C97.8795 109.942 97.1184 110.388 96.331 110.781C95.8061 111.017 95.2549 111.279 94.73 111.489C94.415 111.593 94.1263 111.725 93.8114 111.856C92.6565 112.327 91.4492 112.668 90.2681 113.009C84.8615 114.372 79.481 114.32 74.1006 112.852C73.077 112.59 72.0796 112.223 71.1085 111.856C70.7411 111.725 70.3736 111.567 69.9799 111.41C69.4813 111.174 68.9826 110.991 68.4839 110.755C67.6703 110.283 66.8567 109.837 66.043 109.365C65.1507 108.867 64.3895 108.212 63.5497 107.661C63.4447 107.583 63.3922 107.478 63.3397 107.399C61.8174 106.194 60.4001 104.909 59.1141 103.467C55.5184 99.5091 53.025 94.948 51.8177 89.7054C51.4502 88.1588 51.1615 86.6122 51.1353 85.0132C51.0303 84.7249 51.1615 84.4103 51.0566 84.0957L51.0303 84.122Z" fill="#22BDFC"/>
<path d="M79.0608 51.2245C79.4282 51.0672 79.8482 51.0934 80.2419 51.0672C86.226 50.7002 91.9214 51.8274 97.2231 54.6846C99.349 55.8118 101.291 57.2011 103.102 58.8001C105.543 60.9496 107.616 63.3612 109.322 66.1136C109.847 66.9524 110.372 67.8175 110.766 68.7611C110.504 68.8922 110.346 68.7087 110.215 68.5252C110.084 68.3679 109.952 68.2631 109.716 68.3417C109.559 68.3941 109.427 68.3417 109.296 68.2893C108.299 67.8699 107.328 67.4243 106.252 67.1621C105.543 67.0048 105.044 66.4544 104.493 66.0087C103.785 65.4583 103.05 64.9078 102.262 64.4097C102.105 64.3049 101.947 64.3311 101.79 64.4097C101.659 64.4097 101.58 64.3311 101.501 64.2262C99.7952 62.4437 97.8792 60.9234 95.7533 59.6651C93.9685 58.6166 92.0526 57.804 90.0579 57.2273C89.8742 57.1749 89.6642 57.1487 89.5592 56.9652C89.4542 56.6244 89.1393 56.572 88.8506 56.5195C88.0107 56.3623 87.2496 56.0739 86.5147 55.6021C86.0685 55.2875 85.4911 55.1827 84.9924 54.973C83.9163 54.5273 82.919 54.0031 81.9741 53.3215C81.4754 52.9545 80.9243 52.6138 80.3468 52.3254C79.8482 52.0633 79.507 51.5914 79.0608 51.2507V51.2245Z" fill="#7BE0FE"/>
<path d="M55.9379 91.9336C55.7804 91.8812 55.7017 91.7239 55.6755 91.5928C55.413 90.6229 54.8356 89.7579 54.6519 88.7618C54.5469 88.2113 54.3894 87.687 54.3894 87.1103C54.3894 86.7958 54.3369 86.455 53.8907 86.4026C53.7595 86.4026 53.6808 86.2715 53.6545 86.1667C53.5495 85.7997 53.3133 85.5113 53.0509 85.2492C52.4209 84.5414 52.211 83.6764 51.9748 82.8376C51.8435 82.3395 51.5023 81.9201 51.4498 81.3958C51.4498 81.1861 51.1874 81.1861 51.0037 81.1861C51.0037 79.4298 51.2661 77.6998 51.6336 75.9959C52.4734 72.0115 54.0482 68.3416 56.3316 64.9601C56.9353 64.0689 57.5652 63.2038 58.2738 62.4174C58.6675 62.1553 58.9825 61.7883 59.3499 61.5C59.5074 61.3951 59.6649 61.2378 59.8748 61.3427C60.0848 61.4738 60.0323 61.7097 60.0323 61.8932C60.0323 62.1029 59.9011 62.2864 59.8486 62.4699C59.7173 62.8368 59.8486 63.0465 60.1898 63.2038C60.5047 63.3349 60.8197 63.2825 61.1609 63.23C62.0795 63.099 62.9719 62.8368 63.9167 62.7058C64.1267 62.6796 64.3367 62.6009 64.4941 62.7844C64.5991 62.9941 64.4154 63.1252 64.3104 63.23C63.4443 64.0164 62.6569 64.8553 61.9483 65.7465C60.6885 67.3193 59.5599 68.997 58.6938 70.8319C58.6413 70.9367 58.5625 71.0416 58.4838 71.094C58.2738 71.2513 58.1163 71.4348 57.9851 71.6707C56.2266 74.6066 55.203 77.7784 54.8093 81.1599C54.5731 83.1783 54.6256 85.1968 54.9668 87.2152C55.1768 88.6307 55.4917 90.02 55.9117 91.3569C55.9642 91.5404 56.0691 91.7239 55.9642 91.9074L55.9379 91.9336Z" fill="#33CAFE"/>
<path d="M101.24 107.635C100.951 107.557 100.662 107.504 100.4 107.321C100.111 107.111 99.7698 107.295 99.5074 107.478C99.2449 107.662 99.0349 107.845 98.6937 107.845C98.5363 107.845 98.3788 107.95 98.2738 108.055C97.8276 108.448 97.5389 108.474 96.9878 108.186C96.7515 108.055 96.4628 108.002 96.2529 108.291C96.0691 108.553 95.8592 108.841 95.5705 108.369C95.4917 108.238 95.3343 108.291 95.203 108.291C94.8881 108.291 94.7043 108.16 94.6519 107.845C94.6519 107.688 94.7831 107.662 94.8881 107.609C95.5967 107.295 96.2529 106.902 96.9353 106.535C98.5625 105.565 100.085 104.49 101.502 103.232C102.499 102.34 103.392 101.397 104.232 100.401C105.229 99.2734 106.069 98.0152 106.83 96.7045C107.696 95.2366 108.379 93.69 108.93 92.0648C109.061 91.6454 109.218 91.1998 109.35 90.7803C109.402 90.6231 109.428 90.4396 109.612 90.3609C109.901 90.3085 110.032 90.4658 110.085 90.7017C110.163 90.9376 110.216 91.1735 110.268 91.4357C110.321 91.7764 110.478 91.8289 110.767 91.6716C110.819 91.6454 110.898 91.6192 110.977 91.5667C111.371 91.4095 111.502 91.4881 111.738 91.8289C112.053 92.2483 112.053 92.6415 111.869 93.1395C111.686 93.6376 111.502 94.1356 111.502 94.6861C110.846 96.3638 109.98 97.9104 109.008 99.4307C106.961 102.576 104.442 105.303 101.423 107.557C101.371 107.583 101.318 107.609 101.266 107.635H101.24Z" fill="#2EC8FE"/>
<path d="M101.79 64.3834C101.895 64.095 102.078 64.1737 102.236 64.2785C102.708 64.5669 103.128 64.9601 103.601 65.2222C104.204 65.563 104.598 66.1135 105.202 66.428C105.595 66.6377 105.91 67.0571 106.409 67.1096C106.829 67.162 107.223 67.2931 107.59 67.4503C108.167 67.7125 108.824 67.8698 109.375 68.2105C109.454 68.263 109.585 68.3154 109.663 68.2367C109.952 68.0008 110.11 68.1581 110.241 68.394C110.346 68.5775 110.53 68.6824 110.74 68.7086C111.947 71.0678 112.787 73.558 113.338 76.1532C113.705 77.8832 113.915 79.6395 113.942 81.422C113.942 81.6317 113.942 81.8414 113.942 82.0511C113.548 81.9987 113.548 81.6842 113.6 81.3958C113.653 81.1075 113.758 80.8453 113.837 80.5832C113.758 80.6094 113.81 80.7405 113.758 80.8191C113.627 81.1337 113.338 81.2385 113.154 80.9502C112.813 80.5046 112.341 80.3473 111.894 80.1114C111.238 79.7706 110.818 79.1153 110.267 78.6434C110.031 78.4337 109.847 78.1978 109.716 77.9094C109.349 76.8871 109.086 75.8124 108.666 74.7901C107.931 73.06 107.065 71.4086 105.963 69.862C105.832 69.6785 105.648 69.495 105.464 69.3639C105.07 68.9707 104.782 68.4727 104.467 68.0008C103.706 66.8474 102.866 65.7727 101.947 64.7504C101.842 64.6455 101.711 64.5669 101.763 64.3834H101.79Z" fill="#5FD9FE"/>
<path d="M79.0608 51.2245C79.3758 51.2245 79.5595 51.4866 79.7432 51.6439C81.0293 52.6924 82.4466 53.5312 83.8901 54.3438C84.3625 54.606 84.8612 54.8419 85.3861 54.9992C86.3835 55.3137 87.1971 56.0215 88.2207 56.2836C88.5881 56.3885 88.9818 56.336 89.323 56.5458C89.4543 56.6244 89.7167 56.6506 89.533 56.9127C89.4018 57.0438 89.2181 57.0176 89.0606 56.9652C87.1184 56.4409 85.1237 56.2574 83.129 56.1001C82.5516 55.9953 82.0004 55.9953 81.423 56.1001C79.7957 56.1788 78.1947 56.4409 76.5937 56.703C76.0425 56.4147 75.4389 56.2836 74.8615 56.205C74.0216 56.1001 73.3392 55.6545 72.5781 55.3399C72.4993 55.3137 72.4468 55.2351 72.3681 55.2351C71.6857 55.1827 71.5807 54.6846 71.5282 54.1603C71.502 53.8458 71.4232 53.5837 71.1345 53.4264C71.0558 53.3739 71.0033 53.2691 70.9771 53.1642C72.4206 52.5089 73.9429 52.0895 75.4914 51.7487C76.6462 51.4866 77.801 51.2769 78.9821 51.1982L79.0608 51.2245Z" fill="#67DBFE"/>
<path d="M109.795 77.9094C110.137 78.4337 110.53 78.8531 111.029 79.2201C111.134 79.2987 111.213 79.4036 111.291 79.5084C111.449 79.7444 111.659 79.9803 111.921 80.0589C112.473 80.2424 112.945 80.4783 113.26 80.9764C113.417 81.2123 113.575 81.0812 113.68 80.8977C113.732 80.7929 113.732 80.6618 113.89 80.557C113.89 80.8191 113.916 81.055 113.811 81.2909C113.654 81.6055 113.706 81.8938 113.995 82.1035C114.074 86.455 113.26 90.6491 111.554 94.6597C111.554 94.6597 111.528 94.7121 111.501 94.7384C111.396 94.5286 111.37 94.3189 111.475 94.1092C111.685 93.6636 111.659 93.1656 111.921 92.7199C112 92.5889 111.974 92.4054 111.843 92.2743C111.79 92.2219 111.738 92.1694 111.685 92.117C111.449 91.7763 111.134 91.6976 110.714 91.8811C110.347 92.0384 110.215 91.986 110.163 91.5665C110.11 91.3044 110.032 91.0161 110.005 90.7539C109.979 90.518 109.848 90.4656 109.638 90.4656C109.507 90.3345 109.533 90.151 109.585 89.9937C110.242 87.4773 110.399 84.9346 110.32 82.3657C110.32 82.3133 110.32 82.287 110.32 82.2346C110.268 80.9764 110.084 79.7444 109.822 78.5385C109.769 78.355 109.664 78.1453 109.822 77.9618L109.795 77.9094Z" fill="#3DCDFE"/>
<path d="M64.5207 62.8898C64.0221 62.6801 63.5759 62.9684 63.1034 63.0208C62.3161 63.0995 61.5549 63.3878 60.7675 63.4402C60.3739 63.4402 60.0327 63.3878 59.7702 63.0995C59.5077 62.8111 59.7177 62.5228 59.8227 62.2344C59.8227 62.2344 59.8227 62.2082 59.8227 62.182C59.9539 61.9199 60.0327 61.5791 59.8489 61.448C59.639 61.2645 59.4028 61.5791 59.2453 61.7364C58.9566 61.9985 58.6941 62.3393 58.2742 62.4179C59.324 61.0548 60.5576 59.849 61.8436 58.7218C62.8935 57.7782 63.9958 56.9131 65.2031 56.2054C65.4918 56.1005 65.7805 56.0743 66.0692 56.1005C66.358 56.1005 66.4892 56.2578 66.4629 56.5724C66.3842 57.2277 66.4629 57.4112 67.0928 57.6995C67.8015 58.0665 68.5364 58.3286 69.35 58.2762C69.6125 58.2762 69.8749 58.3286 70.1374 58.3811C70.3211 58.4335 70.5048 58.4859 70.5311 58.7481C70.4786 58.9316 70.3211 58.984 70.1636 59.0364C68.2739 60.0849 66.4892 61.2907 64.8619 62.7325C64.7569 62.8373 64.652 62.9946 64.442 62.916L64.5207 62.8898Z" fill="#49D2FE"/>
<path d="M70.5319 58.7731C70.4794 58.4324 70.1907 58.4586 69.9808 58.4324C69.5346 58.3799 69.0884 58.4061 68.6685 58.3275C67.8286 58.1964 67.0412 57.8819 66.4113 57.3052C66.1751 57.0955 66.2801 56.8596 66.3588 56.6499C66.49 56.3091 66.4113 56.178 66.0439 56.2042C65.7814 56.2042 65.5189 56.2042 65.2302 56.2042C66.49 55.2868 67.8811 54.579 69.2721 53.9237C69.8495 53.6615 70.4269 53.3732 71.0306 53.1897C71.7655 53.478 71.713 54.1334 71.7655 54.7363C71.7655 54.946 71.8705 54.9984 72.0017 55.0246C72.5791 55.1295 73.0515 55.4178 73.5765 55.68C74.2851 56.0469 75.0725 56.0469 75.8336 56.2829C76.0961 56.3615 76.3848 56.3877 76.5685 56.6236C76.4898 56.7547 76.3323 56.7809 76.2011 56.8333C74.3901 57.279 72.6316 57.9081 70.9519 58.6945C70.8206 58.7469 70.6894 58.8518 70.5319 58.7731Z" fill="#54D5FE"/>
<path d="M51.0299 84.1221C51.1874 84.4104 51.0824 84.725 51.1086 85.0395C50.9774 84.7512 51.0299 84.4366 51.0299 84.1221Z" fill="#33CAFE"/>
<path d="M96.9875 106.613C96.2526 107.111 95.439 107.452 94.6779 107.845C92.8931 108.605 91.0822 109.26 89.1662 109.654C87.8539 109.942 86.5154 110.125 85.1768 110.256C83.707 110.388 82.211 110.388 80.7412 110.309C78.694 110.23 76.6731 109.837 74.6784 109.287C71.0302 108.264 67.7494 106.587 64.7836 104.227C63.2089 102.995 61.7653 101.606 60.558 100.007C60.663 99.8236 60.6105 99.6663 60.558 99.4828C60.4268 98.9324 60.5843 98.4343 60.9255 98.0149C61.1092 98.0149 61.1879 98.146 61.2667 98.277C62.0278 99.2993 62.9202 100.217 63.8388 101.108C66.9621 104.096 70.584 106.193 74.7309 107.452C76.5156 108.002 78.3266 108.317 80.1901 108.5C82.4735 108.71 84.7569 108.579 87.014 108.212C87.2765 108.159 87.539 108.133 87.8014 108.081C90.3998 107.583 92.8407 106.665 95.1241 105.381C95.2028 105.328 95.3078 105.276 95.4128 105.25C95.7015 105.197 95.8852 104.883 96.2001 104.988C96.3314 105.145 96.2001 105.25 96.0952 105.355C95.9902 105.459 95.8589 105.538 95.754 105.617C95.4915 105.8 95.5177 105.931 95.8065 106.036C95.9377 106.089 96.0689 106.167 96.1739 106.272C96.3051 106.429 96.4626 106.508 96.6726 106.429C96.8301 106.377 96.9875 106.377 96.9875 106.639V106.613Z" fill="#0571A9"/>
<path d="M60.9251 98.0417C60.8201 98.3825 60.7152 98.6971 60.6102 99.0378C60.5052 99.3 60.6889 99.5097 60.7414 99.7456C60.7939 99.9553 60.7676 100.06 60.5314 100.034C59.744 99.1689 59.0617 98.199 58.458 97.2029C57.4344 95.5515 56.647 93.769 55.9384 91.9603C55.4922 90.5447 55.0985 89.103 54.8885 87.6089C54.8885 87.504 54.8885 87.3729 54.8885 87.2681C54.8098 87.0584 54.836 86.8749 55.0198 86.77C55.361 86.5865 55.4397 86.2982 55.4922 85.9574C55.5447 85.5904 55.5972 85.1972 55.7547 84.8302C55.8071 84.7254 55.8071 84.5943 55.9384 84.5681C56.2008 84.9351 56.0696 85.3545 56.1483 85.7739C56.6208 88.5263 57.3032 91.2001 58.5367 93.7428C59.1929 95.1059 59.9278 96.4165 60.8201 97.6485C60.9251 97.7796 61.0301 97.9107 60.9514 98.0942L60.9251 98.0417Z" fill="#0E84BA"/>
<path d="M60.9253 98.0409C59.9804 96.6516 59.0881 95.2623 58.3794 93.7419C57.3296 91.5138 56.6209 89.1808 56.1748 86.743C56.0435 86.009 55.9385 85.3012 55.9123 84.5673C55.7286 84.2789 55.7286 83.9382 55.7286 83.6236C55.5973 79.7178 56.2272 75.9693 57.7233 72.3519C57.907 71.88 58.117 71.4344 58.4582 71.0412C59.0356 69.8878 59.6917 68.7607 60.4004 67.6859C60.9253 66.8995 61.529 66.1655 62.1064 65.4054C62.6313 64.7238 63.3399 64.2258 63.8386 63.518C64.0223 63.2559 64.3635 63.1772 64.5472 62.8889C65.4134 62.2073 66.227 61.4734 67.1194 60.8443C68.2217 60.0841 69.324 59.3239 70.5576 58.7734C72.4998 57.8559 74.4945 57.0958 76.6204 56.6501C78.2477 56.3356 79.8749 56.0734 81.5284 56.021C82.0796 55.9686 82.657 55.9686 83.2082 56.021C85.2554 56.0996 87.2763 56.3356 89.271 56.886C89.376 56.9123 89.5072 56.9123 89.6122 56.9385C90.4783 57.2268 91.3445 57.5152 92.2106 57.8297C94.6252 58.7472 96.8561 60.0316 98.8771 61.6569C99.9269 62.4957 100.924 63.3869 101.843 64.383C103.26 65.8772 104.389 67.5811 105.544 69.2849C106.305 70.1762 106.698 71.2509 107.145 72.2732C108.221 74.7897 108.851 77.4373 109.087 80.1634C109.192 81.3168 109.087 82.444 109.166 83.5712C109.034 85.5634 108.746 87.5556 108.194 89.4954C108.037 89.9672 107.932 90.4653 107.748 90.9371C107.696 91.0944 107.617 91.2779 107.486 91.3827C107.302 91.4614 107.223 91.3041 107.118 91.1992C106.515 90.4915 105.885 89.8099 105.229 89.1284C105.071 88.9711 104.992 88.7876 104.992 88.5779C105.045 88.1585 105.176 87.7391 105.281 87.3197C105.885 84.5673 105.911 81.7625 105.517 78.9838C105.281 77.0703 104.704 75.2616 103.969 73.5053C102.893 70.9626 101.37 68.7082 99.507 66.6636C96.095 63.1248 92.0006 60.7656 87.1976 59.7433C86.2527 59.5336 85.2816 59.4025 84.2843 59.3501C84.0481 59.3501 83.8381 59.3501 83.6019 59.3239C82.8932 59.2452 82.2108 59.2452 81.5022 59.3239C79.77 59.4025 78.0902 59.6909 76.4105 60.0841C72.7098 61.0802 69.4815 62.8889 66.6469 65.4578C64.521 67.45 62.7888 69.7306 61.5027 72.3519C60.2954 74.8421 59.4818 77.4635 59.2455 80.2421C59.0093 82.6537 59.1406 85.0129 59.6655 87.3721C60.2166 89.8886 61.1615 92.2478 62.5263 94.4497C63.1037 95.3409 63.7074 96.2322 64.3898 97.0448C66.2795 99.3253 68.5366 101.16 71.1613 102.576C73.6021 103.886 76.1742 104.751 78.9301 105.145C80.7148 105.407 82.5258 105.459 84.3368 105.302C84.9929 105.25 85.6753 105.197 86.3315 105.145C86.6464 105.381 86.4889 105.617 86.3315 105.826C85.964 106.324 85.8328 106.849 85.9115 107.451C85.9378 107.74 86.069 107.871 86.3577 107.897C86.6727 107.923 87.0139 107.95 87.3288 107.923C87.5125 107.923 87.7488 107.818 87.8537 108.107C85.3079 108.631 82.762 108.762 80.1636 108.552C76.1218 108.185 72.3423 106.98 68.8254 104.961C66.3582 103.546 64.206 101.763 62.3426 99.6137C61.8701 99.0894 61.424 98.5127 60.9778 97.9623L60.9253 98.0409Z" fill="#DFF7FE"/>
<path d="M58.4315 71.0415C57.6966 72.6143 57.0667 74.2395 56.6468 75.9434C55.9644 78.6958 55.7019 81.4744 55.9119 84.3054C55.9119 84.3841 55.9119 84.4889 55.9119 84.5676C55.7544 85.0656 55.6494 85.5637 55.5707 86.0879C55.5182 86.3763 55.492 86.7433 55.0458 86.8219C54.8883 86.8481 54.8621 87.0578 54.8621 87.2413C54.6521 86.6908 54.6521 86.1141 54.5996 85.5637C54.3896 83.0996 54.5996 80.6618 55.177 78.2502C55.7282 75.8385 56.6993 73.6104 57.9591 71.4871C58.0641 71.3036 58.2216 71.1726 58.4315 71.0939V71.0415Z" fill="#1D99CE"/>
<path d="M96.9873 106.613C96.9873 106.613 96.8561 106.403 96.7511 106.482C96.4362 106.718 96.2524 106.587 96.0687 106.325C95.9637 106.167 95.7538 106.115 95.57 106.062C95.3076 105.984 95.2813 105.826 95.4913 105.669C95.675 105.538 95.8325 105.407 96.0162 105.276C96.1212 105.197 96.1999 105.119 96.1737 104.988C96.1737 104.778 96.3574 104.726 96.4886 104.647C98.1684 103.625 99.7169 102.393 101.134 101.029C102.21 99.9547 103.208 98.8013 104.074 97.5431C104.179 97.3858 104.257 97.1499 104.52 97.1499C104.756 97.3072 104.651 97.5169 104.52 97.648C104.021 98.3295 103.759 99.011 104.257 99.8237C104.362 99.9809 104.336 100.243 104.257 100.479C103.575 101.423 102.735 102.261 101.869 103.048C100.557 104.254 99.1395 105.302 97.6435 106.22C97.4073 106.351 97.171 106.482 96.9611 106.613H96.9873Z" fill="#1282B6"/>
<path d="M104.283 100.48C104.152 99.9553 104.1 99.431 103.785 98.9592C103.68 98.8019 103.864 98.5135 103.995 98.33C104.152 98.0679 104.31 97.8058 104.467 97.5436C104.52 97.4388 104.625 97.3077 104.467 97.2029C104.415 97.0456 104.493 96.9145 104.572 96.7834C105.648 95.1844 106.514 93.4544 107.223 91.6719C107.249 91.567 107.302 91.4884 107.38 91.4097C107.695 90.833 107.8 90.1777 108.037 89.5486C108.247 89.5486 108.352 89.6797 108.352 89.8369C108.352 90.5709 108.667 91.2 108.955 91.8554C108.981 91.934 109.008 92.0388 109.008 92.1175C108.614 93.4544 108.01 94.7388 107.354 95.9708C106.567 97.465 105.648 98.8543 104.598 100.165C104.52 100.27 104.388 100.375 104.283 100.48Z" fill="#1A8FC3"/>
<path d="M109.008 92.1168C108.641 91.4615 108.273 90.8061 108.299 90.0197C108.299 89.81 108.247 89.6527 108.063 89.5479C108.562 87.5819 108.903 85.6159 109.034 83.5975C109.113 82.9159 109.034 82.2344 109.061 81.5266C109.061 81.3431 109.034 81.1334 109.271 81.0548C109.507 81.0024 109.638 81.1859 109.717 81.3431C109.874 81.6839 110.11 81.946 110.425 82.1557C110.425 83.2567 110.478 84.3314 110.425 85.4324C110.32 86.979 110.084 88.5256 109.69 90.0197C109.664 90.1508 109.638 90.2819 109.638 90.4129C109.376 90.9634 109.323 91.5663 109.034 92.1168H109.008Z" fill="#2CA2D3"/>
<path d="M110.424 82.1561C110.005 82.2085 109.873 81.894 109.716 81.6056C109.611 81.4221 109.611 81.0552 109.296 81.1338C108.955 81.2124 109.112 81.5532 109.112 81.7891C109.06 82.392 109.217 82.9949 109.033 83.5716C109.033 82.1823 109.033 80.7668 108.85 79.3775C108.535 76.861 107.905 74.4232 106.908 72.0902C106.488 71.1203 105.989 70.2029 105.49 69.2854C105.726 69.3903 105.884 69.5737 106.015 69.7572C107.616 72.0378 108.85 74.5018 109.611 77.1756C109.69 77.4115 109.742 77.6474 109.821 77.9096C109.978 78.8008 110.215 79.6659 110.293 80.5571C110.346 81.1076 110.477 81.6319 110.424 82.1823V82.1561Z" fill="#44AEDB"/>
<path d="M83.1822 56.0216C82.631 56.0216 82.0536 56.0216 81.5024 56.0216C82.0536 55.8906 82.631 55.8906 83.1822 56.0216Z" fill="#7BE0FE"/>
<path d="M107.38 91.4091C106.96 92.8509 106.252 94.1615 105.517 95.446C105.176 96.0489 104.808 96.5994 104.441 97.1761C102.735 99.6401 100.714 101.763 98.2729 103.546C97.5905 104.044 96.8556 104.516 96.1469 104.988C95.9107 105.119 95.6745 105.224 95.4383 105.355C94.9134 105.407 94.5197 105.748 94.0472 105.957C93.5748 106.193 93.0761 106.351 92.5512 106.482C92.1575 106.56 91.9738 106.456 91.9476 106.036C91.8951 105.145 91.9476 104.254 92.7087 103.625C92.8399 103.52 92.8924 103.389 92.7612 103.258C92.7349 102.995 92.9712 102.969 93.1286 102.891C94.5722 102.104 95.9632 101.265 97.2493 100.217C97.7217 99.8236 98.1941 99.4566 98.5878 98.9848C99.6377 97.9887 100.609 96.9401 101.449 95.7605C102.971 93.6373 104.099 91.3305 104.861 88.814C104.861 88.7616 104.913 88.7092 104.939 88.6567C104.966 88.6305 105.018 88.6043 105.071 88.6567C105.071 88.814 105.123 88.9189 105.228 89.0499C105.937 89.8363 106.672 90.6227 107.38 91.4091Z" fill="#B0EAFE"/>
<path d="M92.7607 103.206C92.7607 103.206 93.0494 103.206 93.0756 103.363C93.0756 103.494 92.9969 103.573 92.8919 103.651C92.3932 103.966 92.2095 104.438 92.1308 105.014C92.0783 105.355 92.0783 105.696 92.0783 106.037C92.0783 106.351 92.2095 106.456 92.5244 106.378C93.4168 106.194 94.2304 105.748 95.0703 105.381C95.2015 105.329 95.3328 105.198 95.464 105.329C94.3092 105.932 93.1806 106.535 91.9733 106.98C90.6085 107.479 89.2437 107.898 87.8002 108.16C87.354 107.977 86.9078 108.16 86.4616 108.108C85.8579 108.029 85.8317 107.977 85.753 107.4C85.648 106.745 85.8579 106.247 86.2516 105.748C86.3566 105.617 86.4879 105.408 86.2779 105.25C86.3304 105.041 86.5141 105.041 86.6716 105.014C88.6138 104.674 90.451 104.045 92.262 103.284C92.4457 103.232 92.5769 103.075 92.7869 103.18L92.7607 103.206Z" fill="#C2EEFE"/>
<path d="M99.5596 66.6111C100.504 67.5548 101.318 68.6295 102.053 69.7567C103.759 72.2994 104.861 75.1042 105.517 78.0925C105.57 78.3547 105.596 78.6168 105.622 78.8789C105.15 78.7741 104.756 78.512 104.415 78.2236C103.864 77.6993 103.365 77.1226 102.867 76.5197C101.712 75.0518 100.373 73.7674 98.536 73.1644C97.6961 72.9023 96.8562 72.6402 95.9901 72.5091C94.7828 72.3256 93.5755 72.0635 92.4994 71.4082C92.2632 71.2509 91.9745 71.3295 91.7382 71.1984C91.6857 71.015 91.6857 70.8053 91.4758 70.7004C90.9246 70.3858 90.7409 69.914 90.7934 69.2849C90.7934 69.0752 90.8721 68.813 90.5309 68.7868C90.3997 68.6033 90.2685 68.4198 90.0585 68.3412C89.0087 67.9218 88.3 67.1092 87.6439 66.1917C86.7252 64.9335 85.6754 63.8063 84.3369 62.9413C84.0481 62.7578 83.7594 62.6529 83.4445 62.5743C83.2345 62.5219 83.0246 62.4432 82.8146 62.3384C82.4996 62.1811 82.4996 62.0238 82.8146 61.8403C82.9458 61.7617 83.077 61.683 83.2083 61.6568C84.3369 61.552 85.4654 61.7092 86.5678 61.8403C89.9798 62.2073 93.1293 63.3869 96.2263 64.75C97.0399 65.117 97.8798 65.484 98.6409 65.9558C98.9559 66.1655 99.1921 66.4538 99.5071 66.6373L99.5596 66.6111Z" fill="#7EE1FE"/>
<path d="M92.3417 103.389C90.4783 104.202 88.5361 104.831 86.5151 105.172C86.4364 105.172 86.3576 105.224 86.2789 105.25C85.4653 105.512 84.5992 105.46 83.733 105.512C79.6649 105.748 75.8067 104.988 72.1323 103.258C68.7465 101.659 65.9382 99.3523 63.6548 96.3902C63.2086 95.7873 62.8412 95.1319 62.4212 94.529C62.2375 94.0572 62.0538 93.5591 61.8438 93.0873C61.2664 91.7504 60.794 90.3611 60.5315 88.9194C60.3216 87.7398 60.1641 86.5602 60.1903 85.3544C60.1903 84.8039 60.1378 84.2534 60.1641 83.7292C60.1641 83.1263 60.2428 82.5496 60.3216 81.9729C60.3216 81.8156 60.3216 81.6321 60.5053 81.5535C60.7415 81.6845 60.689 81.9205 60.6628 82.1039C60.5053 82.9428 60.6628 83.7554 60.7153 84.568C60.794 85.7476 61.0302 86.901 61.2927 88.0544C61.6076 89.3126 62.0276 90.5184 62.8149 91.5669C63.1824 92.065 63.6023 92.563 64.1535 92.9038C64.5472 93.1659 64.8621 93.5854 65.3083 93.7951C65.4395 93.8737 65.5708 93.9523 65.702 94.0048C66.1219 94.1621 66.3057 94.0834 66.4106 93.6378C66.4894 93.3494 66.5944 93.1135 66.8043 92.9038C66.9093 92.8252 66.9618 92.6941 67.0143 92.563C67.303 91.5932 67.8542 90.7019 68.0379 89.6796C68.0904 89.3126 68.1691 88.998 68.0379 88.6311C67.9592 88.3427 68.0641 88.2379 68.3529 88.2903C68.6153 88.4213 68.7465 88.6835 68.8778 88.9194C69.009 89.1553 69.1665 89.3388 69.3764 89.4961C69.6127 90.0728 69.4289 90.6757 69.3502 91.2524C69.219 92.3271 68.904 93.4019 68.6678 94.4766C68.3529 95.9446 68.3004 97.3863 68.8253 98.8018C69.6914 101.161 71.3449 102.262 73.8908 102.393C75.6755 102.498 77.3552 101.947 79.035 101.502C80.1111 101.213 81.2134 101.082 82.3158 101.03C84.4942 100.925 86.5939 101.266 88.6673 101.947C89.6646 102.262 90.7145 102.341 91.7118 102.55C91.8168 102.55 91.9481 102.577 92.053 102.629C92.5255 102.76 92.6042 102.97 92.3417 103.389Z" fill="#24BDF8"/>
<path d="M91.7122 71.1465C92.1846 71.0941 92.5783 71.2514 92.9458 71.5135C93.182 71.697 93.4707 71.7756 93.7594 71.8543C94.678 72.1426 95.6491 72.2737 96.594 72.4834C97.9325 72.7717 99.2448 73.1387 100.4 73.9513C101.528 74.7377 102.342 75.7601 103.234 76.7824C103.785 77.4115 104.232 78.1979 105.098 78.4862C105.308 78.5649 105.386 78.827 105.623 78.8794C105.701 79.5086 105.859 80.1377 105.885 80.7668C105.964 82.9425 105.938 85.092 105.465 87.2153C105.465 87.2939 105.413 87.3463 105.386 87.425C104.993 87.5822 104.599 87.5298 104.31 87.2153C103.995 86.8745 103.654 86.6124 103.26 86.4026C102.946 86.2454 102.788 85.9308 102.657 85.6162C102.263 84.6988 102.289 83.7813 102.473 82.8376C102.473 82.7066 102.526 82.5755 102.526 82.4444C102.946 79.692 102.893 80.6619 101.896 78.0144C101.764 77.6736 101.607 77.3329 101.423 77.0183C100.478 75.4455 99.1398 74.4494 97.3026 74.1348C95.5704 73.8203 93.8119 73.6106 92.1059 73.1649C91.4497 72.9814 90.8198 72.7717 90.2949 72.2999C90.3737 71.5921 91.0298 71.0941 91.7385 71.1989L91.7122 71.1465Z" fill="#65DAFE"/>
<path d="M99.5595 66.6117C99.1396 66.5593 98.8771 66.1923 98.5622 65.9826C97.3286 65.1962 95.9638 64.7244 94.6253 64.1477C93.208 63.5448 91.7907 63.0205 90.2947 62.6011C89.2448 62.3127 88.1687 62.1555 87.0927 61.972C85.8066 61.7623 84.4943 61.6574 83.182 61.6836C82.7096 61.8933 82.1846 61.8409 81.7122 61.8671C80.7149 61.9458 79.7438 62.103 78.7727 62.2865C78.6414 62.2865 78.5102 62.339 78.379 62.2865C78.1165 62.103 78.379 62.0244 78.484 61.9458C79.0614 61.4215 79.77 61.1069 80.4786 60.8186C81.6335 60.373 82.7621 59.8749 83.9431 59.4555C84.1006 59.4031 84.2318 59.3244 84.3631 59.1934C86.174 59.3244 87.9325 59.6914 89.6385 60.2419C92.0794 61.0021 94.3103 62.1817 96.3575 63.6758C97.5123 64.5409 98.6409 65.4583 99.5858 66.5593L99.5595 66.6117Z" fill="#77C9E8"/>
<path d="M90.321 72.2209C91.1084 72.7452 91.9745 72.9811 92.8931 73.1908C94.5991 73.584 96.3576 73.7151 98.0636 74.1607C98.851 74.3704 99.5071 74.816 100.137 75.3141C101.371 76.284 101.896 77.6471 102.42 79.0364C102.63 79.6131 102.998 80.1373 102.867 80.8189C102.735 81.4742 102.657 82.1557 102.552 82.8111C102.447 83.545 102.368 84.279 102.552 85.0392C102.709 85.8518 103.26 86.3237 103.916 86.7169C103.969 86.7431 104.048 86.7955 104.1 86.8479C104.415 87.2935 104.835 87.5033 105.386 87.4508C105.281 87.8702 105.203 88.2634 105.098 88.6828C105.098 88.6828 105.045 88.6828 105.019 88.6828C104.809 88.7615 104.73 88.578 104.625 88.4731C103.26 87.0838 101.896 85.6945 100.583 84.2528C100.504 84.148 100.399 84.0431 100.399 83.912C100.426 83.2567 100.741 82.68 100.898 82.0771C101.134 81.1859 101.318 80.2946 101.423 79.3771C101.476 78.8529 101.344 78.4072 101.003 78.014C100.531 77.4898 100.111 76.8869 99.5596 76.4412C99.4284 76.3102 99.4021 76.1005 99.2709 75.9432C98.956 75.5762 98.5623 75.3927 98.0898 75.3403C96.5151 75.1568 94.9403 74.9995 93.3656 74.8422C92.4207 74.7374 91.4496 74.6587 90.5047 74.5539C90.3998 74.5539 90.2948 74.5277 90.216 74.4753C89.9536 74.2655 89.7961 73.951 89.6124 73.6626C89.2974 73.1384 89.0087 72.6141 88.6413 72.1161C88.5625 71.985 88.4838 71.8539 88.5363 71.6966C88.7987 71.4869 89.035 71.618 89.2449 71.7753C89.3499 71.8539 89.4024 71.9588 89.4811 72.0374C89.7698 72.4044 90.0586 72.4568 90.3735 72.2209H90.321Z" fill="#5FD1F8"/>
<path d="M84.3369 59.2455C84.3632 59.4814 84.1794 59.5338 84.022 59.5862C82.4472 60.1629 80.9249 60.792 79.4027 61.4736C79.009 61.6571 78.6678 61.9979 78.3003 62.26C77.9329 62.6008 77.408 62.5221 76.988 62.7318C75.7807 63.0202 74.6259 63.492 73.4973 64.0163C73.1036 64.1998 72.7362 64.4095 72.3425 64.5668C71.6601 64.8289 70.9514 65.0648 70.2953 65.3794C70.2165 65.4056 70.1378 65.4318 70.0328 65.3794C69.8491 65.1959 70.0328 65.0648 70.1378 64.9337C71.1876 63.7541 72.395 62.758 73.6285 61.7882C74.4946 61.1328 75.387 60.5561 76.3319 60.0056C77.2505 59.6649 78.1953 59.5338 79.1664 59.4027C79.9276 59.2979 80.715 59.1668 81.5023 59.2193C82.211 59.1668 82.9459 59.1668 83.6545 59.2193C83.8907 59.2193 84.1269 59.2193 84.3632 59.2193L84.3369 59.2455Z" fill="#60BFE3"/>
<path d="M60.5581 81.5528C60.3218 82.1819 60.3218 82.8897 60.2956 83.545C60.2694 85.0129 60.3481 86.4809 60.5318 87.975C60.663 89.1546 61.0042 90.2294 61.3454 91.3566C61.6342 92.3264 62.1066 93.2177 62.3953 94.1614C62.4215 94.2924 62.4478 94.4235 62.4478 94.5546C61.083 92.4313 60.1906 90.1245 59.6132 87.6605C59.6132 87.5818 59.6132 87.5032 59.6132 87.4508C59.2458 85.7469 59.272 84.0168 59.3245 82.313C59.4295 80.0062 59.9806 77.7781 60.9518 75.681C61.6866 74.0558 62.5528 72.483 63.5764 71.015C64.0225 70.3597 64.5212 69.7306 65.1249 69.2063C65.3873 69.1015 65.5711 68.7869 65.9123 68.8393C66.0172 69.0753 65.8073 69.2063 65.7023 69.3636C65.5711 69.5471 65.4661 69.7306 65.3348 69.9141C63.8388 71.8801 62.6577 74.0296 61.8704 76.3888C61.3717 77.8829 60.9255 79.3771 60.768 80.9499C60.768 81.1596 60.768 81.3955 60.5843 81.579L60.5581 81.5528Z" fill="#2BB6EA"/>
<path d="M65.2034 69.181C64.311 70.046 63.6024 71.0683 62.9462 72.1168C62.0801 73.5061 61.3452 74.9479 60.7416 76.442C60.4004 77.2809 60.0592 78.1197 59.8754 78.9847C59.613 80.2167 59.403 81.4488 59.4293 82.707C59.4293 83.7555 59.4293 84.8303 59.4817 85.905C59.508 86.4031 59.718 86.9011 59.613 87.4254C59.298 86.3507 59.1668 85.2497 59.0881 84.1487C58.6944 76.8877 61.1615 70.7538 66.3057 65.6684C66.4107 65.5635 66.5419 65.4849 66.6469 65.38C66.9094 65.2752 66.9094 65.4849 66.9094 65.6422C66.9094 65.8781 66.8569 66.0878 66.7257 66.2713C66.3582 66.9266 66.017 67.6082 65.7808 68.3159C65.6758 68.6567 65.5183 68.9712 65.2034 69.181Z" fill="#34AFDD"/>
<path d="M65.203 69.1804C65.7804 68.1843 66.0691 67.0571 66.6728 66.0872C66.7778 65.93 67.014 65.5892 66.6203 65.3795C68.1426 63.9115 69.901 62.7582 71.7645 61.7883C73.208 61.0281 74.7041 60.399 76.3051 60.032C76.3838 60.163 76.3838 60.1893 76.2526 60.2417C75.6227 60.5562 75.019 60.897 74.4679 61.3164C73.4443 62.0766 72.3944 62.8368 71.5021 63.7281C71.0559 64.1737 70.6359 64.5931 70.1898 65.0387C70.0848 65.1436 69.9798 65.2222 69.9798 65.3795C69.9535 65.563 69.7961 65.6416 69.6648 65.7203C68.4313 66.5591 67.3552 67.529 66.3316 68.6037C66.2266 68.7348 66.1216 68.8921 65.8854 68.8396C65.5967 68.8659 65.4655 69.1542 65.1768 69.2066L65.203 69.1804Z" fill="#4BB4DC"/>
<path d="M83.6285 59.2199C82.9199 59.2199 82.185 59.2199 81.4763 59.2199C82.185 59.0888 82.9199 59.0888 83.6285 59.2199Z" fill="#77C9E8"/>
<path d="M100.451 83.9384C100.688 84.2267 100.924 84.5413 101.186 84.8034C102.394 86.0616 103.627 87.2937 104.834 88.5519C104.887 88.6043 104.939 88.6305 104.992 88.6568C104.861 89.548 104.493 90.3868 104.152 91.1995C103.181 93.5324 101.895 95.6557 100.215 97.5168C99.7427 98.0411 99.2965 98.6178 98.7191 99.0372C98.2992 99.0896 98.3517 98.7489 98.3254 98.513C98.2204 97.8052 98.1679 97.0974 98.0892 96.3897C97.958 94.9479 97.538 93.5586 97.2756 92.1169C96.9869 90.5441 97.1443 89.1024 97.9842 87.7131C98.1942 87.3985 98.4304 87.0315 98.3254 86.6121C98.2992 86.3762 98.5091 86.4024 98.6404 86.3238C98.8766 86.3238 99.0078 86.1403 99.139 85.9306C99.6115 85.249 99.8477 84.4626 100.163 83.7025C100.346 83.5976 100.373 83.7811 100.451 83.8597V83.9384Z" fill="#35C9FD"/>
<path d="M98.3003 86.5866C98.6152 86.5866 98.589 86.7177 98.484 86.9536C98.2215 87.6614 97.7753 88.2381 97.5129 88.9458C97.1454 89.9419 97.1717 90.9642 97.3554 91.9866C97.6703 93.7166 98.1165 95.3943 98.274 97.1506C98.3265 97.5962 98.379 98.0156 98.379 98.4612C98.379 98.6972 98.379 98.9593 98.6677 99.0379C97.3029 100.427 95.7281 101.528 94.0484 102.472C93.6022 102.708 93.1823 102.944 92.7361 103.206C92.6049 103.258 92.4474 103.337 92.3162 103.389C92.4474 102.865 92.4474 102.786 91.8962 102.734C89.7703 102.498 87.7493 101.764 85.6497 101.345C84.9673 101.187 84.2324 101.187 83.5237 101.187C82.1064 101.187 80.6892 101.187 79.2981 101.554C78.0383 101.895 76.831 102.367 75.5187 102.472C73.8914 102.629 72.2642 102.603 70.7944 101.685C69.3246 100.768 68.6685 99.3263 68.3535 97.7011C68.1435 96.6263 68.2485 95.5516 68.4847 94.503C68.7997 93.0089 69.2196 91.5409 69.3246 89.9944C69.3246 89.7846 69.2721 89.6274 69.2459 89.4177C69.2984 88.9458 69.6658 88.474 70.0333 88.4478C70.2432 89.1031 70.217 89.7846 70.1382 90.4662C70.007 91.672 69.7446 92.8254 69.4296 93.9788C69.2196 94.8438 69.0884 95.7088 69.0884 96.6001C69.0884 98.8807 70.5057 100.742 72.6841 101.397C74.0489 101.817 75.3612 101.738 76.6998 101.345C78.2483 100.873 79.7705 100.322 81.3978 100.218C83.4712 100.086 85.5447 100.086 87.5656 100.768C88.7467 101.161 89.9278 101.607 91.1613 101.738C92.0012 101.817 92.8148 101.843 93.6547 101.738C94.7833 101.633 95.4919 100.925 95.9643 99.9554C96.5418 98.7758 96.673 97.5438 96.568 96.2331C96.4368 94.6865 95.9381 93.2186 95.7544 91.6982C95.6232 90.6235 95.5707 89.5487 95.9119 88.5002C95.9906 88.2643 96.0431 88.0021 96.2006 87.8186C96.6205 87.8186 96.6992 87.5041 96.8042 87.2157C97.0404 86.6391 97.6179 86.3507 98.2215 86.5342L98.3003 86.5866Z" fill="#22B2EA"/>
<path d="M76.9357 62.6268C77.3819 62.4957 77.8281 62.3909 78.2743 62.2598C79.0879 62.1812 79.9015 61.9715 80.7152 61.8928C81.5288 61.8142 82.3424 61.7093 83.1823 61.7356C83.0248 61.8404 82.8411 61.9453 82.6574 62.0763C83.0511 62.3909 83.4972 62.3909 83.8909 62.5744C84.9408 63.0724 85.7807 63.8064 86.568 64.6452C87.2767 65.4054 87.8278 66.2967 88.5102 67.0568C88.9564 67.5549 89.4813 68.0005 90.1375 68.2364C90.3737 68.3151 90.6099 68.4461 90.5837 68.7607C90.1113 69.2325 89.6126 69.5209 88.9302 69.2588C88.6677 69.1539 88.4053 69.1015 88.1166 69.0753C87.6966 68.9442 87.5129 68.5772 87.2767 68.2627C86.6468 67.3452 86.0431 66.4015 85.3345 65.5103C85.0195 65.1171 84.6521 64.7763 84.2059 64.5142C84.0222 64.4093 83.8647 64.3831 83.6547 64.3831C83.4185 64.3045 83.261 64.0685 83.0248 63.9899C82.7099 63.885 82.3949 63.8588 82.08 63.9637C81.9225 64.0161 81.7913 64.0947 81.6075 64.0161C81.4501 63.9113 81.2663 63.8588 81.0564 63.9113C80.5314 64.0685 80.0065 64.1996 79.5079 64.4617C78.9829 64.7501 78.4318 64.7501 77.8543 64.6977C77.6181 64.6977 77.4344 64.5404 77.3032 64.3569C77.1195 64.0947 76.9095 63.8588 76.6733 63.6229C76.1746 63.1249 76.2271 62.9151 76.8832 62.653L76.9357 62.6268Z" fill="#6BDAFD"/>
<path d="M88.0889 68.9182C88.3251 68.9182 88.5613 68.9444 88.7713 69.0493C89.3487 69.3376 89.8474 69.1542 90.346 68.8396C90.4248 68.7872 90.5035 68.761 90.5823 68.7347C90.8185 68.6037 91.0022 68.5775 90.9497 68.9444C90.9497 68.9969 90.9497 69.0231 90.9497 69.0755C90.7922 69.8357 91.1072 70.36 91.7371 70.7269C92.052 70.8842 91.9471 71.0153 91.7371 71.1464C91.0809 71.2512 90.556 71.5396 90.346 72.2211C89.9524 72.8764 89.9524 72.8764 89.4799 72.2211C89.2437 71.9065 89.0075 71.592 88.5351 71.6968C88.2464 71.8541 87.9577 71.6968 87.6952 71.6968C87.5115 71.6706 87.5377 71.5133 87.6165 71.3823C87.7477 71.1726 87.8789 70.9629 88.0101 70.7532C88.2201 70.4648 88.2464 70.1503 88.1939 69.7833C88.1414 69.4949 87.9577 69.2328 88.1151 68.9444L88.0889 68.9182Z" fill="#FDFEFE"/>
<path d="M60.5579 81.5534C60.6628 80.1641 60.9253 78.8272 61.3452 77.4903C62.1064 74.9738 63.2087 72.6408 64.731 70.4914C64.8885 70.2554 65.0197 69.9671 65.2822 69.8098C65.4396 70.203 65.2297 70.5438 65.0722 70.8583C64.6785 71.6185 64.2586 72.4049 63.9436 73.2175C63.9436 73.27 63.8911 73.3224 63.8649 73.3748C63.8124 73.5583 63.6287 73.7942 63.8124 73.9515C64.0223 74.135 64.2848 74.0302 64.4685 73.8729C65.7021 72.9554 67.1981 72.9554 68.6154 72.7981C69.4815 72.6933 70.4001 72.7457 71.2925 72.7981C72.3161 72.8243 73.3397 72.7195 74.337 72.4574C74.442 72.4311 74.5733 72.4049 74.6782 72.4574C74.8095 72.7719 74.547 72.8243 74.3633 72.9292C73.6546 73.3486 72.8673 73.5059 72.1061 73.6632C71.1088 73.8729 70.1114 73.9515 69.1141 74.135C68.0642 74.3185 67.0406 74.6068 66.227 75.3146C65.3609 76.101 64.7572 77.0447 64.521 78.2505C64.2323 79.7184 64.5998 81.0291 65.3871 82.2611C65.8596 82.9951 66.437 83.6504 67.0144 84.3058C67.2506 84.699 67.5656 85.0659 67.4868 85.564C67.4868 85.6164 67.4606 85.6426 67.4343 85.6688C67.3818 85.7213 67.2506 85.7475 67.3031 85.8523C67.3031 85.931 67.3556 85.9834 67.4081 86.0358C67.9068 86.6387 67.8805 87.2416 67.3556 87.8183C67.3293 87.8708 67.2769 87.9232 67.2769 87.9756C67.2769 87.9756 67.2769 88.0018 67.2769 88.0543C67.5393 88.1591 67.8018 88.1591 68.0642 88.1853C68.1955 88.1853 68.4054 88.1329 68.4054 88.3688C68.248 88.3688 68.0117 88.2902 68.1955 88.631C68.4579 89.1552 68.143 89.6795 68.038 90.1775C67.9592 90.5969 67.8018 90.9901 67.6181 91.3833C67.4606 91.7241 67.2769 92.0649 67.1981 92.4581C67.1194 92.7202 67.0406 92.9561 66.7782 93.1134C66.5945 93.2183 66.5945 93.428 66.5682 93.6115C66.4632 94.2144 66.227 94.3717 65.6758 94.1095C65.1772 93.8736 64.6522 93.6377 64.3373 93.1396C64.3373 93.1134 64.2848 93.061 64.2586 93.0348C62.8675 92.196 62.2114 90.8591 61.6602 89.4173C61.109 87.9756 60.8728 86.4815 60.6891 84.9611C60.6104 84.2271 60.5054 83.4669 60.5054 82.7067C60.5054 82.3135 60.6628 81.9204 60.5841 81.5272L60.5579 81.5534Z" fill="#30C8FE"/>
<path d="M68.3797 88.3951C67.9598 88.2116 67.4873 88.3164 67.0149 88.1854C67.1986 87.8708 67.3561 87.5562 67.5661 87.2679C67.7235 87.032 67.7235 86.8485 67.5661 86.6126C67.3823 86.3242 67.2249 86.0097 67.0411 85.6951C67.1461 85.564 67.2774 85.6427 67.4086 85.6165C67.6448 85.4592 67.881 85.4854 68.0647 85.6689C68.6421 86.3242 69.4295 86.4553 70.2432 86.5601C70.4531 86.5863 70.6631 86.5601 70.8206 86.7174C71.083 87.0844 71.2668 87.4776 71.4767 87.8708C71.5555 88.0281 71.6604 88.1854 71.4767 88.3426C71.1355 88.4737 70.7943 88.3951 70.4794 88.3951C70.3219 88.3951 70.1644 88.4475 70.0069 88.4475C69.7182 88.7358 69.5083 89.0766 69.2983 89.4174C69.1933 89.4174 69.0883 89.5484 69.0358 89.365C68.9046 88.9718 68.6159 88.6834 68.3797 88.3689V88.3951Z" fill="#F9FDFE"/>
<path d="M81.6603 63.9375C82.4214 63.6229 83.1301 63.6229 83.7075 64.2782C84.0749 64.4355 84.0487 64.8287 84.2324 65.0908C85.361 67.7122 86.4108 70.3597 87.5657 72.981C87.6444 73.1645 87.7494 73.3218 87.8281 73.5053C87.9856 73.8199 88.2218 73.9771 88.5893 74.0558C89.0879 74.1606 89.6391 74.1082 90.1115 74.3441C90.8464 74.5276 91.6076 74.5276 92.3424 74.6063C94.3371 74.8422 96.3056 75.0257 98.3003 75.2354C98.7727 75.2878 99.1402 75.5237 99.3764 75.9431C99.3764 76.1791 99.1664 76.2053 99.0352 76.2839C98.379 76.6247 97.6704 76.8868 96.988 77.2538C96.8043 77.3062 96.6468 77.4635 96.4631 77.3587C96.1219 76.9917 95.7544 77.1227 95.3607 77.2538C92.8674 78.2499 90.4002 79.246 87.9331 80.2159C86.3846 80.8188 84.8361 81.4479 83.3138 82.077C82.5789 82.3654 82.5264 82.3392 82.5264 81.5266C82.5264 77.6732 82.5264 73.8199 82.5264 69.9665C82.5264 69.2063 82.5264 68.4199 82.5264 67.6597C82.5264 67.5287 82.5527 67.3452 82.4214 67.2928C82.2377 67.2403 82.159 67.4238 82.1065 67.5549C81.8703 68.0005 81.7128 68.4986 81.5028 68.9966C80.7942 70.6743 80.138 72.4043 79.4294 74.1082C79.2457 74.5276 79.0619 74.9208 78.7995 75.2878C78.4845 75.7072 78.0383 75.8907 77.5397 75.9694C76.1749 76.2053 74.8101 76.3363 73.4453 76.5198C72.0805 76.6771 70.7157 76.8344 69.3509 76.9917C69.1672 76.9917 68.931 77.0179 68.7997 77.1752C68.4848 77.5159 68.1436 77.4635 67.8024 77.2276C67.2775 76.9392 66.7525 76.6771 66.2014 76.4674C65.9652 76.3101 65.624 76.2315 65.7552 75.8383C66.0439 75.3402 66.5426 75.2092 67.0413 75.1567C68.4061 74.9732 69.7708 74.8684 71.1619 74.6849C72.9204 74.4752 74.6789 74.3179 76.4111 74.082C76.9623 74.0034 77.2772 73.7412 77.4872 73.2432C77.9859 72.0636 78.4583 70.8578 78.957 69.6782C79.5606 68.2626 80.1118 66.8209 80.663 65.3792C80.8204 65.0384 80.8729 64.6452 81.1091 64.3307C81.2404 64.1472 81.3454 63.9112 81.6341 63.9375H81.6603Z" fill="#FEFDFD"/>
<path d="M96.9873 77.1761C97.591 76.7567 98.2996 76.547 98.9295 76.2062C99.087 76.1276 99.2182 76.0227 99.3757 75.9441C99.5069 76.0752 99.5069 76.2324 99.5856 76.3897C99.7694 76.7305 99.6381 77.045 99.5332 77.3334C99.1657 77.9887 98.5883 78.4606 98.0371 78.9324C97.5385 79.378 97.066 79.8761 96.5936 80.3479C95.9112 80.846 95.36 81.5013 94.7301 82.0518C93.8378 82.8906 92.9192 83.7032 92.053 84.5945C91.8956 84.7518 91.7906 84.9615 91.6331 85.0925C91.3444 84.9877 91.0294 85.0139 90.8195 84.7518C90.767 84.542 90.8982 84.3848 91.0294 84.2537C91.8693 83.2576 92.8404 82.3663 93.7065 81.3965C94.5464 80.479 95.4125 79.5877 96.1737 78.5916C96.5149 78.146 96.8298 77.6742 96.9873 77.1237V77.1761Z" fill="#CBEBF8"/>
<path d="M90.1107 74.3444C89.5333 74.292 88.9296 74.2395 88.3522 74.1609C88.011 74.1085 87.8273 73.8464 87.6961 73.558C86.8562 71.7231 86.095 69.8619 85.3077 68.027C84.914 67.0571 84.5203 66.0872 84.1003 65.1173C84.4153 64.9863 84.5203 65.2484 84.6515 65.4057C85.5176 66.5066 86.2788 67.66 86.9349 68.892C87.2761 69.5474 87.7748 70.0979 88.0372 70.8056C87.8798 71.0415 87.7223 71.3037 87.5648 71.5658C87.8798 71.6182 88.1685 71.6444 88.4834 71.6969C88.6672 72.2211 89.1133 72.6143 89.3496 73.1124C89.5595 73.5318 89.8482 73.9512 90.0844 74.3444H90.1107Z" fill="#48B2DC"/>
<path d="M99.4025 77.3855C99.5337 77.0709 99.5862 76.7302 99.5862 76.3894C100.216 76.7302 100.531 77.3855 101.003 77.8573C101.45 78.303 101.581 78.8535 101.502 79.4301C101.345 80.767 101.003 82.0777 100.557 83.3621C100.505 83.5456 100.426 83.7291 100.452 83.9126C100.374 83.8602 100.269 83.7815 100.19 83.7291C99.35 83.2049 98.9038 82.4709 99.0088 81.4486C99.35 80.4787 99.5862 79.5088 99.5337 78.4603C99.5337 78.0671 99.4287 77.7001 99.4025 77.3331V77.3855Z" fill="#4DBCE4"/>
<path d="M74.705 72.4832C73.6289 72.7977 72.5265 72.955 71.398 72.9288C70.1906 72.9288 68.9571 72.7977 67.776 73.0074C66.6474 73.2172 65.4139 73.1909 64.469 74.0298C64.259 74.2133 64.0228 74.1608 63.7866 74.1346C63.4979 74.1084 63.5766 73.8463 63.6291 73.689C63.7604 73.322 63.9178 72.955 64.0753 72.588C64.2853 72.0638 64.5215 71.5657 64.8364 71.0939C65.0727 70.7007 65.2039 70.255 65.3089 69.8094C65.4139 69.4162 65.7551 69.1803 65.9388 68.8395C66.2537 68.5512 66.5687 68.2628 66.8574 67.9483C67.8022 66.9522 68.9046 66.1396 70.0332 65.3532C70.7943 65.0648 71.5817 64.7503 72.3428 64.4619C72.3953 64.6192 72.2903 64.6978 72.1853 64.8027C72.1066 64.8813 72.0279 64.9338 71.9491 65.0124C71.1092 65.7726 70.978 65.7202 72.0279 66.559C72.789 67.1619 73.6289 67.6599 74.5475 67.9483C75.7548 68.3415 77.0146 68.4463 78.1169 67.5027C78.3007 67.3454 78.4581 67.1357 78.7731 67.2143C78.8518 67.3978 78.7206 67.5289 78.6419 67.6599C78.3532 68.1318 77.9332 68.4725 77.5395 68.8133C77.3821 68.9444 77.1721 68.9444 76.9884 68.9444C76.6997 68.9444 76.4634 69.023 76.2272 69.1279C75.7286 69.3376 75.2299 69.4162 74.7312 69.1017C74.6262 69.0492 74.495 68.9706 74.285 68.9968C74.4425 69.8356 74.3638 70.622 73.4189 71.1201C74.1538 71.3822 74.9937 71.4084 75.0462 72.3521C74.9674 72.457 74.8624 72.5094 74.7574 72.457L74.705 72.4832Z" fill="#45D0FE"/>
<path d="M78.7198 67.2405C78.3261 67.3191 78.0898 67.6337 77.8274 67.8434C77.4075 68.1842 76.9613 68.2366 76.4626 68.289C74.9403 68.4725 73.6805 67.7648 72.4732 67.0046C72.027 66.7162 71.6333 66.4279 71.2659 66.0609C71.0559 65.8512 71.0559 65.6939 71.2659 65.4842C71.5808 65.1172 72.0533 64.9075 72.3157 64.4881C73.628 63.8066 74.9928 63.1774 76.4363 62.758C76.5938 62.7056 76.7775 62.6794 76.9613 62.627C76.3576 63.0464 76.3576 63.0464 76.9088 63.5968C77.0138 63.7017 77.145 63.8328 77.25 63.9376C77.4337 64.1473 77.4862 64.5405 77.8274 64.5667C78.3523 64.5929 78.9035 64.6978 79.3759 64.4095C79.9533 64.0687 80.5832 63.9638 81.1869 63.7279C81.3968 63.6493 81.6068 63.7017 81.6856 63.9638C81.1606 64.3046 81.0556 64.8813 80.8194 65.4056C80.242 65.9298 79.5859 66.3492 79.1397 66.9784C79.061 67.1094 78.9297 67.2405 78.7722 67.2667L78.7198 67.2405Z" fill="#5ED8FE"/>
<path d="M99.113 81.5531C99.008 82.3395 99.3492 82.9424 99.9004 83.4404C100.005 83.5453 100.084 83.6501 100.189 83.755C100.084 84.4627 99.7691 85.0919 99.4279 85.721C99.323 85.9045 99.1917 86.088 99.0605 86.2715C98.9818 86.4025 98.8768 86.5074 98.6931 86.4025C98.1944 86.1928 97.9319 85.7734 97.6957 85.3016C97.722 84.8297 97.9844 84.4365 98.1419 84.0171C97.9582 84.0171 97.7482 84.1744 97.5382 84.0171C97.4595 83.9123 97.5382 83.8598 97.617 83.8074C98.1156 83.2831 98.4568 82.6802 98.7193 82.0249C98.798 81.8152 98.8243 81.5531 99.113 81.5269V81.5531Z" fill="#2BB3E5"/>
<path d="M97.774 85.3538C98.0889 85.7208 98.4039 86.0616 98.6926 86.4285C98.5876 86.5596 98.4039 86.481 98.2989 86.5858C97.459 86.5858 96.9866 87.0314 96.7504 87.7916C96.6454 88.1324 96.5142 88.08 96.3304 87.8703C96.2517 87.8703 96.173 87.8703 96.1205 87.7916C96.0155 87.6868 95.9105 87.5819 95.8055 87.4509C95.7268 87.3198 95.6218 87.1887 95.4906 87.1101C95.4381 87.1101 95.4118 87.0839 95.3593 87.0839C95.1756 87.0577 94.8869 87.1363 94.8344 86.9266C94.7819 86.6907 95.0706 86.612 95.2281 86.5334C95.9105 86.1926 96.5142 85.7208 97.1966 85.3538C97.354 85.2752 97.564 85.0917 97.7215 85.3538H97.774Z" fill="#D3F1FD"/>
<path d="M96.2004 87.7657C96.2004 87.7657 96.3054 87.8444 96.3579 87.8968C95.9904 88.7618 95.7805 89.6531 95.833 90.5705C95.9117 91.7501 96.0954 92.9297 96.3841 94.0831C96.6728 95.2103 96.8303 96.3375 96.8041 97.4908C96.7516 98.9588 96.2792 100.296 95.2556 101.344C94.8356 101.764 94.1795 101.947 93.5496 101.973C91.5811 102.131 89.6914 101.737 87.8542 101.082C86.4631 100.584 85.0458 100.401 83.5498 100.348C81.1614 100.269 78.9043 100.899 76.6471 101.554C74.3375 102.235 72.1853 101.947 70.4005 100.191C69.4819 99.2733 69.0095 98.1462 68.9833 96.8093C68.957 95.3938 69.3245 94.0307 69.6394 92.6676C69.8756 91.6191 70.1118 90.5443 70.0594 89.4434C70.0594 89.1026 70.0069 88.788 69.9806 88.4473C70.0594 88.29 70.1906 88.2638 70.3481 88.29C70.7417 88.3686 70.768 88.6308 70.768 88.9453C70.768 90.9899 70.3481 93.0084 69.9019 95.0006C69.5607 96.521 69.6919 97.9365 70.663 99.2209C71.4241 100.217 72.4215 100.689 73.6288 100.951C74.8361 101.213 75.9647 101.003 77.067 100.61C79.4817 99.719 82.0013 99.4306 84.5472 99.5355C85.8857 99.5879 87.1718 100.034 88.4316 100.427C89.4552 100.741 90.4788 101.082 91.5286 101.161C93.1559 101.292 94.6257 100.872 95.5443 99.4306C96.1742 98.4345 96.2529 97.3073 96.1742 96.1802C96.0692 94.7122 95.623 93.2967 95.4393 91.855C95.2818 90.623 95.2556 89.3647 95.7542 88.1851C95.833 88.0016 95.8592 87.7395 96.1742 87.7395L96.2004 87.7657Z" fill="#1EAFE8"/>
<path d="M88.0902 70.7798C87.6178 70.2293 87.2766 69.6002 86.9354 68.971C86.253 67.7128 85.4656 66.5332 84.5995 65.406C84.4945 65.2488 84.3633 65.0915 84.1533 65.0915C84.0221 64.8293 83.8646 64.541 83.7334 64.2789C83.9434 64.0954 84.1271 64.2789 84.2846 64.3575C85.0195 64.7507 85.4656 65.406 85.9381 66.0351C86.6205 66.9264 87.1191 67.9487 87.8803 68.7613C87.9328 68.84 88.0115 68.8924 88.0902 68.8924C88.169 69.207 88.1952 69.5215 88.3002 69.8361C88.4052 70.2031 88.3527 70.4914 88.0902 70.7535V70.7798Z" fill="#5FCFF3"/>
<path d="M74.705 72.4832C74.705 72.4832 74.8887 72.4308 74.9675 72.3784C75.4137 72.6405 75.4137 72.6667 75.7549 72.1687C76.0698 71.723 76.4635 71.4871 76.9884 71.3823C77.1459 71.356 77.3034 71.356 77.4871 71.225C77.3821 70.9891 77.1196 70.8318 77.0934 70.5434C77.0934 70.3075 77.2246 70.2027 77.4346 70.1502C77.9333 69.993 78.432 69.8095 78.8781 69.5473C78.9306 69.5211 79.0356 69.4425 79.0619 69.5998C78.5894 70.9628 77.9858 72.2735 77.4084 73.6104C77.2509 73.9512 76.9884 74.0822 76.6472 74.1347C75.125 74.3181 73.6289 74.5016 72.1067 74.6589C70.4269 74.8424 68.7209 75.0259 67.0412 75.2094C66.5687 75.2618 66.0963 75.3929 65.8076 75.8123C65.7026 76.1793 65.6239 76.5463 65.6764 76.9395C65.6764 77.0705 65.7289 77.2016 65.6764 77.3327C65.3877 77.5162 65.3089 77.8045 65.2302 78.1191C64.8103 79.9802 65.4664 81.5792 66.385 83.1258C66.5425 83.3879 66.7 83.6501 66.8837 83.9122C66.9624 84.0433 67.0937 84.1743 66.9887 84.3578C65.7551 83.0996 64.6265 81.7365 64.3641 79.954C64.1279 78.4074 64.5478 76.9919 65.6239 75.7599C66.7787 74.3968 68.3272 74.1347 69.9282 73.8725C71.398 73.6366 72.9203 73.5055 74.2851 72.7978C74.4688 72.7191 74.6263 72.6405 74.7313 72.457L74.705 72.4832Z" fill="#32BBEC"/>
<path d="M66.9623 84.3841C66.8048 83.9909 66.5424 83.6502 66.3324 83.2832C65.6763 82.1298 65.0463 80.9502 64.9939 79.5871C64.9676 78.9318 65.0988 78.2764 65.2301 77.6211C65.2826 77.4114 65.4663 77.3328 65.6763 77.3328C66.0175 77.5687 66.2537 77.9095 66.4899 78.2502C66.4899 79.5085 66.7523 80.6881 67.461 81.7366C67.9597 82.4968 68.5108 83.2045 69.1145 83.8861C69.2195 84.0172 69.3507 84.122 69.3769 84.3055C69.2982 84.7773 68.957 85.0657 68.6683 85.4065C68.3009 85.7997 67.8809 85.5375 67.461 85.5375C67.4085 85.1181 67.1723 84.7511 66.9886 84.3841H66.9623Z" fill="#29B6EB"/>
<path d="M67.4341 85.5376C68.4577 85.7473 68.8776 85.0396 69.2976 84.3056C69.3238 84.2008 69.4025 84.227 69.4813 84.2532C69.6125 84.3318 69.6912 84.4629 69.77 84.594C70.0324 85.1444 70.3999 85.4852 71.0298 85.4066C71.0823 85.4066 71.1348 85.4066 71.2135 85.4328C71.7122 85.5376 71.7384 85.6163 71.4497 86.0357C71.266 86.2978 71.2135 86.6386 70.8461 86.7434C70.3211 86.6648 69.8225 86.5599 69.2976 86.4813C68.7726 86.4027 68.3527 86.1405 68.0377 85.7473C67.854 85.5114 67.6441 85.6425 67.4341 85.5901C67.4341 85.5901 67.4341 85.5376 67.4603 85.5114L67.4341 85.5376Z" fill="#DCF4FC"/>
<path d="M96.1997 87.7654C95.7273 88.2897 95.6486 88.945 95.5698 89.6004C95.3861 91.1732 95.7273 92.6935 96.0423 94.2139C96.331 95.6818 96.5934 97.176 96.0948 98.6702C95.5961 100.217 94.4675 100.977 92.919 101.265C91.4755 101.527 90.1369 101.082 88.7984 100.662C87.4861 100.269 86.2 99.7973 84.8615 99.6663C83.8903 99.5876 82.893 99.6138 81.8957 99.7187C80.6096 99.8235 79.3235 100.033 78.09 100.426C77.3288 100.662 76.5939 100.898 75.8328 101.108C74.8617 101.37 73.9169 101.16 72.9982 100.924C71.161 100.453 70.1374 99.142 69.6912 97.3857C69.5075 96.6255 69.5863 95.8391 69.77 95.0789C70.0849 93.7945 70.3211 92.4838 70.5049 91.1732C70.6361 90.3868 70.6361 89.5479 70.6623 88.7615C70.6623 88.5518 70.5049 88.4208 70.3474 88.3159C70.7148 88.3159 71.1085 88.2897 71.476 88.2635C71.7909 88.3945 71.7647 88.6567 71.7384 88.945C71.6859 89.9149 71.5022 90.8324 71.3447 91.7761C71.266 92.2479 71.2135 92.746 71.2398 93.2178C71.1348 93.7683 70.9773 94.3187 70.8461 94.8692C70.7411 95.2886 70.6886 95.7081 70.8461 96.1275C70.8198 96.3634 70.8723 96.5469 70.9773 96.7566C71.5285 97.91 72.3158 98.8799 73.4182 99.5614C73.7594 99.7711 74.1006 99.876 74.4943 99.7973C75.7278 99.5352 76.9351 99.142 78.1162 98.7488C78.7461 98.5391 79.4023 98.4342 80.0059 98.1197C80.3996 97.8838 80.8721 97.8838 81.292 97.8313C81.5282 97.8051 81.6857 97.9886 81.8694 98.1197C82.1581 98.3294 82.3156 98.6964 82.7093 98.7226C84.4678 98.5915 86.1738 98.8536 87.8273 99.4041C89.0083 99.7973 90.1894 100.243 91.423 100.374C92.6565 100.505 93.7589 100.217 94.625 99.3255C95.4386 98.4604 95.5698 97.3857 95.5173 96.2585C95.4386 94.5809 94.9399 92.9557 94.7825 91.3042C94.6775 90.0984 94.7825 88.945 95.1761 87.7916C95.3074 87.3984 95.4649 87.2936 95.8585 87.3722C95.9635 87.4771 96.0423 87.6082 96.1473 87.713L96.1997 87.7654Z" fill="#19A6DF"/>
<path d="M71.1614 93.2965C71.0301 92.3528 71.2663 91.4616 71.4501 90.5703C71.5551 89.9674 71.5551 89.3383 71.6863 88.7616C71.7125 88.5781 71.5813 88.4471 71.5026 88.2636C71.3451 87.7393 70.9252 87.3199 70.8202 86.7694C71.0564 86.4024 71.3188 86.0354 71.5813 85.6422C71.3976 85.616 71.2663 85.5636 71.1614 85.5636C70.3477 85.6422 69.9016 85.2228 69.5866 84.5413C69.5341 84.4364 69.5079 84.2791 69.3241 84.3054C68.6417 83.4927 67.9593 82.6539 67.3557 81.7627C66.7258 80.8452 66.4896 79.8229 66.3583 78.7481C66.3583 78.5646 66.3058 78.3812 66.4108 78.2239C66.9095 78.5122 67.3819 78.8268 67.6444 79.351C67.6444 79.587 67.7756 79.7705 67.9331 79.9277C69.2979 81.6054 70.6627 83.2568 72.0012 84.9607C72.3162 85.3801 72.6049 85.7995 72.9461 86.1927C73.0511 86.3238 73.1036 86.4811 73.1298 86.6383C72.8936 87.8179 72.5262 88.9451 72.2112 90.0985C71.975 90.9897 71.7388 91.881 71.4763 92.7722C71.4238 92.9557 71.4238 93.1654 71.2139 93.2441L71.1614 93.2965Z" fill="#179BCE"/>
<path d="M78.7202 75.2354C79.875 72.85 80.7674 70.3335 81.791 67.8956C81.896 67.6597 81.9747 67.4238 82.1584 67.2403C82.2634 67.1355 82.3422 67.0306 82.4996 67.1092C82.6309 67.1617 82.6309 67.2927 82.6309 67.3976C82.6309 67.5287 82.6309 67.6335 82.6309 67.7646V82.2343C83.7857 81.7625 84.9143 81.3168 86.0429 80.8712C89.1924 79.613 92.3419 78.3547 95.5177 77.0965C96.1213 76.8606 96.2788 76.913 96.5413 77.3849C96.6725 77.5683 96.515 77.6994 96.3838 77.8043C95.1502 79.0625 93.8642 80.2159 92.6044 81.4479C91.7382 82.2867 90.8459 83.0993 90.006 83.912C89.796 84.0954 89.8223 84.3314 89.796 84.5673C89.6648 84.8556 89.7698 85.144 89.8223 85.4323C90.3472 87.4507 90.9771 89.443 91.5545 91.4352C91.712 91.9856 91.8695 92.5361 92.0269 93.0866C92.1057 93.4012 92.1582 93.6895 91.9482 93.9779C91.5808 94.1876 91.2396 94.0565 90.8984 93.8992C88.3787 92.6148 85.8591 91.3041 83.3395 90.0197C82.7358 89.7051 82.2372 89.7313 81.6598 90.0197C81.0823 90.308 80.5312 90.675 79.9013 90.8585C79.5863 90.7012 79.77 90.5177 79.9013 90.4128C80.2162 90.2031 80.19 89.9672 80.1637 89.6002C80.1112 88.4206 79.8488 87.1886 80.3737 86.0352C80.4262 85.9042 80.4787 85.7731 80.3475 85.6682C80.2162 85.5896 80.1375 85.7469 80.0588 85.7993C79.77 86.009 79.5338 86.2974 79.3239 86.5595C77.6704 88.6303 75.9381 90.675 74.2846 92.772C73.9434 93.1915 73.6022 93.5847 73.261 94.0041C73.2085 94.0041 73.1823 94.0041 73.1298 93.9516C72.9461 93.7157 72.9986 93.4798 73.0773 93.2439C73.7335 90.9371 74.3634 88.6303 75.0195 86.3236C75.1245 85.9566 75.2032 85.5896 75.3082 85.1964C75.387 84.9343 75.387 84.6721 75.3082 84.41C75.282 84.1741 75.1507 83.9644 74.967 83.8071C74.7046 83.545 74.4683 83.2304 74.2321 82.9159C73.9434 82.5489 73.9172 82.1557 74.1534 81.7625C74.2584 81.579 74.3371 81.3431 74.4683 81.1858C74.7046 80.8188 74.7308 80.4518 74.6783 80.0586C74.5996 79.5606 74.7308 79.4295 75.2295 79.5606C76.1481 79.7965 77.0667 80.0586 77.9591 80.3732C78.3003 80.5042 78.6677 80.6091 79.0352 80.6877C79.3239 80.7664 79.4813 80.6877 79.4288 80.3469C79.3239 79.8227 79.3501 79.246 79.1664 78.7217C79.0352 78.3547 79.0352 77.9878 79.0876 77.5946C79.1401 77.0965 79.1401 76.5984 79.1926 76.1004C79.2451 75.7596 79.0352 75.4451 78.7464 75.2354H78.7202Z" fill="#D9F4FD"/>
<path d="M78.7204 75.236C78.7204 75.236 78.9041 75.1049 78.9828 75.236C79.1928 75.603 79.3503 75.9175 79.2715 76.3894C79.1403 77.2282 79.0091 78.067 79.2715 78.9321C79.4553 79.4563 79.4815 80.0592 79.5078 80.6359C79.534 81.0291 79.1928 80.8456 79.0616 80.8194C78.4842 80.6621 77.9067 80.4786 77.3293 80.2951C76.5682 80.0592 75.8071 79.8233 75.0459 79.6136C74.8097 79.535 74.626 79.5874 74.731 79.9282C74.9672 80.5835 74.6522 81.1078 74.3373 81.632C73.9436 82.3136 73.9436 82.4971 74.4685 83.0738C74.7047 83.3359 74.9147 83.5718 75.1509 83.8339C75.3084 83.9912 75.3871 84.1747 75.3871 84.3844C75.2821 84.4893 75.1772 84.5155 75.0197 84.5155C74.7835 84.4368 74.5997 84.3058 74.416 84.1485C72.8675 82.7068 71.2402 81.3699 69.7705 79.8495C69.0881 79.1418 68.4057 78.4602 67.8283 77.6738C67.697 77.4903 67.5396 77.333 67.7233 77.0971C67.8283 77.1496 67.9595 77.1496 68.0382 77.2282C68.2482 77.3593 68.4057 77.3593 68.5369 77.1233C68.6944 76.8874 68.9831 76.8874 69.2193 76.835C70.8728 76.6515 72.5263 76.468 74.1798 76.2845C75.2559 76.1535 76.332 75.9962 77.4081 75.8389C77.9067 75.7603 78.3004 75.5505 78.6416 75.2098L78.7204 75.236Z" fill="#CAF0FD"/>
<path d="M67.5916 79.4038C67.2766 78.9319 66.7255 78.696 66.3843 78.2504C66.1218 77.9621 65.8331 77.6999 65.6494 77.3591C65.5181 76.8349 65.4132 76.3368 65.8068 75.865C65.7544 76.2058 66.1218 76.2058 66.253 76.3893C66.3055 76.7038 66.4892 76.9659 66.7255 77.1757C67.9853 78.2766 69.1138 79.5086 70.2949 80.6882C71.1085 81.5008 71.9747 82.2086 72.8408 82.9688C73.077 83.1785 73.2607 83.4144 73.4707 83.6503C73.7594 83.9387 74.0219 84.2532 74.4155 84.4367C74.5205 84.4892 74.573 84.5678 74.5468 84.6989C74.2581 84.961 73.8906 85.0396 73.4969 85.0659C72.7883 84.3843 72.0272 83.729 71.3185 83.0474C70.1637 81.9727 69.0351 80.8717 67.8803 79.797C67.7491 79.6659 67.5916 79.5611 67.5653 79.3776L67.5916 79.4038Z" fill="#E2F6FB"/>
<path d="M89.77 84.4626C89.6125 84.2267 89.665 84.0694 89.8487 83.8859C91.4497 82.3655 93.077 80.8452 94.678 79.3248C95.2554 78.7743 95.8328 78.1714 96.4102 77.5947C96.4627 77.5423 96.489 77.4374 96.5152 77.3588C96.6727 77.3064 96.8039 77.2277 96.9614 77.1753C97.0664 77.752 96.6465 78.119 96.3578 78.5122C95.6491 79.5345 94.7568 80.3995 93.9169 81.317C92.972 82.3393 91.9747 83.283 91.0561 84.3577C90.9511 84.4888 90.8461 84.6199 90.7936 84.7771C90.3737 84.9344 90.0325 84.7771 89.7438 84.4888L89.77 84.4626Z" fill="#ADD7EA"/>
<path d="M79.0872 69.6258C78.536 69.8617 78.0111 70.1763 77.4337 70.2811C77.2499 70.3073 77.2237 70.4646 77.2237 70.6219C76.935 70.5957 76.7513 70.386 76.7513 70.1238C76.7513 69.6782 76.6725 69.2064 76.9612 68.8132C77.2499 68.8394 77.4599 68.7345 77.6699 68.5248C78.0636 68.1054 78.5097 67.7384 78.7722 67.2142C79.3234 66.5326 79.927 65.9297 80.6357 65.4055C80.6882 65.353 80.7669 65.353 80.8456 65.353C80.3207 66.7948 79.7433 68.2103 79.1397 69.5996L79.0872 69.6258Z" fill="#48C4EF"/>
<path d="M74.5472 84.6459C73.7073 84.2527 73.2349 83.4401 72.5525 82.8634C71.0565 81.579 69.6392 80.2159 68.3007 78.8004C67.6707 78.1188 66.9096 77.5684 66.3322 76.8344C66.201 76.6771 66.096 76.546 66.2797 76.3625C66.8309 76.5198 67.3295 76.7557 67.802 77.0703C67.802 77.647 68.2744 77.9616 68.6156 78.3285C69.6392 79.5344 70.794 80.6353 71.9489 81.6838C72.9987 82.6275 74.0485 83.5188 75.0984 84.4362C74.9934 84.7246 74.8097 84.7246 74.5735 84.6197L74.5472 84.6459Z" fill="#D9F4FD"/>
<path d="M89.7696 84.4629C90.137 84.5415 90.452 84.7512 90.8194 84.7512C91.0294 84.9609 91.4231 84.8037 91.6068 85.092C91.8955 85.3279 91.9217 85.6687 92.0267 86.0095C92.5516 87.923 93.1028 89.8104 93.6277 91.724C93.9427 92.7987 94.2314 93.8997 94.5463 94.9744C94.6251 95.2103 94.6251 95.4725 94.5988 95.7346C94.5201 96.1016 94.3889 96.4686 93.9952 96.6259C93.7327 96.6259 93.654 96.3899 93.5227 96.2327C93.339 96.0229 93.1553 95.8132 92.9978 95.5773C92.6829 95.2103 92.3942 94.8171 92.1055 94.4239C92.0005 94.3191 91.843 94.188 91.9217 94.0045C92.1579 93.4803 91.8955 92.9822 91.7643 92.5104C91.1081 90.2036 90.4257 87.8706 89.7433 85.5638C89.6646 85.3017 89.5858 85.0658 89.6121 84.7774C89.6121 84.6464 89.6121 84.5153 89.7958 84.4891L89.7696 84.4629Z" fill="#FDFEFE"/>
<path d="M93.5234 91.7502C93.1297 90.3609 92.736 88.9716 92.3423 87.5823C92.1061 86.7435 91.8699 85.9309 91.6074 85.092C91.6074 84.7513 91.8699 84.5678 92.0798 84.3843C93.3134 83.2047 94.5732 82.0513 95.833 80.8717C96.0692 80.662 96.2267 80.3999 96.5154 80.2688C96.7254 80.5047 96.5942 80.7406 96.5154 80.9766C96.3055 81.6319 96.043 82.2872 95.8593 82.9426C95.8068 83.0998 95.7281 83.2309 95.6756 83.3882C95.4393 84.0959 95.0194 84.5153 94.232 84.6202C93.8383 84.6726 93.8383 84.7513 94.1008 85.0658C94.3108 85.3017 94.5995 85.4852 94.6257 85.8522C94.6257 86.0619 94.547 86.2192 94.4158 86.3765C94.0221 86.9008 93.8646 87.5037 93.7071 88.1328C93.4446 89.1813 93.5759 90.2298 93.6284 91.3046C93.6284 91.4881 93.7334 91.6978 93.4971 91.8026L93.5234 91.7502Z" fill="#0D77A7"/>
<path d="M99.1125 81.5529C98.7188 82.1558 98.5351 82.916 98.0627 83.4665C97.9052 83.6762 97.774 83.9121 97.5115 84.017C97.2753 84.2267 97.0128 84.148 96.7766 84.1218C96.6191 84.0694 96.5142 83.9645 96.5142 83.781C96.5667 83.5976 96.6716 83.4403 96.7766 83.2568C97.6427 81.9199 97.774 80.3995 97.9839 78.8792C98.4564 78.3811 99.06 77.9879 99.4275 77.385C99.7162 77.5947 99.6374 77.9355 99.6637 78.1976C99.7424 79.2986 99.6637 80.3733 99.1913 81.3956C99.1913 81.4481 99.165 81.5005 99.1388 81.5529H99.1125Z" fill="#309ECA"/>
<path d="M97.9591 78.8796C98.1691 79.2991 97.9591 79.7185 97.9066 80.1117C97.8541 80.5049 97.6967 80.8718 97.7492 81.265C97.7754 81.4223 97.6704 81.6058 97.5917 81.7631C97.3292 82.3398 97.0405 82.9427 96.7518 83.5194C96.6993 83.6242 96.6206 83.7029 96.4893 83.7553C96.0694 83.6505 95.8594 83.3621 95.7807 82.9689C95.6495 82.5495 95.9907 82.2349 96.0694 81.868C96.1744 81.3175 96.5156 80.8456 96.4893 80.2689C96.9618 79.7971 97.408 79.2991 97.9329 78.8796H97.9591Z" fill="#218CB8"/>
<path d="M76.9353 68.8396C76.9091 69.1279 76.9091 69.4163 76.8303 69.7046C76.7253 70.124 76.8566 70.4124 77.1978 70.6483C77.3815 70.8842 77.539 71.0939 77.7227 71.3298C77.6177 71.4609 77.4602 71.4347 77.3553 71.4347C76.5679 71.5133 76.0167 71.8541 75.623 72.5619C75.3868 73.0075 75.3606 72.9813 75.0981 72.5619C75.0718 72.5094 75.0194 72.457 74.9669 72.3784C74.7569 71.4347 73.8908 71.4871 73.1821 71.225C73.5496 70.858 74.022 70.5959 74.127 70.1502C74.232 69.7308 74.127 69.259 74.127 68.7609C74.232 68.7347 74.3632 68.8396 74.4682 68.9182C75.0718 69.2852 75.6755 69.2852 76.2792 68.9444C76.4629 68.8396 76.6729 68.8134 76.8828 68.8134L76.9353 68.8396Z" fill="#FDFEFE"/>
<path d="M96.7245 84.0178C96.987 84.0178 97.2495 84.0178 97.5119 84.0178C97.7481 84.0178 97.9843 83.9654 98.2731 83.9392C98.0893 84.4373 97.9319 84.9091 97.7744 85.3547C97.6694 85.2761 97.5644 85.2761 97.4332 85.3547C96.5671 85.8528 95.7797 86.4295 94.8611 86.8751C95.1498 87.0586 95.4385 86.8227 95.6484 87.0586C95.2023 87.2945 94.7298 87.1634 94.2574 87.1897C94.0999 87.1897 94.0737 87.0324 94.0999 86.9013C94.1787 86.6654 94.2574 86.4557 94.3886 86.2722C94.4411 86.1149 94.4936 85.9838 94.5724 85.8266C94.8873 85.2761 95.4385 84.9615 95.8847 84.5683C96.1209 84.3586 96.3046 83.9916 96.6983 84.0441L96.7245 84.0178Z" fill="#B8E1F3"/>
<path d="M94.4151 86.2456C94.3363 86.5077 94.2576 86.7699 94.1526 87.0844C94.6513 87.0582 95.15 87.0058 95.6486 87.0582C95.7011 87.2155 95.9111 87.2417 95.9111 87.399C95.5174 87.399 95.3862 87.6349 95.3074 87.9757C94.7825 89.7058 94.9137 91.4358 95.2549 93.1659C95.4649 94.2407 95.7011 95.3416 95.7274 96.4164C95.7799 97.7008 95.5174 98.9066 94.4413 99.7454C93.5489 100.427 92.5253 100.663 91.3968 100.506C90.0057 100.322 88.7197 99.7979 87.4074 99.4047C85.8589 98.9328 84.2841 98.7756 82.6831 98.8542C82.6306 98.3037 82.7881 97.8581 83.208 97.4911C83.3392 97.5173 83.4705 97.596 83.6279 97.5435C84.3628 97.3076 85.0715 97.4911 85.7801 97.6484C87.1187 97.9892 88.431 98.4348 89.7433 98.828C90.4519 99.0639 91.1868 99.1688 91.9217 99.2212C93.1553 99.2998 94.2838 98.3299 94.4413 97.0193C94.4938 96.5998 94.5988 96.1804 94.52 95.761C94.4676 94.6076 93.9951 93.5853 93.7327 92.4844C93.6802 92.2484 93.6014 92.0125 93.5489 91.7504C93.5489 91.1737 93.5489 90.6232 93.4965 90.0465C93.3652 88.9718 93.6014 87.9757 93.9689 87.0058C94.0739 86.7437 94.1001 86.3767 94.4413 86.2456H94.4151Z" fill="#189CD3"/>
<path d="M74.5464 84.6468C74.7302 84.6468 74.9139 84.5944 75.0714 84.4633C75.1763 84.4109 75.3076 84.3584 75.4388 84.3847C75.57 84.5944 75.5438 84.8303 75.4913 85.0662C74.9664 86.9536 74.4414 88.8409 73.9428 90.7021C73.6803 91.6195 73.4441 92.537 73.1554 93.4545C73.1029 93.6379 73.2079 93.7952 73.2079 93.9787C73.2866 94.1884 73.1291 94.2933 73.0242 94.4506C72.7092 94.8438 72.4205 95.237 72.1056 95.6302C71.7644 95.9709 71.5281 96.4166 71.1344 96.6787C70.872 96.6263 70.767 96.4428 70.767 96.2068C70.5833 95.8136 70.5833 95.4205 70.7145 95.0273C70.8982 94.4768 70.9507 93.8739 71.1607 93.3234C71.7644 91.0953 72.3943 88.8671 72.9979 86.6128C72.9979 86.0361 73.1029 85.4856 73.4703 85.0138C73.8378 84.9089 74.2052 84.8303 74.5202 84.6468H74.5464Z" fill="#FEFEFE"/>
<path d="M70.7939 96.2067C70.9251 96.3378 70.9513 96.5737 71.1613 96.6261C71.2663 96.5737 71.345 96.6261 71.4238 96.7048C71.8437 97.6222 72.5261 98.1203 73.5759 98.1203C74.5208 98.1203 75.3869 97.8844 76.253 97.596C77.3554 97.229 78.4577 96.8883 79.56 96.5213C79.7438 96.4689 79.9537 96.4164 80.1637 96.3902C80.5574 96.5213 80.5311 96.8096 80.4786 97.1242C80.3999 97.4912 80.2949 97.8844 80.085 98.1989C79.8487 98.4611 79.4813 98.4611 79.1926 98.5397C77.6178 99.0115 76.0693 99.6145 74.4421 99.929C74.0746 100.008 73.7859 99.9028 73.471 99.7193C72.2374 98.9853 71.4238 97.8844 70.7939 96.5999C70.7151 96.4426 70.6889 96.2854 70.7939 96.1543V96.2067Z" fill="#0E8AC0"/>
<path d="M80.0585 98.2512C80.0585 97.8842 80.2684 97.5434 80.3472 97.2027C80.4784 97.0716 80.6359 96.993 80.7934 96.9405C81.7382 96.7046 82.7093 96.5211 83.6804 96.4163C83.9691 96.4687 84.1266 96.6784 84.2841 96.8881C84.4678 97.1502 84.4153 97.3337 84.1004 97.4124C83.7854 97.491 83.4967 97.6483 83.1555 97.5696C82.8668 97.9628 82.7618 98.4347 82.6306 98.8803C82.5256 98.9852 82.4731 98.9065 82.3944 98.8279C82.2631 98.6706 82.0794 98.5395 81.9482 98.3823C81.6595 98.0415 81.3183 97.9104 80.8459 98.0415C80.5834 98.1201 80.2947 98.1201 80.0322 98.2512H80.0585Z" fill="#C7E9F9"/>
<path d="M73.497 85.013C73.3395 85.5372 73.182 86.0877 73.0245 86.612C72.4471 85.8256 71.896 85.0392 71.2923 84.279C70.3737 83.1256 69.4551 81.9984 68.5102 80.8451C68.2215 80.4781 67.9328 80.1373 67.6704 79.7703C67.5916 79.6655 67.4604 79.5344 67.6179 79.4033C68.484 80.2159 69.3501 81.0023 70.2162 81.8149C71.1873 82.7062 72.1322 83.5974 73.1033 84.4887C73.2608 84.646 73.4445 84.777 73.5232 84.9867L73.497 85.013Z" fill="#046B9B"/>
<path d="M73.288 93.9782C73.288 93.6112 73.6029 93.4277 73.8129 93.1918C74.5215 92.3005 75.2827 91.4093 76.0176 90.5442C77.0149 89.3122 78.0123 88.1064 79.0096 86.8744C79.3508 86.455 79.692 86.0093 80.1119 85.6686C80.2169 85.5899 80.3219 85.4064 80.4794 85.5113C80.6631 85.6161 80.6631 85.8521 80.5844 85.9831C80.2694 86.4812 80.4006 87.0579 80.1907 87.5559C80.1119 87.7394 80.1907 87.9229 80.1907 88.1326C80.1907 88.5782 80.5056 88.9977 80.2432 89.4433C80.2432 89.4695 80.2432 89.5481 80.2432 89.5744C80.6631 90.0986 80.2432 90.3345 79.8757 90.5967C79.797 90.6491 79.7707 90.7277 79.8757 90.8064C79.8757 91.0161 79.692 91.0685 79.5608 91.1209C77.7498 92.0384 75.9388 93.0083 74.1278 93.9258C73.8654 94.0568 73.5767 94.2141 73.2617 93.9782H73.288Z" fill="#C2EEFE"/>
<path d="M73.2867 93.9779C73.7066 94.0565 74.0478 93.8468 74.4152 93.6633C76.1475 92.772 77.8797 91.8808 79.5857 90.9895C79.6907 90.9371 79.7694 90.8585 79.8744 90.8061C80.5043 90.4915 81.1342 90.1769 81.7904 89.8624C82.2891 89.6002 82.7615 89.6002 83.2602 89.8624C85.8323 91.1992 88.4306 92.5361 91.0027 93.8468C91.2915 94.0041 91.6064 94.0303 91.8951 94.0041C92.2888 94.5021 92.6562 95.0264 93.0499 95.5244C92.945 95.839 92.7087 95.6817 92.5513 95.6031C91.4227 94.8953 90.1891 94.3448 89.008 93.7681C87.1183 92.8245 85.2811 91.8022 83.3127 91.0944C82.814 90.9109 82.3153 90.9109 81.7904 91.0944C81.3442 91.2779 80.8718 91.4352 80.4256 91.6449C78.2997 92.6672 76.2 93.7682 74.1265 94.9477C73.5754 95.2623 72.9455 95.4458 72.3681 95.6817C72.2631 95.7341 72.1056 95.839 72.0269 95.6031L73.1817 94.0041C73.1817 94.0041 73.2342 94.0041 73.2604 94.0041L73.2867 93.9779Z" fill="#9BCCE4"/>
<path d="M72.0531 95.577C72.5256 95.577 72.9193 95.3149 73.3129 95.1576C74.5728 94.6595 75.7013 93.8731 76.9087 93.2702C78.5097 92.4576 80.0582 91.5926 81.7379 90.9372C82.4991 90.6489 83.1552 90.8586 83.8376 91.1207C85.2811 91.6712 86.6197 92.4314 87.9845 93.1129C89.0606 93.6372 90.1367 94.1877 91.1865 94.712C91.6327 94.9479 92.0789 95.1838 92.4988 95.4459C92.6563 95.5508 92.8138 95.6818 93.0237 95.4984C93.3124 95.8653 93.6274 96.2061 93.9161 96.5469C93.8374 96.8615 93.5224 96.809 93.2862 96.9139C92.7088 97.0187 92.2626 96.6517 91.7639 96.4945C88.9556 95.0003 86.0948 93.6372 83.2864 92.1431C82.814 91.8809 82.3678 91.8285 81.8692 92.0906C79.2183 93.4799 76.5675 94.843 73.8904 96.2061C73.7329 96.2848 73.6017 96.3372 73.4442 96.4158C73.0767 96.5993 72.7093 96.809 72.3156 96.8877C71.9481 96.9663 71.6069 96.9663 71.3182 96.7304C71.2658 96.7042 71.187 96.6517 71.1345 96.6255C71.4232 96.2585 71.6857 95.8916 72.0269 95.577H72.0531Z" fill="#BDE2F3"/>
<path d="M93.3391 96.8098C93.5228 96.6787 93.7853 96.7049 93.969 96.5476C94.284 96.3641 94.3889 96.0496 94.5202 95.7612C94.6252 95.8137 94.6777 95.8923 94.6777 96.0234C94.5727 96.8622 94.5989 97.7272 94.0215 98.4088C93.4441 99.0903 92.683 99.4049 91.7643 99.3525C90.0321 99.2738 88.4836 98.5136 86.8563 98.0942C86.1477 97.9107 85.439 97.6748 84.7042 97.5699C84.3367 97.5175 83.9955 97.5699 83.6543 97.6748C83.4706 97.7272 83.3131 97.7534 83.1819 97.5437C83.4706 97.3865 83.8118 97.3078 84.1267 97.2554C84.3367 97.2292 84.3892 97.1243 84.258 96.967C84.1005 96.7836 83.9168 96.6001 83.7593 96.4428C83.6543 96.3641 83.5756 96.2855 83.6018 96.1282C84.0218 95.8137 84.4942 95.9709 84.9141 96.0234C85.9377 96.1806 86.9088 96.4952 87.8799 96.7835C88.7198 97.0457 89.5597 97.3602 90.4258 97.5962C90.7932 97.701 91.1869 97.7272 91.5544 97.7272C92.053 97.7272 92.4467 97.5437 92.7879 97.2292C92.9454 97.0719 93.1291 96.9146 93.3391 96.7835V96.8098Z" fill="#0C86BB"/>
<path d="M96.7242 84.0167C96.3042 84.2264 96.0155 84.5934 95.6481 84.8817C95.2806 85.1701 94.9394 85.4846 94.5982 85.7992C94.4408 85.4584 94.1258 85.2487 93.9158 84.9604C93.7584 84.7507 93.6534 84.5934 94.0471 84.5672C94.9132 84.4885 95.4644 84.0167 95.6743 83.1779C95.6743 83.0992 95.7268 83.0206 95.8318 82.9944C96.0155 83.2827 96.2517 83.5711 96.5405 83.7808C96.5929 83.8594 96.6717 83.9381 96.7242 84.0429V84.0167Z" fill="#94C3DA"/>
<path d="M71.3454 96.7306C72.1328 96.9665 72.8152 96.6782 73.4976 96.3374C74.39 96.285 75.2823 96.2064 76.1484 95.9442C77.0408 95.6559 77.9594 95.4462 78.878 95.2102C79.0355 95.184 79.193 95.1316 79.3505 95.1316C79.8491 95.1316 80.3741 95.2102 80.794 94.7646C80.8465 94.7122 80.9515 94.7122 81.0565 94.7384C81.1877 95.0268 81.1089 95.2365 80.7678 95.3937C80.4266 95.551 80.0854 95.6297 79.6917 95.7607C79.7704 95.9966 79.9804 96.1015 80.0854 96.285C80.1378 96.3636 80.1378 96.4423 80.1378 96.5209C78.2481 97.0452 76.4372 97.7791 74.5474 98.2248C73.3139 98.5131 72.0803 98.1199 71.5029 97.2287C71.3979 97.0714 71.3192 96.9403 71.3454 96.7306Z" fill="#0676AA"/>
<path d="M80.1372 96.4947C80.1372 96.4947 80.0585 96.3899 80.0322 96.3112C80.0322 96.0753 80.1897 96.0229 80.3734 95.9705C81.2658 95.7083 82.1582 95.4724 83.0768 95.3151C83.2605 95.2889 83.418 95.3151 83.5754 95.42C83.8379 95.6821 83.4967 95.9705 83.6017 96.2326C83.6542 96.3112 83.6804 96.3899 83.7329 96.4685C82.8406 96.652 81.9219 96.8355 81.0296 97.019C80.7934 97.0714 80.5834 97.1501 80.3472 97.2025C80.3997 96.9403 80.4784 96.652 80.1372 96.4947Z" fill="#A5D1E8"/>
<path d="M81.1085 94.7912C80.9511 94.7912 80.7673 94.8174 80.7149 94.9484C80.5049 95.3416 80.1637 95.263 79.8225 95.263C78.8776 95.2368 78.0115 95.6038 77.0929 95.8135C76.0431 96.0756 74.9932 96.4426 73.8909 96.4688C73.7334 96.4688 73.6022 96.4426 73.4709 96.3377C76.3318 94.8698 79.1926 93.4018 82.0534 91.9339C82.5258 91.698 82.8933 91.829 83.3132 92.0388C85.6229 93.2184 87.9325 94.3717 90.2422 95.5513C90.7671 95.8135 91.292 96.128 91.8169 96.3902C91.6857 96.6785 91.4495 96.5474 91.2395 96.5212C89.9797 96.3377 88.7724 95.9445 87.5388 95.5775C86.279 95.1844 84.993 94.8174 83.6807 94.529C83.077 94.398 82.4471 94.3717 81.8172 94.3717C81.5547 94.2407 81.3448 94.2145 81.266 94.5814C81.266 94.6601 81.1873 94.7649 81.0823 94.7912H81.1085Z" fill="#016291"/>
<path d="M81.764 94.2405C83.3388 94.1618 84.8348 94.6599 86.3046 95.0531C87.5382 95.3938 88.7455 95.787 89.9528 96.154C90.4515 96.2851 91.0026 96.3637 91.5013 96.4686C91.6063 96.4686 91.7113 96.4686 91.79 96.3899C92 96.3637 92.1575 96.521 92.3412 96.5996C92.6561 96.7307 92.9711 96.8356 93.3123 96.8094C92.7349 97.7268 91.8163 98.0938 90.7139 97.8317C89.7428 97.5958 88.798 97.2288 87.8269 96.9404C86.5671 96.5734 85.3335 96.0754 83.995 96.1016C83.8637 96.1016 83.7062 96.0492 83.575 96.2064C83.2076 95.9705 83.6013 95.7346 83.575 95.4987C83.6013 95.1055 83.3913 94.922 82.9189 94.9744C82.289 95.0531 81.8428 94.7647 81.7378 94.2667L81.764 94.2405Z" fill="#0876A9"/>
<path d="M81.7649 94.2406C82.1323 94.8697 82.6572 94.9745 83.3134 94.791C83.4708 94.7386 83.7333 94.6075 83.8383 94.791C83.9433 94.9483 83.7596 95.1842 83.6808 95.3677C83.6808 95.4202 83.6283 95.4726 83.6021 95.525C83.2609 95.3415 82.9197 95.4726 82.6047 95.525C81.8436 95.6823 81.1087 95.9182 80.3476 96.1017C80.2163 96.1279 80.0851 96.1803 80.0326 96.3114C79.8226 96.1541 79.6127 95.9444 79.429 95.7085C79.7964 95.6036 80.1376 95.4726 80.4526 95.3939C80.7938 95.3153 81.0037 95.1318 81.0562 94.791C81.1612 94.5289 81.2662 94.293 81.3712 94.0046C81.5024 94.1095 81.6074 94.1619 81.7124 94.2406H81.7649Z" fill="#8FBCD4"/>
<defs>
<linearGradient id="paint0_linear_2026_12" x1="117.092" y1="37.3735" x2="45.9517" y2="126.072" gradientUnits="userSpaceOnUse">
<stop stop-color="white"/>
<stop offset="0.13" stop-color="#FCFCFC"/>
<stop offset="1" stop-color="#F2F2F2"/>
</linearGradient>
<linearGradient id="paint1_linear_2026_12" x1="81.2942" y1="138.332" x2="81.2942" y2="25.8328" gradientUnits="userSpaceOnUse">
<stop stop-color="white"/>
<stop offset="0.13" stop-color="#FCFCFC"/>
<stop offset="1" stop-color="#F2F2F2"/>
</linearGradient>
</defs>
</svg>
