<svg width="163" height="163" viewBox="0 0 163 163" fill="none" xmlns="http://www.w3.org/2000/svg">
<path d="M102.898 155.529C102.649 154.67 101.755 154.173 100.896 154.421C94.0972 156.382 87.0286 157.369 79.8748 157.369C37.981 157.369 3.90103 123.264 3.90103 81.3397C3.90103 39.4154 37.9881 5.31771 79.8748 5.31771C87.0286 5.31771 94.0972 6.31202 100.896 8.26512C101.755 8.5137 102.649 8.01654 102.898 7.15718C103.146 6.29781 102.649 5.40293 101.79 5.15436C94.7005 3.11602 87.3267 2.0791 79.8748 2.0791C58.7185 2.0791 38.8255 10.3248 23.865 25.2962C8.91153 40.2677 0.671875 60.168 0.671875 81.3397C0.671875 102.511 8.91153 122.419 23.8721 137.39C38.8326 152.362 58.7256 160.607 79.8819 160.607C87.3338 160.607 94.7076 159.57 101.798 157.532C102.656 157.284 103.153 156.389 102.905 155.529H102.898Z" fill="#F7A715"/>
<path d="M121.931 122.02C144.378 99.5567 144.378 63.1366 121.931 40.6734C99.4842 18.2101 63.0906 18.2101 40.6437 40.6734C18.1968 63.1366 18.1968 99.5567 40.6437 122.02C63.0906 144.483 99.4842 144.483 121.931 122.02Z" fill="#C8E7FA"/>
<path d="M25.0781 81.3393C25.0781 73.747 26.5614 66.3821 29.4925 59.4432C32.3242 52.7458 36.3766 46.7303 41.5361 41.5599C46.6957 36.3966 52.7069 32.3341 59.4065 29.5074C66.3332 26.5742 73.6999 25.0898 81.2866 25.0898C88.8734 25.0898 96.233 26.5742 103.167 29.5074C109.859 32.3412 115.87 36.3966 121.037 41.5599C126.197 46.7232 130.256 52.7387 133.081 59.4432C136.012 66.375 137.495 73.747 137.495 81.3393C137.495 88.9316 136.012 96.2965 133.081 103.235C130.249 109.933 126.197 115.948 121.037 121.119C115.878 126.282 109.866 130.344 103.167 133.171C96.2401 136.104 88.8734 137.589 81.2866 137.589C73.6999 137.589 66.3403 136.104 59.4065 133.171C52.714 130.337 46.7028 126.282 41.5361 121.119C36.3766 115.955 32.3171 109.94 29.4925 103.235C26.5614 96.3036 25.0781 88.9316 25.0781 81.3393Z" fill="#C8E7FA"/>
<path d="M105.352 106.231C104.208 108.533 102.319 109.746 99.7832 110.067C99.6837 110.067 99.5594 110.067 99.46 110.092C99.286 110.191 99.0871 110.265 98.8634 110.265C98.5402 110.29 98.217 110.265 97.8939 110.265C85.1163 110.265 72.3386 110.216 59.561 110.265C55.857 110.265 52.6502 107.518 52.1779 103.731C52.0784 102.914 52.0287 102.097 52.0287 101.281C52.0287 98.4588 52.0287 95.6371 52.0287 92.8402C52.0038 86.7264 51.979 80.6127 52.0287 74.4743C52.0287 72.5189 52.153 70.5635 52.1779 68.6081C52.1779 68.4843 52.1779 68.3606 52.2276 68.2616C52.3519 67.8903 52.3022 67.4448 52.6502 67.1477C53.3462 65.2171 54.5643 63.732 56.4785 62.8409C57.3486 62.4449 58.2932 62.2716 59.2379 62.2469C61.1272 62.2221 62.9916 62.2469 64.8809 62.2469C65.2538 62.0241 65.6018 62.1479 65.9498 62.3211C66.1736 63.0142 66.0244 63.3607 65.3781 63.435C64.9058 63.4845 64.7069 63.732 64.6074 64.1528C64.4583 64.6973 64.3588 65.2418 64.2097 65.7864C64.1351 66.0834 64.0605 66.3804 63.7871 66.5784C63.1905 66.7517 62.569 66.8755 61.9475 66.8012C60.456 66.6279 59.2379 67.024 58.2932 68.2368C58.2435 68.3111 58.1689 68.3606 58.0943 68.3853C56.8762 69.0041 56.5034 70.118 56.3791 71.3555C56.3293 71.7516 56.3791 72.1724 56.3791 72.5684C56.3791 72.7912 56.4288 73.0634 56.1056 73.1377C55.7824 73.0387 55.6581 72.7416 55.5338 72.4694C55.0864 71.405 54.6389 70.3407 54.266 69.2269C54.1915 69.0289 54.1915 68.8061 53.8683 68.5586C53.8434 69.4744 53.6943 70.2912 53.6943 71.108C53.6943 77.5435 53.6446 83.979 53.6943 90.4392C53.6943 93.3847 53.6943 96.3054 53.6943 99.2509C53.7191 100.34 53.6943 101.454 53.6943 102.543C53.6943 104.597 54.4898 106.28 56.1305 107.592C57.2491 108.508 58.5915 108.756 59.9588 108.756C64.0605 108.805 68.1374 108.805 72.2392 108.756C73.3081 108.756 74.3522 108.805 75.4212 108.78C83.401 108.681 91.4056 108.607 99.3854 108.657C100.902 108.706 102.17 108.087 103.189 107.048C104.283 105.909 104.879 104.523 104.929 102.939C104.929 102.073 104.929 101.231 104.929 100.365C104.929 99.8202 104.929 99.2509 104.929 98.7063C104.929 98.4588 104.929 98.2361 105.103 98.038C105.451 98.038 105.451 98.3103 105.501 98.5083C105.6 98.8054 105.6 99.1519 105.575 99.4737C105.526 101.008 105.7 102.518 105.7 104.028C105.7 104.771 105.575 105.488 105.401 106.181L105.352 106.231Z" fill="#41DAFC"/>
<path d="M105.352 106.231C105.376 105.216 105.526 104.201 105.426 103.186C105.252 101.479 105.6 99.7459 105.078 98.0628C104.805 97.8153 104.854 97.4688 104.854 97.147C104.854 93.459 104.854 89.7462 104.854 86.0582C104.904 83.7562 104.854 81.4543 104.854 79.1772C104.854 77.6425 104.854 76.0832 104.854 74.5486C104.854 74.004 104.755 73.5337 104.407 73.1129C104.158 72.8159 103.984 72.4694 103.86 72.0981C103.512 70.9843 102.841 70.0685 102.145 69.1526C101.921 68.8309 101.573 68.6329 101.275 68.4101C101.101 68.5339 101.15 68.7566 101.051 68.8804C100.728 69.0289 100.653 68.7319 100.554 68.5586C99.8329 67.2715 98.6893 66.7765 97.2724 66.7765C96.0294 66.7765 94.7616 66.7765 93.5186 66.7765C93.2452 66.7765 92.8474 66.6775 92.9717 67.1973C93.0463 67.4943 93.1458 67.7665 93.2203 68.0636C93.4689 69.2269 92.9966 70.2665 92.052 70.7615C91.8531 70.712 91.6791 70.6625 91.4802 70.6625C90.0384 70.514 89.3174 69.8209 89.0937 68.3606C88.9446 67.4448 88.9197 66.5042 88.7954 65.5636C88.4971 64.1033 88.4225 62.6182 87.975 61.1826C87.9253 61.0093 87.9005 60.8608 87.975 60.6875C88.0496 60.539 88.1739 60.4895 88.3479 60.4895C88.7705 60.8113 88.7705 61.3063 88.87 61.7518C89.392 63.9548 89.5909 66.1824 89.7898 68.4348C89.8395 69.0289 90.1129 69.4992 90.635 69.7962C91.0824 70.0685 91.5299 70.0437 91.9774 69.7962C92.4 69.5239 92.5491 69.1031 92.4994 68.6329C92.4248 67.9646 92.2757 67.321 92.1514 66.6775C91.9525 65.4399 91.5299 64.2765 91.2316 63.0884C91.1819 62.8409 91.0079 62.6182 91.1819 62.3459C92.574 62.4697 93.9412 62.3459 95.3334 62.3954C97.0238 62.4449 98.7142 62.2221 100.405 62.5192C103.189 62.9894 104.929 64.6973 105.849 67.2715C106.073 67.9151 106.122 68.5586 106.122 69.2269C106.122 80.5385 106.122 91.8501 106.122 103.162C106.122 104.276 105.923 105.34 105.327 106.305L105.352 106.231Z" fill="#56E1FD"/>
<path d="M91.1823 62.2714C91.6049 63.6822 92.0524 65.1178 92.3259 66.5782C91.9032 66.5534 91.8038 66.2069 91.7292 65.9346C91.1078 63.9792 89.9642 62.2714 89.1439 60.415C88.9947 60.0932 88.771 59.8457 88.5721 59.5734C88.423 59.3754 88.2241 59.3259 88.0004 59.4001C87.7518 59.3011 87.7269 59.0289 87.6275 58.8309C86.8568 56.9002 85.9868 55.0438 84.5698 53.4845C83.3517 52.1479 81.8353 51.3063 80.0206 51.1578C77.5346 50.935 75.3222 51.5538 73.5075 53.3359C73.3583 53.4597 73.234 53.6082 73.0103 53.6082C72.7368 53.2864 73.06 53.0884 73.234 52.9152C73.6566 52.4944 74.0046 52.0488 74.2532 51.5291C74.3527 51.331 74.4521 51.0835 74.2781 50.935C74.0792 50.737 73.8804 50.935 73.7063 51.034C73.0849 51.43 72.5131 51.8261 72.0905 52.4696C71.5933 53.2369 70.8973 53.8805 70.4001 54.6478C70.3006 54.7963 70.2012 54.9201 69.9775 54.8706C69.8532 54.6725 69.9277 54.4993 70.0272 54.326C71.2701 52.4449 72.5628 50.638 74.4521 49.3261C74.8747 49.0291 75.3719 48.8559 75.8442 48.6331C78.6782 47.5193 81.3132 47.8658 83.7246 49.7469C85.0173 50.7617 86.0862 51.9993 87.006 53.3854C88.8207 56.1577 90.188 59.1526 91.232 62.2961L91.1823 62.2714Z" fill="#1ACEFA"/>
<path d="M99.4853 108.904C94.1157 108.904 88.7461 108.854 83.3517 108.929C80.5923 108.978 77.8578 109.028 75.0984 109.028C70.0272 109.028 64.9808 109.028 59.9095 109.028C59.0394 109.028 58.1445 108.953 57.3241 108.582C55.2608 107.691 54.0179 106.156 53.5704 103.978C53.2721 102.444 53.4958 100.884 53.4461 99.3497C53.5704 99.1269 53.4958 98.8794 53.4958 98.6567C53.4958 95.9587 53.4958 93.2608 53.4958 90.5628C53.4958 90.4143 53.4958 90.2658 53.4958 90.1173C53.993 89.8945 54.0179 90.3648 54.0924 90.5876C54.4405 91.4786 54.6891 92.4192 54.9625 93.3598C55.2608 94.3498 55.4846 95.3647 55.7332 96.33C55.9569 96.3795 55.9817 95.8845 56.2552 96.2062C56.4044 96.5528 56.3546 96.924 56.3546 97.2706C56.3546 98.4834 56.3298 99.6962 56.3546 100.909C56.3795 101.751 56.4541 102.617 57.1998 103.236C58.5174 104.746 60.1829 105.389 62.2214 105.34C67.8147 105.191 73.408 105.463 78.9765 105.463C81.8104 105.463 84.6444 105.463 87.4783 105.612C90.362 105.736 93.2456 105.637 96.1293 105.711C97.6954 105.736 99.1621 105.538 100.306 104.35C100.728 104.35 100.579 104.622 100.529 104.82C100.43 105.191 100.156 105.488 99.883 105.76C99.2864 106.379 99.1621 107.072 99.535 107.864C99.709 108.211 99.883 108.582 99.4356 108.879L99.4853 108.904Z" fill="#00ABFD"/>
<path d="M92.8474 67.2221C92.7977 67.0488 92.4993 66.9498 92.6485 66.727C92.7479 66.5538 92.9468 66.5785 93.1208 66.5785C94.7118 66.5785 96.3277 66.529 97.9186 66.5785C99.087 66.628 100.057 67.1973 100.653 68.2616C100.777 68.4597 100.902 68.6577 101.026 68.8557C101.498 69.326 101.424 69.92 101.474 70.4893C101.474 71.3804 101.449 72.2714 101.474 73.1625C101.523 76.7515 101.399 80.3653 101.474 83.9543C101.523 87.2216 101.474 90.4888 101.474 93.7313C101.474 94.1273 101.474 94.4986 101.474 94.8946C101.498 96.85 101.474 98.8054 101.474 100.761C101.474 101.256 101.374 101.751 101.2 102.221C100.454 104.152 99.1119 105.068 97.0237 105.092C85.141 105.092 73.2832 105.092 61.4005 105.092C58.9892 105.092 57.3485 103.409 57.3734 101.008C57.3734 100.414 57.3734 99.7955 57.3734 99.2015C57.3734 97.7906 57.3734 96.355 57.3734 94.9441C57.3734 90.9343 57.3734 86.9493 57.3734 82.9395C57.3485 78.6079 57.3734 74.2516 57.3734 69.92C57.3734 69.3507 57.4231 68.7567 57.97 68.3607C58.9395 66.9498 60.2819 66.4548 61.9723 66.6528C62.5441 66.727 63.1158 66.6033 63.7124 66.5538C64.2096 66.2567 64.7068 66.3063 65.2288 66.4548C65.378 66.9498 65.1791 67.2468 64.5825 67.3458C64.1102 67.4201 63.6379 67.3706 63.1655 67.3706C62.5441 67.3706 61.8977 67.3706 61.2762 67.3706C59.6853 67.3706 58.7157 68.2121 58.4174 69.7963C58.4174 69.8705 58.4174 69.9448 58.3677 70.019C58.2683 70.2913 58.318 70.5636 58.318 70.8606C58.318 74.7961 58.318 78.7317 58.318 82.6672C58.318 88.7314 58.318 94.8204 58.318 100.885C58.318 101.107 58.318 101.305 58.3429 101.528C58.666 102.889 59.4615 103.756 60.8288 104.127C61.1519 104.177 61.4751 104.152 61.7983 104.152C68.9577 104.152 76.142 104.152 83.3015 104.152C87.5275 104.152 91.7536 104.152 95.9796 104.152C96.7751 104.152 97.5458 104.053 98.2915 103.88C99.5842 103.583 100.131 102.642 100.429 101.454C100.529 99.548 100.429 97.6668 100.429 95.7857C100.429 94.6471 100.429 93.5085 100.429 92.3699C100.454 89.4492 100.38 86.5285 100.429 83.6078C100.429 81.4296 100.429 79.2515 100.429 77.0981C100.429 74.7714 100.479 72.42 100.429 70.0933C100.405 68.5092 99.1616 67.3953 97.4463 67.4201C96.2034 67.4448 94.9355 67.3706 93.6926 67.4201C93.3943 67.4201 93.0711 67.4448 92.8225 67.2221H92.8474Z" fill="#B3FAFD"/>
<path d="M101.076 102.196C101.25 101.553 101.3 100.884 101.3 100.241C101.3 98.4835 101.3 96.7261 101.3 94.9688C101.424 93.8054 101.3 92.6668 101.35 91.5035C101.35 91.157 101.25 90.6372 101.722 90.6124C102.17 90.5629 102.22 91.0827 102.319 91.4292C102.791 93.3846 103.413 95.3153 104.358 97.0974C104.78 97.8895 104.83 98.83 104.929 99.7211C104.954 99.9934 104.979 100.266 105.054 100.538C105.004 102.023 105.228 103.533 104.681 104.993C103.811 107.295 101.698 108.954 99.4603 108.929C99.8829 108.335 99.336 107.889 99.1371 107.468C98.8637 106.85 98.9879 106.454 99.4354 106.058C99.9077 105.612 100.455 105.191 100.504 104.424C100.38 104.152 100.579 103.929 100.678 103.706C100.877 103.236 101.076 102.766 101.051 102.221L101.076 102.196Z" fill="#0DBEFC"/>
<path d="M105.078 100.538C104.705 99.9689 104.73 99.2758 104.63 98.6323C104.481 97.766 104.183 96.9987 103.785 96.2314C103.014 94.7958 102.642 93.2116 102.244 91.6275C102.144 91.281 102.12 90.6869 101.796 90.7365C101.374 90.786 101.473 91.3552 101.473 91.7265C101.473 92.6176 101.473 93.4839 101.473 94.375C101.473 94.573 101.548 94.8205 101.374 94.9938C101.374 91.3305 101.374 87.6672 101.374 84.0287C101.498 82.6673 101.374 81.2812 101.423 79.9199C101.423 79.5734 101.423 79.2268 101.423 78.8803C101.423 78.608 101.423 78.3358 101.747 78.2615C102.045 78.212 102.269 78.41 102.318 78.6823C102.492 79.4496 102.915 80.1179 103.089 80.8605C103.164 81.1327 103.238 81.405 103.363 81.6525C104.059 83.0386 104.879 84.3752 105.128 85.9593C105.128 89.9939 105.128 94.0532 105.128 98.0877C105.128 98.9046 105.128 99.7214 105.128 100.538H105.078Z" fill="#28D2FD"/>
<path d="M53.5696 90.0674C53.5696 90.1912 53.5696 90.3149 53.5696 90.4634C53.5199 90.5129 53.495 90.5129 53.4453 90.4634C53.4453 83.9042 53.4453 77.3449 53.4453 70.7857C53.4453 70.1174 53.6193 69.4739 53.5696 68.8056C53.5696 68.558 53.6193 68.36 53.8679 68.3105C54.1911 68.2363 54.1911 68.5333 54.2408 68.7065C54.6137 70.0431 55.2103 71.3302 55.7324 72.6173C55.8318 72.8401 55.9312 73.0381 56.155 73.1619C56.4036 73.4094 56.3538 73.7064 56.3538 74.0034C56.3538 76.5034 56.3538 79.0033 56.3538 81.528C56.329 82.2706 56.3538 83.0379 56.3538 83.7804C56.3538 84.0527 56.3538 84.3497 56.2295 84.5972C55.6826 84.8943 55.5335 84.4487 55.4092 84.1022C54.9369 82.7161 54.39 81.3547 54.0419 79.9439C53.9922 79.7706 53.9674 79.6221 53.8431 79.3993C53.7188 79.7706 53.7436 80.0924 53.7436 80.3894C53.7436 83.2854 53.7436 86.1814 53.7436 89.0773C53.7436 89.4238 53.8182 89.7704 53.5447 90.0674H53.5696Z" fill="#27CFFD"/>
<path d="M56.1802 81.5532C56.1802 78.7562 56.1802 75.9593 56.1802 73.1623C56.2299 72.2713 56.0807 71.3802 56.3293 70.4891C56.5282 69.7466 56.9011 69.103 57.4729 68.608C57.622 68.4842 57.7463 68.2862 58.0198 68.3852C57.6469 69.1278 57.622 69.8951 57.622 70.7119C57.622 78.5335 57.622 86.3551 57.6469 94.1519C57.6469 94.4242 57.6469 94.7212 57.6469 94.9935C57.1994 94.8202 57.3237 94.4242 57.3237 94.1271C57.3237 91.7262 57.274 89.3253 57.3237 86.9243C57.3734 85.0432 57.3486 83.1868 56.205 81.5779L56.1802 81.5532Z" fill="#24BBEC"/>
<path d="M65.2537 66.5782C64.7316 66.5782 64.2344 66.5782 63.7124 66.5782C64.1599 65.7366 64.1847 64.7713 64.483 63.8803C64.5825 63.5585 64.6819 63.311 65.0797 63.3605C65.8254 63.4595 65.9994 63.0882 65.9249 62.4446C66.3972 62.3704 66.6209 62.0239 66.8198 61.6526C67.0435 61.8506 66.969 62.0981 66.8944 62.2961C66.4221 63.4347 66.248 64.6476 65.9497 65.8109C65.8751 66.1079 65.8503 66.4049 65.5768 66.603C65.4774 66.6525 65.3531 66.6277 65.2537 66.603V66.5782Z" fill="#43CCED"/>
<path d="M53.4453 90.4639C53.4453 90.4639 53.5199 90.4639 53.5696 90.4639C53.5696 93.2361 53.5696 96.0083 53.5696 98.7557C53.5696 98.9538 53.6442 99.2013 53.4453 99.3745C53.4453 96.4043 53.4453 93.4341 53.4453 90.4639Z" fill="#10C2FD"/>
<path d="M92.8471 67.2217C93.9657 67.2959 95.0844 67.1722 96.2031 67.2959C96.6505 67.3454 97.1726 67.2217 97.6698 67.2217C99.2359 67.2217 100.703 68.6078 100.653 70.2167C100.603 72.4938 100.653 74.771 100.653 77.0234C99.7579 76.6026 98.7636 76.5284 97.8189 76.3304C96.8245 76.1323 95.8799 75.6126 95.159 74.8205C94.2143 73.7562 93.0957 72.9146 91.629 72.6671C91.5295 72.6671 91.4052 72.6176 91.3058 72.5928C91.0075 72.5186 90.6843 72.4443 90.6098 72.0978C90.5103 71.7513 90.9081 71.6523 91.0572 71.4542C91.4301 71.2315 91.7284 70.9345 92.1013 70.7117C92.6979 70.0186 93.3443 69.3751 93.1205 68.3355C93.046 67.9642 92.9465 67.593 92.8719 67.2217H92.8471Z" fill="#95EBFD"/>
<path d="M105.078 85.9342C105.078 85.9342 104.929 85.8105 104.929 85.7362C104.854 84.6224 103.91 83.8303 103.736 82.7413C103.686 82.4195 103.338 82.172 103.214 81.8502C102.841 80.9096 102.518 79.9195 102.194 78.9542C102.095 78.682 102.095 78.3354 101.747 78.3354C101.324 78.3354 101.424 78.7315 101.424 78.979C101.424 80.4146 101.424 81.8502 101.424 83.3105C101.424 83.5333 101.498 83.7808 101.299 83.9788C101.299 80.3651 101.299 76.7513 101.299 73.1375C101.399 72.2465 101.399 71.3307 101.299 70.4396C101.299 69.9198 101.15 69.4 101.026 68.8802C101.026 68.7812 101.026 68.6575 101.026 68.5584C101.076 68.3357 100.877 68.0139 101.15 67.9396C101.374 67.8654 101.424 68.2614 101.573 68.3357C102.12 68.6079 102.344 69.1525 102.716 69.5733C103.313 70.2663 103.686 71.0336 104.009 71.8504C104.183 72.3207 104.382 72.7663 104.73 73.1375C104.979 73.4098 105.078 73.7316 105.078 74.1276C105.078 78.0632 105.078 81.9739 105.078 85.9095V85.9342Z" fill="#40DBFD"/>
<path d="M88.0738 60.6379C88.5213 62.2468 88.7698 63.8804 88.9687 65.5388C89.0433 65.6625 89.093 65.811 88.9687 65.8853C88.8196 65.9843 88.745 65.8358 88.6953 65.7368C88.5958 65.5635 88.571 65.3655 88.5461 65.1922C88.397 64.2022 88.1484 63.2616 87.8252 62.321C87.7009 62.0983 87.6512 61.826 87.5517 61.5785C86.9054 59.4993 86.1348 57.4944 84.867 55.6875C83.8229 54.2272 82.5302 53.0638 80.7901 52.4698C80.5415 52.3955 80.2929 52.2965 80.0443 52.3213C79.4725 52.346 78.9256 52.0738 78.3539 52.247C76.4397 52.3955 74.9979 53.3856 73.7798 54.7965C72.1142 56.7271 71.1198 59.0043 70.3741 61.4052C70.2746 61.7022 70.2 61.9745 70.0758 62.2468C69.7526 62.7913 69.852 63.5091 69.4543 64.0289C69.1062 63.9546 69.156 63.6824 69.1311 63.4349C69.1311 63.2121 69.156 62.9646 69.156 62.7418C69.5537 60.7122 70.1255 58.732 71.0453 56.8756C71.7165 55.4895 72.5119 54.2024 73.6555 53.1381C76.5889 50.4154 81.9833 50.1184 84.9664 53.9054C86.3834 55.737 87.3529 57.7914 88.0489 59.9696C88.1235 60.1924 88.2478 60.4151 88.0986 60.6626L88.0738 60.6379Z" fill="#049DC7"/>
<path d="M88.0249 59.3505C88.0746 59.0287 88.2237 58.9049 88.4723 59.2019C88.7458 59.5485 89.1187 59.8702 89.2678 60.291C89.6158 61.4049 90.4113 62.2959 90.8339 63.3603C91.1571 64.1276 91.4803 64.8949 91.7786 65.6622C91.9029 66.0087 92.0769 66.3057 92.3255 66.578C92.4249 67.172 92.5244 67.7413 92.6487 68.3354C92.8475 69.3007 92.5244 69.8452 91.6294 70.0928C90.9085 70.2908 89.9639 69.7957 89.7401 69.0284C89.5413 68.3849 89.5413 67.6918 89.4667 66.9988C89.2678 64.7959 89.0441 62.593 88.2983 60.489C88.0249 60.1425 87.8508 59.7712 88.0249 59.3257V59.3505Z" fill="#0CC1F9"/>
<path d="M88.0244 59.3504C88.1238 59.7464 88.1984 60.1177 88.2979 60.5137C88.2233 60.5632 88.1487 60.588 88.0741 60.6375C87.3532 58.1871 86.3837 55.8604 84.7181 53.8802C83.0029 51.8258 80.7904 51.009 78.1056 51.306C75.2965 51.6031 73.3824 53.1377 71.9903 55.4644C70.8467 57.3702 70.0761 59.3999 69.6038 61.5533C69.5043 61.9493 69.2806 62.3206 69.3303 62.7414C69.0072 62.9147 68.9823 62.8899 68.9077 62.3701C68.9077 61.7018 69.2806 61.1325 69.3552 60.489C69.9021 58.6078 70.7224 56.8505 71.6422 55.1178C71.9654 54.4743 72.214 53.806 72.9846 53.5832C73.8298 52.8654 74.6253 52.0734 75.6943 51.6526C78.1802 50.6872 80.5915 50.613 82.9531 51.9743C84.3453 52.7664 85.2899 53.9792 86.1103 55.2911C86.9057 56.6029 87.4527 58.0138 88.0493 59.3999L88.0244 59.3504Z" fill="#6CE8F6"/>
<path d="M87.8996 62.1725C88.3222 63.113 88.4963 64.1279 88.6951 65.1179C88.72 65.3159 88.7697 65.4892 88.8194 65.6872C88.8194 65.7367 88.8194 65.91 88.9437 65.7367C88.9686 65.6872 88.9437 65.613 88.9437 65.5387C89.1923 66.2318 89.0432 66.9743 89.1923 67.6674C89.3415 68.3357 89.2918 69.0287 89.7889 69.6228C90.2364 70.1426 90.6839 70.4396 91.3799 70.4396C91.6285 70.4396 91.9765 70.2663 92.076 70.6871C91.9268 71.1326 91.5539 71.3306 91.1562 71.4544C90.7087 71.7514 90.2861 71.6029 89.8635 71.3801C89.0432 70.9099 88.6951 70.1426 88.6206 69.2515C88.5708 68.5832 88.6703 67.9149 88.546 67.2466C88.4963 66.9991 88.4465 66.7515 88.372 66.5288C88.1234 65.3654 87.9494 64.1774 87.6759 63.0388C87.6013 62.717 87.6262 62.3952 87.8996 62.1477V62.1725Z" fill="#3BB3CD"/>
<path d="M69.4546 60.3657C69.5291 61.0588 69.032 61.6281 69.0568 62.2964C68.9822 64.1032 68.5348 65.8606 68.6093 67.6675C68.6093 68.1625 68.5348 68.6576 68.3608 69.1279C67.9133 70.3407 66.198 70.6377 65.3777 69.6477C65.1539 69.3754 65.0793 69.0784 65.0793 68.7566C65.0793 68.212 65.1291 67.6923 65.2534 67.1477C65.3031 66.9249 65.4025 66.7269 65.5517 66.5784C65.8251 65.5141 66.1234 64.4745 66.3223 63.4102C66.4217 62.7914 66.9438 62.3211 66.8443 61.6528C67.5901 59.2519 68.5845 56.95 69.9517 54.8213C70.5732 54.3015 70.8964 53.5837 71.4184 52.9897C72.1145 52.1976 72.6863 51.2818 73.7055 50.8115C73.9541 50.7125 74.2275 50.4155 74.4513 50.6877C74.6501 50.9105 74.6004 51.2818 74.4513 51.5293C74.1778 51.9748 73.9789 52.4204 73.5812 52.7916C73.3574 52.9897 73.0343 53.1629 73.0094 53.5342C72.5371 53.9797 72.0648 54.45 71.841 55.0936C70.7472 56.7272 70.0512 58.5093 69.5043 60.3905L69.4546 60.3657Z" fill="#09C1FA"/>
<path d="M101.076 102.196C101.424 103.063 100.827 103.682 100.529 104.399C99.5346 105.662 98.1673 105.934 96.6758 105.934C94.1899 105.934 91.6791 106.008 89.1932 105.909C86.6575 105.785 84.1219 105.909 81.6111 105.785C79.2247 105.637 76.863 105.785 74.4766 105.686C70.0516 105.513 65.6018 105.612 61.1769 105.538C59.4616 105.538 58.1441 104.672 57.1 103.36C56.578 102.741 56.5531 102.073 56.9757 101.404C57.2492 100.959 57.3237 100.489 57.3237 99.9935C57.3237 99.7213 57.1994 99.3747 57.5972 99.251C57.6718 100.167 57.4729 101.107 57.7215 101.998C58.2435 104.003 59.4865 104.919 61.5746 104.919C70.9963 104.919 80.4179 104.919 89.8147 104.919C92.226 104.919 94.6125 104.919 97.0238 104.919C99.0623 104.919 100.305 104.078 101.076 102.221V102.196Z" fill="#0295DB"/>
<path d="M53.5703 90.0681C53.5703 86.7019 53.5703 83.3356 53.5703 79.9694C53.5703 79.5981 53.6448 79.2516 53.8189 78.905C54.0923 79.1278 54.142 79.4248 54.1917 79.6723C54.5398 81.2317 55.1861 82.6673 55.6336 84.1772C55.7082 84.4494 55.8573 84.6227 56.1556 84.6722C56.4042 84.9197 56.3794 85.2168 56.3794 85.5138C56.3794 88.781 56.3794 92.0483 56.3794 95.3155C56.3794 95.6125 56.4042 95.9343 56.1556 96.1571C56.0313 96.4046 55.907 96.6274 55.7579 96.9491C55.385 96.2066 55.3104 95.464 55.1364 94.7462C54.7884 93.3354 54.3409 91.9493 53.9183 90.5632C53.8686 90.3651 53.7691 90.1424 53.5454 90.0681H53.5703Z" fill="#10C2FD"/>
<path d="M56.1802 96.1321C56.1802 92.2955 56.1802 88.4837 56.1802 84.6472C56.1802 83.6076 56.1802 82.5928 56.1802 81.5532C56.9508 82.4195 57.4977 83.3849 57.4728 84.5729C57.4728 87.7907 57.4728 91.0084 57.4728 94.2262C57.4728 94.4737 57.3734 94.746 57.5971 94.9687C57.5971 96.3796 57.5971 97.8152 57.5971 99.226C57.4728 99.3498 57.4728 99.4983 57.4977 99.6468C57.5474 100.414 57.4728 101.107 57.0005 101.775C56.6028 102.32 57.0005 102.84 57.1 103.36C56.3045 102.815 56.2299 101.949 56.205 101.132C56.1304 99.4736 56.205 97.7904 56.205 96.1321H56.1802Z" fill="#05ADEE"/>
<path d="M88.6961 67.2217C88.9447 67.8158 88.8204 68.4346 88.8204 69.0534C88.8453 70.6375 89.591 71.4296 91.1572 71.4791C91.2069 71.8256 90.5854 71.7513 90.7097 72.0731C90.8589 72.4444 91.2815 72.4196 91.6046 72.4691C93.121 72.7167 94.2397 73.6325 95.2589 74.6968C96.129 75.5879 97.1731 76.1819 98.4906 76.2562C99.2861 76.3057 100.057 76.4047 100.629 77.0235C100.629 79.2264 100.629 81.4046 100.629 83.6075C100.554 83.6075 100.479 83.6075 100.454 83.558C100.156 82.7412 99.3607 82.4936 98.7144 82.1224C97.72 81.5531 97.0737 80.761 96.6759 79.6967C96.3776 78.9046 96.0793 78.1373 95.4329 77.5433C94.9606 77.0977 94.4634 76.7512 93.8668 76.5532C93.7674 76.5284 93.6679 76.5037 93.5685 76.4542C93.3199 76.3552 93.121 76.1819 92.9719 75.9839C92.7233 75.6374 92.5741 76.4047 92.3504 75.9839C92.2261 75.6621 92.2758 75.3156 92.2758 74.9691C92.2758 74.7463 92.2758 74.4988 92.1018 74.3008C91.4803 74.0533 90.8091 74.2265 90.1628 74.2018C89.7651 74.2018 89.3424 74.2018 88.9198 74.2018C86.8068 74.2018 84.6938 74.276 82.5808 74.1275C81.3875 73.9295 80.6417 74.573 80.0203 75.4641C79.4485 75.5631 79.0756 75.2661 78.7524 74.8701C78.5536 74.6473 78.3547 74.3998 78.0564 74.3255C77.062 74.1028 76.3411 73.4592 75.5208 72.9147C74.3524 72.1474 73.2089 71.3306 71.8913 70.8108C71.5184 70.6623 71.1953 70.39 70.8472 70.1672C70.3252 69.7959 69.828 69.3256 69.1071 69.6722C68.9331 69.7464 68.8336 69.5979 68.7839 69.4494C68.7093 69.1771 68.7342 68.8801 68.7342 68.6078C68.7342 68.3851 68.7342 68.1623 68.7839 67.9395C68.9082 67.6673 68.7839 67.296 69.1319 67.0732C69.4303 66.9495 69.7783 66.9742 70.1015 66.9742C75.9434 66.9742 81.7853 66.9742 87.652 66.9742C88.0249 66.9742 88.3978 66.9247 88.6961 67.197V67.2217Z" fill="#83E7FE"/>
<path d="M68.9082 69.5237L69.0574 69.6227C69.5546 69.0286 70.1015 69.4741 70.4246 69.7464C71.3196 70.489 72.4134 70.8355 73.3829 71.4295C74.5761 72.1721 75.7942 72.8899 76.9129 73.7562C77.1118 73.9047 77.3852 73.979 77.6338 74.0532C78.1807 74.2018 78.6779 74.3998 78.9762 74.9443C79.1751 75.3156 79.6225 75.3403 79.9706 75.4888C79.7717 76.6274 78.653 77.5928 77.5592 77.6175C76.366 77.6175 75.1479 77.6175 73.9546 77.7165C73.3332 77.5928 72.7117 77.469 72.0902 77.4937C70.1263 77.6175 68.3116 77.2215 66.5963 76.2809C65.2291 75.5384 63.7375 75.0928 62.42 74.2513C61.5748 73.7067 60.7544 73.1869 60.0335 72.4939C59.6606 72.1473 59.5115 71.6523 59.3126 71.2068C59.064 70.6622 58.9148 70.0434 58.2437 69.8207C58.3182 68.3851 59.5115 67.2712 60.9782 67.2465C62.0968 67.2465 63.2403 67.2465 64.359 67.2465C64.8313 67.2465 65.1545 67.098 65.2539 66.6277C65.3534 66.6277 65.428 66.6277 65.5274 66.6277C65.4777 66.8009 65.4528 66.9742 65.4031 67.1475C64.9059 67.9395 64.881 68.7811 65.0053 69.6722C65.3037 70.489 65.8008 71.1078 66.7703 71.1325C67.5907 71.1573 68.1625 70.7612 68.5353 70.0682C68.6348 69.8949 68.6348 69.6227 68.9082 69.5979V69.5237Z" fill="#67E2FE"/>
<path d="M60.5798 104.275C59.312 103.904 58.5662 103.062 58.2431 101.825C58.1436 101.602 58.1933 101.354 58.1933 101.132C58.1933 97.9881 58.1933 94.8694 58.1933 91.7259C58.2679 91.2804 58.2182 90.8348 58.4419 90.414C58.6905 89.919 59.0385 89.8942 59.3866 90.315C59.4363 90.3893 59.486 90.4635 59.5109 90.5378C60.1821 92.3199 61.2759 93.9288 61.8228 95.7852C61.9222 96.1317 62.1459 96.4287 62.2951 96.7753C62.5685 97.9633 62.5188 99.1762 62.4691 100.364C62.3945 101.973 63.5381 102.889 65.1788 102.765C68.5596 102.493 71.9405 102.146 75.3213 101.874C77.6083 101.676 79.8954 101.503 82.1824 101.354C82.4062 101.354 82.6548 101.28 82.8785 101.453C83.1768 102.245 83.9474 102.666 84.4695 103.31C84.9667 103.904 84.8921 104.127 84.1214 104.25C83.6491 104.325 83.1768 104.374 82.7045 104.374C75.5202 104.374 68.3359 104.374 61.1516 104.374C60.9527 104.374 60.7538 104.424 60.5798 104.325V104.275Z" fill="#06DCFA"/>
<path d="M58.2679 69.7963C58.6159 69.6478 58.8645 69.722 59.0137 70.1181C59.1877 70.5636 59.4363 70.9596 59.5855 71.4052C59.8838 72.2467 60.555 72.7913 61.2262 73.2368C62.5437 74.1031 63.9109 74.9199 65.4274 75.4645C66.2477 75.7615 67.0183 76.207 67.8138 76.603C68.7585 77.0981 69.7777 77.2218 70.8218 77.2713C71.841 77.3208 72.8851 77.1971 73.8795 77.5436C73.4817 77.8406 72.9597 77.8159 72.5122 77.8406C70.9212 77.8654 69.38 78.1377 67.8138 78.2862C66.9686 78.3604 66.198 78.7565 65.3528 78.7812C63.4386 78.9297 62.5686 80.5881 62.3697 82.0732C62.1957 83.4841 62.2454 84.8949 62.2205 86.3058C62.2205 86.6523 62.2702 86.9988 62.1211 87.3206C61.6488 87.4939 61.6736 87.0731 61.599 86.8503C61.3505 85.9097 61.1267 84.9692 60.8035 84.0534C60.3312 82.7415 59.7346 81.4792 59.2126 80.1921C59.0634 79.8455 58.8397 79.598 58.4419 79.9941C58.2928 80.1673 58.1685 79.994 58.1933 79.8208C58.1933 76.7763 58.1933 73.7071 58.1933 70.6626C58.1933 70.4398 58.1436 70.1923 58.2431 69.9695C58.2431 69.92 58.2431 69.8953 58.2431 69.8458L58.2679 69.7963Z" fill="#50E0FE"/>
<path d="M60.5796 104.275C67.8633 104.275 75.1471 104.275 82.4557 104.275C83.2263 104.275 83.9721 104.127 84.7676 103.855C84.2207 103.335 83.8478 102.766 83.2511 102.394C82.928 102.196 82.8037 101.825 82.8534 101.429C83.3257 101.132 83.8726 101.181 84.3947 101.107C84.6184 101.082 84.867 101.107 85.0907 101.008C87.2535 100.81 89.4162 100.662 91.579 100.464C92.1756 100.414 92.6976 100.191 93.2694 100.068C93.4185 100.068 93.5428 100.142 93.5677 100.266C93.6174 100.983 94.1892 101.256 94.7361 101.379C95.979 101.676 96.9734 102.543 98.2661 102.716C98.813 102.79 98.9621 103.459 98.6141 103.978C97.9926 104.325 97.2717 104.325 96.6005 104.325C84.8918 104.325 73.1583 104.35 61.4497 104.35C61.1762 104.35 60.8779 104.424 60.6293 104.226L60.5796 104.275Z" fill="#1CDDFD"/>
<path d="M98.5902 104.003C98.6896 103.087 98.6399 102.963 97.745 102.815C96.85 102.666 96.2037 101.998 95.3336 101.8C94.9856 101.726 94.6376 101.552 94.3144 101.429C93.7178 101.206 93.2703 100.859 93.3946 100.142C93.7178 99.5228 94.1901 99.003 94.4636 98.3595C94.5133 98.2852 94.5879 98.2357 94.6624 98.1862C95.5325 97.7654 95.7811 96.9981 95.8805 96.1318C96.0048 95.7605 96.3031 95.5378 96.6015 95.315C96.85 95.1417 96.9743 94.8447 97.1732 94.622C97.4964 94.2507 97.8693 94.2259 98.0433 94.6715C98.4659 95.6863 99.3857 96.3298 99.9823 97.2209C100.305 97.6912 100.579 98.1862 100.604 98.7555C100.629 99.7456 100.678 100.711 100.579 101.701C100.33 102.815 99.7586 103.632 98.615 104.003H98.5902Z" fill="#35DDFD"/>
<path d="M100.528 101.701C100.528 100.934 100.528 100.166 100.528 99.399C100.528 98.706 100.354 98.0872 99.9319 97.5426C99.4844 96.9981 99.211 96.3298 98.5895 95.9338C98.2663 95.7358 98.1669 95.315 98.0177 94.9437C97.7691 94.3249 97.5454 94.3249 97.1476 94.8694C96.9985 95.0922 96.8991 95.3892 96.6007 95.4635C96.5262 95.3645 96.5262 95.2655 96.551 95.1665C97.0233 93.8051 96.7499 92.419 96.5759 91.0577C96.4764 89.7706 96.2776 88.4835 96.2527 87.1716C96.2527 86.6518 96.3024 86.1568 96.1781 85.637C96.1036 85.34 96.1284 85.043 96.1533 84.7459C96.1533 84.5232 96.1533 84.2756 96.4019 84.2014C96.6505 84.1271 96.7748 84.3499 96.8742 84.5479C97.0979 85.043 97.4211 85.4885 97.5702 86.0083C97.8934 87.2706 98.8381 88.0379 99.7081 88.8547C100.255 89.3745 100.528 89.9191 100.553 90.6369C100.553 91.2062 100.479 91.8002 100.603 92.3695C100.603 95.2407 100.603 98.1367 100.603 101.008C100.603 101.231 100.678 101.478 100.479 101.676L100.528 101.701Z" fill="#55E1FD"/>
<path d="M100.654 92.3943C100.405 91.9735 100.554 91.5032 100.529 91.0824C100.529 90.1914 100.206 89.5726 99.51 88.929C98.7145 88.1865 97.7699 87.4687 97.4964 86.2558C97.3722 85.6618 96.9993 85.1172 96.7258 84.5479C96.6761 84.4489 96.6264 84.3252 96.5021 84.3252C96.3281 84.3252 96.3529 84.4984 96.3281 84.6222C96.2535 85.3648 96.5269 86.1073 96.4524 86.8499C96.4524 86.9241 96.4524 87.0231 96.4524 87.0974C96.1541 87.0479 96.1789 86.8004 96.1541 86.6024C96.1292 86.3796 96.1541 86.1321 96.0546 85.9093C95.8806 83.8549 95.632 81.7757 95.4829 79.7213C95.3834 78.3352 94.8117 77.1719 92.9472 77.0729C92.3009 77.0481 92.1766 76.7759 92.45 76.1323C92.6489 76.0086 92.5246 75.761 92.6738 75.4888C93.2704 76.5779 94.6376 76.4293 95.4083 77.2957C95.9552 77.9145 96.5021 78.5332 96.701 79.3253C97.1236 80.9589 98.3168 81.8995 99.7338 82.5183C100.306 82.7658 100.306 83.2856 100.629 83.6074C100.629 86.5281 100.629 89.4488 100.629 92.3943H100.654Z" fill="#70E4FD"/>
<path d="M58.2681 91.4785C58.2681 94.919 58.2681 98.3595 58.2681 101.825C58.0941 101.651 58.1438 101.429 58.1438 101.206C58.1438 95.0427 58.1438 88.8795 58.1438 82.7163C58.2432 82.6916 58.3178 82.7163 58.3427 82.7906C58.4918 83.0876 58.467 83.4094 58.467 83.7311C58.467 85.7113 58.467 87.7162 58.467 89.6963C58.467 90.2904 58.3178 90.8844 58.2681 91.4785Z" fill="#50E0FE"/>
<path d="M58.2676 82.7164C58.2676 82.7164 58.193 82.7164 58.1433 82.7164C58.1433 78.5828 58.1433 74.474 58.1433 70.3405C58.1433 70.1919 58.1433 70.0434 58.2676 69.9197C58.2676 73.2859 58.2676 76.6274 58.2676 79.9937C58.5908 80.8848 58.5908 81.8006 58.2676 82.6916V82.7164Z" fill="#67E2FE"/>
<path d="M101.325 70.4397C101.524 71.3308 101.524 72.2466 101.325 73.1376C101.325 72.2466 101.325 71.3308 101.325 70.4397Z" fill="#56E1FD"/>
<path d="M69.9522 62.1726C70.1511 62.4201 70.4245 62.3211 70.6731 62.3211C73.2087 62.3211 75.7692 62.3211 78.3049 62.3211C80.5173 62.4201 82.7049 62.3211 84.9174 62.3706C85.6135 62.3706 86.2846 62.2716 86.9807 62.2469C87.5027 62.2469 87.3536 61.6776 87.6768 61.5291C87.7513 61.7271 87.8259 61.9498 87.9005 62.1478C87.7265 63.2617 88.2734 64.3013 88.3728 65.3903C88.3977 65.7864 88.4971 66.1824 88.5468 66.5784C88.2982 66.8012 87.9751 66.7517 87.6768 66.7517C81.8846 66.925 76.0924 66.8755 70.3002 66.8755C69.9273 66.8755 69.5544 66.925 69.2064 66.7764C68.9827 66.6527 69.0075 66.5289 69.2313 66.4299C69.4799 66.3309 69.7284 66.4299 69.977 66.4794C68.933 66.1824 68.6844 65.0686 69.4301 63.9547C69.5296 63.3359 69.629 62.7171 69.9273 62.1478L69.9522 62.1726Z" fill="#4DDCFD"/>
<path d="M86.235 62.2963C87.5525 62.3458 87.5277 62.3706 87.0056 61.1577C86.2101 59.2766 85.5389 57.3707 84.3208 55.6876C83.3265 54.3262 82.2078 53.1134 80.592 52.4203C80.418 52.3461 80.2688 52.2223 80.0948 52.1233C81.9592 52.4203 83.3265 53.5094 84.47 54.8955C86.061 56.8509 86.9808 59.1281 87.6768 61.529C87.5774 62.123 87.2045 62.4201 86.583 62.4201C84.0474 62.4201 81.5366 62.4201 79.001 62.4201C78.7773 62.4201 78.5287 62.4943 78.3049 62.3211C80.6417 62.3211 82.9785 62.3211 85.3152 62.2963C85.6135 62.2963 85.9118 62.2963 86.235 62.2963Z" fill="#98CAD4"/>
<path d="M69.4299 63.9791C69.3802 64.3256 69.3802 64.6969 69.3056 65.0434C69.1068 65.786 69.3802 66.2563 70.1509 66.5038C69.7531 66.677 69.3554 66.4295 69.0322 66.7018C69.0322 66.7265 69.0322 66.776 69.0322 66.8008C68.9576 67.1968 68.9825 67.5929 68.9079 67.9889C68.9079 68.2116 68.9079 68.4344 68.883 68.6572C68.8085 68.7314 68.7836 68.8304 68.7587 68.9542C68.2367 70.6868 66.4717 71.1571 65.1542 69.9443C65.0547 69.8453 64.9553 69.771 64.8559 69.6968C64.5327 68.9295 64.8559 68.1621 64.9304 67.4196C64.9304 67.2463 65.1542 67.1226 65.3779 67.1226C65.3779 67.6424 65.2287 68.1374 65.2287 68.6572C65.2287 69.4492 65.5519 69.9195 66.2728 70.0928C67.0435 70.2413 67.8638 69.87 68.1124 69.2265C68.2864 68.7809 68.3859 68.3354 68.361 67.8404C68.3113 66.0335 68.6096 64.2761 68.9079 62.494C68.9079 62.4445 68.9825 62.395 69.0073 62.3455C69.1068 62.4692 68.7836 62.8652 69.2559 62.7415C69.3305 63.1623 69.0571 63.6326 69.3802 64.0286L69.4299 63.9791Z" fill="#43CCED"/>
<path d="M69.4545 60.3655C69.5291 59.3012 70.0014 58.3606 70.4241 57.42C70.7969 56.6032 71.0207 55.6874 71.7664 55.0686C70.8467 56.7765 70.076 58.5339 69.4297 60.3655H69.4545Z" fill="#1ACEFA"/>
<path d="M69.0575 66.7023C73.5073 66.7023 77.9571 66.7023 82.4069 66.7023C84.4454 66.7023 86.5087 66.6032 88.5471 66.628C88.7211 66.8013 88.6963 67.024 88.6963 67.2468C82.1583 67.2468 75.6204 67.2468 69.0575 67.2468C68.9332 67.0735 68.9581 66.925 69.0575 66.7518V66.7023Z" fill="#B9F9FE"/>
<path d="M92.4748 76.108C92.4748 76.4545 92.276 76.8753 92.9472 76.9C94.6376 76.9248 95.4828 77.6673 95.6817 79.3505C95.9303 81.5286 96.0794 83.7315 96.2534 85.9097C96.2534 86.38 95.8557 86.4295 95.5325 86.4542C95.1099 86.5038 94.7122 86.38 94.3144 86.281C92.4003 85.8107 90.511 85.2167 88.5968 84.6721C87.1798 84.2761 85.7629 83.9048 84.2713 84.0781C83.9233 84.1276 83.6498 83.9543 83.4013 83.7315C82.6058 82.791 81.5617 82.3207 80.3684 82.2217C79.8961 82.1722 79.5729 82.0732 79.5481 81.5286C79.5481 81.2316 79.3741 81.1078 79.0758 81.1574C78.7774 81.2069 78.3797 81.1326 78.3548 81.6029C78.3548 82.2464 77.9322 82.4444 77.3853 82.4692C77.0124 82.4692 76.7141 82.2959 76.4904 82.0237C76.1672 81.6524 75.7695 81.4791 75.2972 81.4544C73.5819 81.4049 72.0158 80.7861 70.3751 80.39C69.6044 80.2168 68.8586 79.8703 68.0383 79.994C67.9389 79.994 67.8146 79.994 67.7151 79.9445C67.0439 79.5485 66.323 79.5237 65.5772 79.697C65.4032 79.7465 65.1298 79.7465 65.0552 79.5237C64.9309 79.202 65.1795 78.9792 65.4032 78.7564C67.0191 78.2861 68.6846 78.2614 70.3253 78.0881C71.8169 77.9149 73.3333 77.7663 74.8248 77.6178C75.8689 77.5188 76.9379 77.5683 77.982 77.4446C79.2249 77.2961 80.4679 77.1476 81.7108 77.0485C82.0837 77.0238 82.2577 76.8505 82.2577 76.4793C82.2577 75.91 82.2577 75.3654 82.2577 74.7961C82.2577 74.5239 82.2577 74.2268 82.4566 74.0041C82.9041 73.7318 83.3267 74.0041 83.7741 74.0041C85.4894 74.0041 87.2296 74.0041 88.9448 74.0041C89.8149 74.1278 90.7098 74.0041 91.5799 74.0536C91.8285 74.0536 92.102 74.0041 92.3505 74.1031C92.5991 74.7466 92.3754 75.3902 92.4748 76.0337V76.108Z" fill="#FDFDFD"/>
<path d="M82.4558 74.0535C82.4558 74.9446 82.4558 75.8604 82.4558 76.7515C82.4558 77.1227 82.3812 77.2712 81.9586 77.296C79.0749 77.5188 76.1664 77.7415 73.2827 78.0138C71.294 78.2118 69.3301 78.5088 67.3414 78.5583C66.695 78.5583 66.0487 78.7811 65.4024 78.9049C65.3527 79.0286 65.2532 79.0039 65.1538 78.9791C65.0295 78.8059 65.1538 78.6821 65.2781 78.5583C65.7255 78.6573 66.1481 78.4593 66.521 78.3603C68.4103 77.8653 70.3245 77.7415 72.2635 77.6673C72.8104 77.6425 73.3324 77.4693 73.8793 77.5435C75.2466 77.3455 76.6387 77.4445 78.006 77.4198C78.3789 77.4198 78.6523 77.296 78.876 76.9742C79.2241 76.4544 79.6218 75.9841 79.9947 75.4891C80.0444 75.4149 80.0941 75.3653 80.1439 75.2911C80.6162 74.301 81.362 73.8555 82.4806 74.0783L82.4558 74.0535Z" fill="#58BFEB"/>
<path d="M64.8811 69.6725C65.1048 69.5488 65.2291 69.7468 65.3534 69.8706C66.4224 70.8606 67.9636 70.5389 68.5354 69.2023C68.61 69.0042 68.5603 68.7072 68.9083 68.6577C68.9083 68.9547 68.9083 69.2518 68.9083 69.524C68.6846 69.8211 68.6846 70.1923 68.436 70.4894C67.8642 71.1329 67.1681 71.3804 66.3478 71.2072C65.5523 71.0339 65.08 70.4646 64.8811 69.6725Z" fill="#1B9DC8"/>
<path d="M92.3256 74.1771C91.1821 74.1276 90.0634 74.3008 88.9199 74.0533C89.8894 74.0533 90.8589 74.0533 91.8284 74.0533C92.0025 74.0533 92.1765 74.0286 92.3008 74.1771H92.3256Z" fill="#95EBFD"/>
<path d="M69.0568 66.7021C69.0568 66.8754 69.0568 67.0487 69.0568 67.1972C69.007 67.4695 69.1562 67.7417 68.9325 67.9892C68.9822 67.5685 68.7833 67.1229 69.0568 66.7021Z" fill="#67E2FE"/>
<path d="M85.0416 101.157C84.3207 101.355 83.5749 101.404 82.8292 101.429C81.1636 101.553 79.4732 101.676 77.8076 101.825C76.0923 101.973 74.377 102.147 72.6866 102.32C71.6177 102.419 70.5487 102.518 69.4798 102.592C68.0628 102.716 66.6458 102.815 65.2289 102.964C63.5385 103.137 62.1961 102.171 62.2706 100.488C62.3204 99.2012 62.3204 97.9141 62.1463 96.627C61.9723 96.3053 61.9226 95.934 61.9226 95.5627C61.9226 93.335 61.9226 91.1074 61.9226 88.8797C61.9723 88.2857 61.9226 87.6916 62.0718 87.0976C62.0966 86.9491 62.0718 86.8006 62.2706 86.7511C62.4695 86.7016 62.5938 86.8006 62.7181 86.9243C62.8424 87.0481 62.8921 87.2213 62.9418 87.3946C63.1904 88.3847 63.6379 89.3005 63.787 90.2906C63.8368 90.5876 63.9362 90.8846 64.2097 91.0579C64.5328 91.6272 64.4085 92.2707 64.4831 92.8895C64.682 94.2261 64.7317 95.5875 64.9057 96.9241C65.0051 97.7161 65.1543 98.5082 65.6018 99.1765C66.1238 99.9933 66.8447 100.439 67.8639 100.439C69.803 100.439 71.6923 100.117 73.6064 99.9933C75.7692 99.8695 77.9071 99.4983 80.0698 99.5478C80.5421 99.6468 80.9896 99.7458 81.4868 99.5973C81.5862 99.5725 81.7105 99.5973 81.8099 99.5973C82.9535 99.919 83.9478 100.587 84.9919 101.132L85.0416 101.157Z" fill="#04BEEE"/>
<path d="M62.1708 88.7811C62.1708 91.4048 62.1708 94.0285 62.1708 96.6522C61.8973 96.5284 61.7979 96.2561 61.7481 96.0334C61.3504 94.3502 60.3312 92.9641 59.7097 91.38C59.5854 91.083 59.4611 90.786 59.3368 90.4889C59.2622 90.3157 59.1628 90.1177 58.9391 90.1177C58.6656 90.1177 58.6656 90.3899 58.5662 90.5879C58.3922 90.8602 58.5165 91.2315 58.2927 91.5038C58.2927 88.583 58.2927 85.6376 58.2927 82.7169C58.2927 81.8258 58.2927 80.91 58.2927 80.0189C58.2927 80.0189 58.3424 80.0189 58.3424 79.9942C58.8645 79.3011 59.1379 79.3259 59.486 80.2417C60.3312 82.4198 61.3753 84.5237 61.7979 86.8257C61.8476 87.0484 61.8724 87.2464 62.0713 87.395C62.2453 87.8652 62.0216 88.3603 62.1956 88.8306L62.1708 88.7811Z" fill="#29DDFC"/>
<path d="M62.171 88.7809C61.8976 88.3353 62.1213 87.8403 62.0467 87.3453C62.0467 85.5384 61.9473 83.7562 62.1959 81.9494C62.3948 80.4147 63.2897 78.7069 65.3033 78.5583C65.2536 78.6821 65.2039 78.8059 65.179 78.9296C65.179 79.0286 65.1541 79.1029 65.0796 79.1524C64.4084 79.7712 64.0852 80.5137 64.1598 81.4296C64.1598 81.5781 64.1101 81.7266 63.9858 81.8256C63.6129 82.0236 63.6874 82.3701 63.6874 82.6919C63.7372 84.0038 63.8366 85.3156 64.0106 86.6027C64.1598 87.8155 64.1846 89.0531 64.3089 90.266C64.3338 90.5382 64.3586 90.8353 64.1349 91.058C63.8863 91.0085 63.8366 91.0085 63.7869 90.7363C63.5383 89.6224 63.1654 88.5581 62.8422 87.4938C62.7925 87.3205 62.7428 87.172 62.6682 87.0235C62.6185 86.8997 62.4942 86.8255 62.3451 86.8502C62.171 86.875 62.171 87.0235 62.171 87.1472C62.171 87.6918 62.171 88.2116 62.171 88.7561V88.7809Z" fill="#23BFEE"/>
<path d="M85.0419 101.156C84.2216 100.958 83.4758 100.562 82.7549 100.117C82.2826 99.8446 81.8102 99.6466 81.2385 99.8199C80.8904 99.9189 80.5673 99.8199 80.2192 99.7209C80.2938 99.3743 80.5921 99.4238 80.8407 99.3991C84.147 99.1268 87.4533 98.7555 90.7595 98.508C91.8036 98.4338 92.8228 98.3595 93.8421 98.2605C94.0658 98.2605 94.3144 98.2358 94.5133 98.409C94.2149 99.0278 93.9415 99.6714 93.3449 100.092C92.624 100.587 91.7539 100.661 90.9335 100.711C88.9697 100.81 87.0058 101.132 85.0171 101.132L85.0419 101.156Z" fill="#14BBE9"/>
<path d="M94.5379 98.4587C92.5989 98.632 90.6847 98.83 88.7457 98.9538C87.5276 99.028 86.3095 99.127 85.0666 99.2508C83.5004 99.3993 81.9592 99.6468 80.3682 99.6716C80.3185 99.6716 80.2688 99.7458 80.219 99.7706C77.9817 99.7706 75.7692 100.117 73.5319 100.266C71.6923 100.389 69.8528 100.637 67.9883 100.711C66.5962 100.761 65.5521 99.7953 65.1295 98.7062C64.7815 97.7904 64.7069 96.8251 64.6075 95.8845C64.4583 94.3499 64.334 92.8153 64.1849 91.2807C64.1849 91.2312 64.1103 91.1817 64.0854 91.1322C64.0109 89.1768 63.7871 87.2214 63.6131 85.2907C63.5137 84.2759 63.3645 83.2611 63.4391 82.2215C63.4391 81.9245 63.4888 81.6275 63.9363 81.8502C64.334 82.37 64.2346 82.9888 64.2843 83.5829C64.4583 85.5135 64.7318 87.4689 64.8312 89.3996C64.8312 89.5481 64.9307 89.6966 64.9307 89.8451C64.9307 90.9342 65.1047 91.9985 65.2041 93.0628C65.2538 94.1767 65.403 95.2905 65.5273 96.4043C65.7013 97.8647 66.7205 98.6567 68.3115 98.5825C69.4799 98.5082 70.6483 98.3845 71.7918 98.2855C73.6562 98.1122 75.5455 97.9884 77.41 97.8152C78.1309 97.7409 78.8766 97.6914 79.5976 97.5924C82.6801 97.3697 85.7875 97.1221 88.87 96.8251C89.3672 96.7756 89.8644 96.8746 90.3367 96.7261C91.6045 96.6271 92.8724 96.5033 94.1402 96.4291C94.7617 96.4043 95.3334 96.0826 95.9798 96.1816C96.0295 97.2954 95.4826 98.0379 94.5379 98.533V98.4587Z" fill="#07A0CF"/>
<path d="M95.9794 96.0826C95.333 96.4291 94.637 96.4786 93.9161 96.5281C92.7477 96.6271 91.5793 96.7756 90.3861 96.7756C90.038 96.8746 89.6652 96.8004 89.2923 96.8251C89.1431 96.8251 88.9691 96.8004 88.9442 96.6024C88.9194 96.4291 89.0685 96.3548 89.2177 96.2806C89.4663 96.1568 89.7397 96.1073 89.9883 96.0578C88.9691 95.8598 88.0493 95.34 87.0549 95.043C85.5385 94.5975 84.0221 94.2262 82.5306 93.6816C82.2323 93.5826 81.934 93.5826 81.6356 93.6321C81.213 93.7312 80.865 93.6074 80.6661 93.1866C80.3678 92.345 80.4175 92.1718 81.2628 91.8995C82.108 91.6272 82.7543 91.1322 83.2515 90.4144C83.4752 90.0679 83.5995 89.6966 83.5995 89.2511C83.5995 89.0283 83.5747 88.7808 83.7735 88.5828C84.1216 88.657 84.047 88.9788 84.0967 89.2016C84.1464 89.5976 84.3453 89.8204 84.7679 89.8451C87.1295 89.9936 89.2923 90.8847 91.5793 91.4292C92.9714 91.751 94.3138 92.345 95.8054 92.345C96.3274 92.345 96.5014 92.1965 96.576 91.751C96.6257 91.5035 96.576 91.2312 96.8246 91.0332C97.0483 92.5183 97.4212 93.9787 96.6754 95.439C96.4766 95.637 96.2528 95.8351 96.054 96.0578L95.9794 96.0826Z" fill="#C9F3FA"/>
<path d="M96.7744 91.0826C96.7744 91.2806 96.7744 91.4786 96.7744 91.6519C96.6501 92.5924 96.6501 92.5182 95.6806 92.5182C93.9654 92.5182 92.4241 91.8251 90.8082 91.4044C89.3664 91.0331 87.8997 90.6865 86.4828 90.2163C85.9607 90.043 85.3392 90.0925 84.7675 90.0677C84.0963 90.0677 83.8974 89.746 83.8974 89.1519C83.8974 88.9539 83.9471 88.7559 83.7731 88.6074C83.5494 88.5331 83.4997 88.3599 83.4251 88.1866C83.077 87.3945 82.4307 86.9243 81.6104 86.6272C80.8149 86.3302 79.9697 86.256 79.1742 85.9589C78.3289 85.6372 77.9561 85.2164 78.0555 84.6718C78.1549 84.1273 78.7018 83.8303 79.547 83.8055C80.3425 83.7808 81.0386 83.954 81.7098 84.3748C82.3561 84.7956 82.4058 84.7709 82.9528 84.2263C83.1516 84.0283 83.2759 83.7808 83.4997 83.5828C83.7731 83.855 84.0217 83.9293 84.4692 83.8798C85.5878 83.7313 86.7065 84.0035 87.7754 84.3006C89.9382 84.8699 92.0761 85.4887 94.2388 86.0827C94.5371 86.157 94.8603 86.256 95.1835 86.3055C95.6061 86.355 96.0038 86.355 96.2773 85.9342C96.5507 86.2807 96.2773 86.751 96.5259 87.1223C96.6253 88.4589 96.7247 89.7707 96.7993 91.1073L96.7744 91.0826Z" fill="#DEF8FB"/>
<path d="M64.757 89.8203C64.583 88.2856 64.409 86.751 64.2598 85.2164C64.1355 84.0778 64.061 82.9392 63.9615 81.8007C63.8621 80.6373 64.0858 79.6225 65.1548 78.9542C65.2293 78.9542 65.3288 78.9542 65.4033 78.9294C65.3785 79.1522 65.0802 79.276 65.1299 79.573C65.3288 79.6472 65.5028 79.573 65.7017 79.573C66.3231 79.4245 66.9695 79.3007 67.5412 79.771C67.6158 79.8453 67.7401 79.8948 67.8395 79.87C69.2317 79.672 70.4498 80.4888 71.7922 80.5631C72.0656 80.5631 72.3391 80.7858 72.6125 80.9096C73.4329 81.2314 74.3029 81.1819 75.1481 81.3056C75.7448 81.3799 76.2917 81.4541 76.6397 82.0234C76.7888 82.2709 77.0872 82.3452 77.3855 82.3452C77.3855 82.6422 77.112 82.7165 76.9131 82.8155C74.9244 84.0036 75.2724 86.6025 77.112 87.4441C77.7832 87.7411 78.4793 87.9639 79.2002 88.0876C79.6476 88.1619 80.0951 88.2609 80.4929 88.4837C81.1392 88.8549 81.2138 89.5232 80.6669 90.043C80.3686 90.34 79.9708 90.4638 79.5482 90.4886C78.6284 90.5628 77.7832 90.3648 76.9877 89.9193C76.6894 89.746 76.416 89.5975 76.0679 89.7213C75.8193 89.7955 75.7199 90.043 75.5459 90.1915C75.1979 90.4638 74.9741 90.4143 74.9493 89.9688C74.8995 89.4242 74.5764 89.2757 74.1041 89.2015C73.1594 89.0282 72.2645 88.6817 71.3944 88.3599C70.5989 88.0876 69.7786 87.8401 69.0079 87.5431C67.9638 87.1471 66.87 87.3451 65.8011 87.2461C65.4282 87.1966 65.3785 87.5678 65.3536 87.8401C65.3288 88.3351 65.2791 88.8302 65.1796 89.3005C65.1299 89.548 65.1299 89.845 64.757 89.8203Z" fill="#DCF7FB"/>
<path d="M76.1167 89.5727C76.415 89.2757 76.6636 89.4984 76.9122 89.6469C77.6828 90.1172 78.528 90.3647 79.423 90.34C79.7213 90.34 80.0196 90.2657 80.293 90.142C80.6411 89.9687 80.8897 89.7212 80.8897 89.3004C80.8897 88.8796 80.6162 88.6816 80.293 88.5331C79.771 88.2856 79.1992 88.2608 78.6523 88.1371C78.0806 88.0133 77.5337 87.84 77.0116 87.5925C75.9924 87.0727 75.4206 86.2559 75.3958 85.0678C75.3709 83.9045 75.9924 83.1372 76.9371 82.5927C77.0862 82.5184 77.2354 82.4194 77.3845 82.3451C77.9066 82.3204 78.2794 82.1719 78.1303 81.5283C78.0557 81.1818 78.2049 81.0085 78.5778 81.0333C78.7766 81.0333 78.9755 81.0333 79.1495 80.9838C79.5473 80.9095 79.7461 81.058 79.6716 81.4541C79.597 81.9244 79.7959 82.0481 80.293 82.0729C81.5609 82.1471 82.6547 82.6174 83.4502 83.6075C83.4004 84.3005 82.7541 84.548 82.3812 84.9688C82.2321 85.1421 82.0829 84.8698 81.9586 84.7956C81.1382 84.1768 80.2185 83.8797 79.1744 83.9788C78.6772 84.0283 78.2546 84.2015 78.1551 84.7213C78.0309 85.2659 78.4286 85.5381 78.8761 85.7361C79.6218 86.0579 80.4173 86.1569 81.188 86.3797C82.4309 86.7262 83.3756 87.3698 83.7485 88.6816C83.8728 89.8449 83.475 90.7608 82.5552 91.4786C82.1823 91.7756 81.7349 91.9241 81.3123 92.0974C80.5416 92.4191 80.5168 92.3944 80.7654 93.1864C80.7902 93.2112 80.8399 93.2607 80.8151 93.3102C80.4671 93.8795 79.8953 93.5825 79.423 93.6815C79.1247 93.731 78.9506 93.4587 78.9506 93.1864C78.9506 92.6172 78.6275 92.4934 78.1303 92.4439C77.1608 92.3201 76.241 91.9984 75.4455 91.4043C74.8737 90.9588 74.8737 90.8103 75.3958 90.3647C75.6692 90.142 75.8184 89.8202 76.1167 89.6222V89.5727Z" fill="#02BFF3"/>
<path d="M76.117 89.5729C75.9678 89.9442 75.6695 90.2164 75.3712 90.4392C74.9735 90.7115 75.1226 90.86 75.3961 91.0828C76.2662 91.8253 77.3102 92.1718 78.4289 92.2461C78.8764 92.2708 79.1498 92.3698 79.1001 92.8649C79.0504 93.4094 79.2741 93.6322 79.821 93.4589C80.1442 93.3599 80.5668 93.6074 80.7905 93.1619C81.0143 93.4589 81.238 93.6322 81.6606 93.4589C82.1081 93.2857 82.5804 93.4589 82.9781 93.6074C84.6934 94.2757 86.5081 94.5728 88.2234 95.2411C88.994 95.5381 89.6901 96.0579 90.6099 95.9094C90.1624 96.3796 89.4912 96.1816 89.0438 96.6024C89.5161 96.8994 89.9884 96.6767 90.4359 96.7757C89.3918 96.8747 88.3477 96.9984 87.2788 97.0727C84.7183 97.2955 82.1826 97.5677 79.5973 97.6667C79.5724 97.642 79.5476 97.5925 79.5476 97.5677C79.4978 97.3202 79.8459 97.0975 79.647 96.8499C79.3984 96.5529 79.0504 96.4044 78.7024 96.3301C77.2605 96.0084 75.8187 95.5876 74.3769 95.2411C72.761 94.845 71.1452 94.4738 69.5542 94.0282C68.8333 93.8302 68.1123 93.7807 67.3914 93.7064C66.5959 93.6322 65.7507 93.6322 65.0795 93.0381C64.9055 91.9738 64.7564 90.9095 64.8061 89.8204C65.2784 89.4244 65.005 88.8056 65.179 88.3353C65.2287 88.162 65.179 87.9393 65.179 87.766C65.2535 87.073 65.4027 86.9987 66.0739 87.0977C66.7948 87.1967 67.5406 87.0234 68.2615 87.1967C69.6536 87.4937 70.9463 88.1125 72.3135 88.4838C73.0593 88.6818 73.7305 89.0779 74.526 89.1026C75.1724 89.1274 75.2718 89.6966 75.0729 90.2907C75.6447 90.2907 75.595 89.5729 76.0921 89.6224L76.117 89.5729Z" fill="#BDF0FA"/>
<path d="M65.0302 93.0381C66.2235 93.5084 67.5161 93.4341 68.7342 93.6816C70.2755 94.0034 71.8168 94.4489 73.358 94.8202C75.123 95.2658 76.8881 95.7113 78.6779 96.1321C79.1254 96.2311 79.4983 96.5033 79.8711 96.7509C80.0949 96.8994 80.07 97.0479 79.8711 97.2211C79.722 97.3449 79.5728 97.4934 79.5728 97.6914C78.4293 97.939 77.2609 97.9389 76.0926 98.038C73.6315 98.2855 71.1456 98.4587 68.6845 98.6815C67.9388 98.7558 67.2178 98.731 66.5466 98.335C65.9003 97.939 65.4528 97.4439 65.3534 96.6766C65.2042 95.4638 65.0551 94.2509 65.0054 93.0381H65.0302Z" fill="#AEECFA"/>
</svg>
