<svg width="163" height="164" viewBox="0 0 163 164" fill="none" xmlns="http://www.w3.org/2000/svg">
<path d="M60.7089 155.114C59.8502 154.865 58.9559 155.363 58.7076 156.222C58.4592 157.081 58.9559 157.976 59.8147 158.225C66.9046 160.263 74.2784 161.3 81.7303 161.3C102.887 161.3 122.78 153.054 137.74 138.083C152.701 123.112 160.94 103.204 160.94 82.0323C160.94 60.8607 152.701 40.9532 137.74 25.9818C122.78 11.0103 102.887 2.76465 81.7303 2.76465C74.2784 2.76465 66.9046 3.80158 59.8147 5.83992C59.105 6.04588 58.6437 6.69218 58.6437 7.3953C58.6437 7.54445 58.665 7.6936 58.7076 7.84274C58.9559 8.70211 59.8502 9.19926 60.7089 8.95068C67.5079 6.99048 74.5836 6.00325 81.7303 6.00325C123.624 6.00325 157.704 40.108 157.704 82.0323C157.704 123.957 123.624 158.061 81.7303 158.061C74.5765 158.061 67.5079 157.067 60.7089 155.114Z" fill="#F7A715"/>
<path d="M121.931 122.705C144.378 100.241 144.378 63.8212 121.931 41.3579C99.4842 18.8947 63.0906 18.8947 40.6437 41.3579C18.1968 63.8212 18.1968 100.241 40.6437 122.705C63.0906 145.168 99.4842 145.168 121.931 122.705Z" fill="url(#paint0_linear_2026_13)"/>
<path d="M25.0823 82.0324C25.0823 74.4401 26.5656 67.0752 29.4966 60.1363C32.3283 53.4389 36.3807 47.4234 41.5403 42.253C46.6998 37.0897 52.711 33.0272 59.4106 30.2005C66.3373 27.2673 73.7041 25.783 81.2908 25.783C88.8775 25.783 96.2371 27.2673 103.171 30.2005C109.863 33.0343 115.875 37.0897 121.041 42.253C126.201 47.4163 130.26 53.4318 133.085 60.1363C136.016 67.0681 137.499 74.4401 137.499 82.0324C137.499 89.6246 136.016 96.9896 133.085 103.928C130.253 110.626 126.201 116.641 121.041 121.812C115.882 126.975 109.871 131.038 103.171 133.864C96.2442 136.798 88.8775 138.282 81.2908 138.282C73.7041 138.282 66.3444 136.798 59.4106 133.864C52.7181 131.031 46.7069 126.975 41.5403 121.812C36.3807 116.649 32.3213 110.633 29.4966 103.928C26.5656 96.9967 25.0823 89.6246 25.0823 82.0324Z" fill="url(#paint1_linear_2026_13)"/>
<path d="M102.298 101.094C102.172 101.094 97.0021 103.893 96.0186 103.54C95.8421 103.388 95.6655 103.237 95.4133 103.262C93.7488 103.439 92.2861 103.993 91.4035 105.557C91.3278 105.708 91.2521 105.859 91.1513 105.985C90.8739 106.389 90.6469 106.439 90.2686 106.111C90.0164 105.885 89.7642 105.658 89.512 105.431C89.1337 105.078 88.9824 104.699 89.285 104.22C89.512 103.842 89.3355 103.716 88.9572 103.666C87.4188 103.464 85.9057 103.489 84.4682 104.17C84.2916 104.246 84.0899 104.372 83.8881 104.195C83.8629 103.918 84.0647 103.792 84.2412 103.64C85.4517 102.783 86.7379 102.027 88.0493 101.346C88.9824 100.867 90.0164 100.514 91.1261 100.842C91.6052 100.968 92.0844 100.741 92.5383 100.64C92.8914 100.564 93.2192 100.514 93.3706 100.943C93.4462 101.119 93.6228 101.195 93.7741 101.144C94.6063 100.943 95.489 101.094 96.3212 100.943C97.5822 100.943 98.7927 100.69 99.9528 100.136C100.331 99.9339 100.785 100.01 101.189 100.01C101.592 100.01 101.996 100.01 102.349 99.8583C103.534 99.3036 104.744 98.8497 105.854 98.2193C106.106 98.0681 106.333 97.8916 106.535 97.6646C106.939 97.1855 106.939 97.0847 106.409 96.7569C106.031 96.53 106.081 96.2022 106.384 96.0761C107.165 95.6727 107.418 94.9919 107.569 94.2102C107.619 93.9833 107.67 93.6303 108.073 93.8068C108.073 95.0927 108.073 96.4039 107.392 97.5638C107.216 98.0933 106.787 98.3958 106.384 98.6732C105.022 99.5053 103.61 100.287 102.248 101.094H102.298Z" fill="#0370E3"/>
<path d="M55.3898 74.7189C55.9446 71.4915 56.4994 68.264 57.0543 65.0365C57.1804 64.7592 57.4073 64.8096 57.6091 64.9357C59.6771 66.1964 61.6946 67.558 63.7626 68.7935C63.9139 68.8944 64.0904 68.97 64.1409 69.1717C63.9643 69.6508 63.46 69.7769 63.1069 70.0542C60.8624 71.5671 58.5674 73.0296 56.3229 74.5424C56.0707 74.7189 55.8437 74.9459 55.4907 74.9207C55.3898 74.8954 55.3394 74.8198 55.3646 74.7189H55.3898Z" fill="#26A9FA"/>
<path d="M81.5426 49.0504C82.6774 49.5799 83.661 50.3868 84.695 51.0676C89.2597 54.1186 93.7739 57.1695 98.3386 60.2457C100.381 61.6325 102.424 62.9941 104.467 64.3809C104.643 64.507 104.845 64.5574 104.946 64.7591C104.896 64.8852 104.769 64.9356 104.643 64.9608C104.114 64.9608 103.786 64.5826 103.382 64.3052C96.2958 59.464 89.1588 54.6985 82.0217 49.9329C81.9461 49.8825 81.8452 49.8069 81.7696 49.7564C81.6435 49.6556 81.5174 49.5799 81.4669 49.4286C81.4417 49.2774 81.4669 49.1261 81.5174 49L81.5426 49.0504Z" fill="#65C2ED"/>
<path d="M81.5421 49.0506C81.5421 49.0506 81.6177 49.3027 81.5421 49.4036C80.0289 50.4878 78.4401 51.4459 76.8765 52.4797C73.5728 54.6482 70.2691 56.8419 66.9654 59.0103C66.3601 59.4138 65.7044 59.7668 65.1244 60.2206C62.8294 61.7083 60.5345 63.1959 58.2395 64.6836C58.0125 64.8349 57.8108 65.0114 57.5334 65.0618C57.3821 64.9357 57.2055 64.9357 57.0542 65.0618C57.029 64.7088 57.3316 64.6584 57.5334 64.5323C65.1748 59.5146 72.8415 54.4969 80.5081 49.5044C80.836 49.3027 81.0881 48.9245 81.5421 49.0506Z" fill="#4FBDE8"/>
<path d="M61.1401 101.093C59.3243 100.009 57.5589 98.8492 55.8188 97.6389C54.7344 96.8825 54.457 95.6974 54.2804 94.4619C53.5491 89.2677 52.7925 84.0987 52.0359 78.9549C51.8846 77.9715 52.2125 77.1395 52.9943 76.4839C53.1204 76.5847 53.1204 76.7612 52.9943 77.0386C52.8682 77.2908 52.6916 77.4925 52.616 77.7698C52.4899 78.4506 52.616 79.1062 52.6916 79.787C53.0195 82.258 53.4734 84.7038 53.8265 87.1749C53.8769 88.0574 54.0787 88.9147 54.2048 89.7972C54.4318 91.5622 54.7344 93.3272 55.0118 95.0922C55.0622 95.3948 55.1379 95.6974 55.2388 96C55.491 96.9581 56.2475 97.4372 57.0041 97.9415C58.3407 98.8744 59.753 99.7065 61.1149 100.589C61.241 100.74 61.3923 100.841 61.3166 101.068C61.2662 101.093 61.1905 101.093 61.1401 101.068V101.093Z" fill="#2C92DB"/>
<path d="M107.468 97.5631C108.023 96.3528 108.048 95.0416 108.073 93.7557C107.796 93.4531 107.897 93.1001 107.922 92.7471C107.997 91.9654 108.124 91.1838 108.149 90.4021C108.25 89.3683 108.426 88.3598 108.527 87.326C108.804 85.0314 108.956 82.7117 109.385 80.4172C109.435 80.1398 109.385 79.8625 109.385 79.6103C109.385 79.4086 109.385 79.2069 109.385 79.0052C109.511 78.047 109.057 77.341 108.376 76.7863C108.149 76.6098 107.871 76.4585 107.77 76.1559C107.77 76.0046 107.821 75.9038 107.947 75.8281C108.048 75.9038 108.149 75.9542 108.25 76.0298C109.485 76.7863 110.166 77.7696 109.965 79.3582C109.284 84.9054 108.704 90.4526 108.073 95.9998C107.997 96.5797 107.922 97.1596 107.443 97.5883L107.468 97.5631Z" fill="#0B59C3"/>
<path d="M107.947 75.8033C107.947 75.8033 107.871 76.005 107.821 76.1058C107.544 76.2067 107.392 76.005 107.216 75.8789C105.551 74.6434 103.912 73.3827 102.273 72.1471C102.071 71.9959 101.844 71.8698 101.92 71.542C102.248 71.3655 102.475 71.5924 102.701 71.7437C103.433 72.2228 104.114 72.7523 104.82 73.2566C105.223 73.5339 105.576 73.9122 106.131 74.1391C105.652 71.2646 105.173 68.4406 104.669 65.6418C104.669 65.4653 104.643 65.2636 104.618 65.0871C104.618 65.0366 104.643 64.961 104.694 64.9106C104.744 64.8097 104.87 64.7845 104.971 64.7593C105.324 65.9948 105.45 67.2807 105.703 68.5415C106.081 70.5082 106.409 72.4749 106.762 74.4669C106.812 74.7947 106.964 75.0468 107.241 75.2233C107.493 75.3998 107.745 75.6015 107.972 75.778L107.947 75.8033Z" fill="#2996DC"/>
<path d="M52.8675 76.9883C52.7918 76.7866 53.1953 76.7109 52.9936 76.484C53.498 75.9797 54.1537 75.7024 54.7589 75.3241C55.0111 75.1729 55.2381 74.9964 55.3642 74.719C55.4146 74.7694 55.4651 74.8199 55.5407 74.8955C55.5407 75.1729 55.3642 75.3746 55.1877 75.5259C54.532 76.0554 53.7754 76.484 53.0945 77.0135C53.0188 77.064 52.9431 77.064 52.8675 77.0135V76.9883Z" fill="#84D9E3"/>
<path d="M61.139 101.093C61.139 101.093 61.2651 101.093 61.3155 101.068C61.4416 101.018 61.5677 101.043 61.6686 101.118C62.4 101.597 63.207 101.95 63.9131 102.505C64.0644 102.707 64.2914 102.808 64.4931 102.984C64.6445 103.11 64.8462 103.236 64.6949 103.489V103.539C63.5096 102.732 62.2991 101.925 61.1138 101.144L61.139 101.093Z" fill="#1B82D5"/>
<path d="M64.7211 103.438C64.6454 102.934 64.0149 102.984 63.8384 102.581C64.0149 102.43 64.2167 102.53 64.368 102.631C65.0237 103.11 65.7803 103.362 66.436 103.816C67.1925 104.371 68.0752 104.648 68.9074 105.052C68.9831 105.102 69.0588 105.128 69.1596 105.102C69.9162 104.926 70.5467 105.354 71.2276 105.481C72.0851 105.632 72.9173 105.808 73.5982 106.363C73.6487 106.413 73.7495 106.439 73.8756 106.363C73.6234 105.707 73.1695 105.203 72.7408 104.674C71.5555 103.287 70.3197 101.95 69.2353 100.488C69.0335 100.211 68.63 99.8829 68.9327 99.5047C69.2101 99.1012 69.6136 99.429 69.9667 99.5047C70.5971 99.656 71.1015 100.009 71.6816 100.261C72.6903 100.69 73.6739 100.564 74.6826 100.337C74.9601 100.261 74.8087 100.085 74.7835 99.9333C74.7331 99.6307 74.4557 99.3786 74.6574 99.0508C74.9096 98.9752 75.0105 99.1517 75.0862 99.303C75.7166 100.438 76.4732 101.497 77.0785 102.656C77.1289 102.757 77.1794 102.833 77.2046 102.934C77.4568 103.615 77.2298 103.892 76.5237 103.816C75.7419 103.716 74.9348 103.766 74.153 103.741C73.8252 103.741 73.3965 103.69 73.2452 104.018C73.0686 104.396 73.3965 104.699 73.6234 104.951C74.2035 105.632 74.7331 106.313 75.3383 106.968C76.1454 107.851 76.8767 108.784 77.6333 109.717C77.8351 109.969 78.2133 110.322 77.9359 110.65C77.5829 111.003 77.1794 110.7 76.8767 110.448C76.1958 109.893 75.414 109.49 74.607 109.137C74.2287 108.985 73.8504 108.859 73.4469 108.884C72.5642 108.607 71.9085 107.977 71.152 107.498C69.5127 106.489 67.9491 105.38 66.3351 104.346C66.0325 104.144 65.7046 104.018 65.402 103.867C65.175 103.741 65.0237 103.514 64.7715 103.489L64.7211 103.438Z" fill="#016A99"/>
<path d="M65.3516 103.816C66.209 103.816 66.7638 104.472 67.4195 104.875C68.857 105.783 70.2693 106.716 71.7068 107.649C72.2616 108.002 72.8165 108.38 73.3713 108.733C74.027 108.91 74.5314 109.364 75.061 109.742C75.1366 109.792 75.1871 109.918 75.1366 110.019C74.9601 110.145 74.7836 110.044 74.607 110.019C73.6235 109.616 72.8417 108.885 71.9338 108.38C71.3285 108.027 70.7737 107.599 70.1937 107.195C69.7397 106.893 69.2101 106.691 68.857 106.237C68.277 105.834 67.697 105.43 67.1169 105.052C66.5116 104.648 65.8559 104.346 65.3516 103.816Z" fill="#1178DA"/>
<path d="M108.325 90.3523C108.375 91.487 108.022 92.6216 108.073 93.7563C107.745 93.958 107.77 94.311 107.694 94.6388C107.568 95.2187 107.518 95.7987 106.812 96.0004C106.635 96.0508 106.333 96.1769 106.358 96.4543C106.408 96.7568 106.686 96.6055 106.862 96.656C107.266 96.782 107.24 97.0342 107.064 97.3368C106.61 98.1688 105.803 98.5218 105.021 98.9001C104.567 99.127 104.088 99.2531 103.659 99.5052C102.751 99.9843 101.818 100.337 100.784 100.161C100.078 100.06 99.5738 100.564 98.9685 100.741C98.1111 100.993 97.2536 101.119 96.3709 101.069C95.8161 101.069 95.2613 101.069 94.7065 101.018C94.303 100.968 93.9499 100.917 93.7481 100.463C93.5968 100.085 93.1933 100.161 92.8655 100.11C90.8227 99.8078 89.1078 100.589 87.4686 101.699C86.8381 102.128 86.2076 102.506 85.5015 102.808C85.1232 102.985 84.7953 102.985 84.4422 102.707C84.0892 102.43 84.1648 102.077 84.2657 101.724C84.3918 101.245 84.5936 100.816 84.6944 100.337C84.7953 99.8834 84.644 99.5556 84.2909 99.2531C83.61 98.6731 82.7526 98.4966 81.9455 98.2697C81.6177 98.1688 81.5168 98.3958 81.3655 98.6227C81.2394 98.7992 81.2394 99.2026 80.8107 99.0009C80.6089 98.4714 80.7602 97.9167 80.7098 97.362C80.7098 97.1098 80.7098 96.8577 80.7855 96.6055C80.7855 96.5551 80.8359 96.5047 80.8611 96.429C81.189 95.7735 81.6681 95.6222 82.3238 95.9752C82.7778 96.2021 83.2317 96.429 83.7109 96.5299C84.4675 96.6812 84.9466 97.2863 85.5771 97.6393C85.905 97.8158 85.8797 98.2445 85.8545 98.6227C85.7789 99.1522 85.5267 99.6061 85.4006 100.136C85.224 100.791 85.3501 100.867 86.0058 100.741C86.9137 100.564 87.8216 100.463 88.6791 100.06C89.0321 99.8834 89.4104 99.7321 89.7383 99.5052C91.6802 98.1436 93.9499 97.8158 96.2196 97.6393C96.3709 97.6393 96.5223 97.6393 96.6484 97.6393C98.2372 97.9923 99.6242 97.4124 100.961 96.7064C101.263 96.5551 101.566 96.4038 101.894 96.3534C102.852 96.1769 103.71 95.723 104.567 95.244C105.223 94.8909 105.652 94.2858 105.727 93.5546C105.828 92.4956 106.307 91.6887 107.24 91.1592C107.467 91.0331 107.644 90.8062 107.795 90.5793C107.921 90.428 108.022 90.1758 108.274 90.3523H108.325Z" fill="#077DEA"/>
<path d="M83.1563 112.264C82.5511 112.491 82.0215 112.894 81.391 113.045C80.5083 113.298 79.6761 113.146 78.9195 112.718C77.4316 111.86 75.9941 110.902 74.5818 109.894C74.7583 109.944 74.9349 109.969 75.1366 110.02C75.5149 109.894 75.7671 110.146 76.0445 110.322C76.8515 110.852 77.6585 111.381 78.4655 111.886C78.8943 112.138 79.323 112.289 79.8022 112.39C80.1805 112.466 80.3318 112.314 80.357 111.936C80.4326 110.6 80.5335 109.263 80.4831 107.927C80.4579 107.044 80.5587 106.162 80.6848 105.305C80.8614 104.977 80.9875 104.624 81.164 104.296C81.4162 103.893 81.7945 103.615 82.2484 103.514C82.5511 103.439 82.9294 103.464 82.9798 103.792C83.0807 104.473 83.5094 104.321 83.9381 104.246C84.8208 103.867 85.7035 103.615 86.6618 103.439C87.6453 103.262 88.5532 103.615 89.4864 103.565C89.789 103.565 89.6377 103.842 89.5872 103.993C89.3603 104.699 89.5368 105.279 90.1168 105.758C90.1925 105.809 90.2429 105.859 90.2934 105.935C90.6212 106.464 90.823 106.212 91.0247 105.834C91.3526 105.229 91.6552 104.624 92.2605 104.22C93.1684 103.615 94.1267 103.187 95.2363 103.111C95.5137 103.111 95.892 102.985 95.9929 103.464C93.1179 107.75 86.4853 110.448 86.4096 110.499C85.3504 111.129 84.3416 111.886 83.1563 112.289V112.264Z" fill="#BDFAFD"/>
<path d="M83.9373 104.22C83.786 104.321 83.6347 104.422 83.4581 104.523C83.1051 104.699 82.9285 104.598 82.9033 104.17C82.8781 103.59 82.6511 103.464 82.0963 103.691C81.6171 103.867 81.3145 104.195 81.1128 104.674C81.0371 104.876 81.0371 105.153 80.7849 105.229C80.6084 105.052 80.5832 104.825 80.5832 104.598C80.5327 102.934 80.6336 101.245 80.7093 99.5806C80.7093 99.3788 80.7597 99.2023 80.911 99.0763C81.2893 98.8241 81.138 98.1181 81.6424 98.0677C82.0459 98.0425 82.4746 98.2946 82.9033 98.3703C83.6347 98.5215 84.1643 98.9754 84.7443 99.4041C85.0974 99.6814 84.9965 100.06 84.9209 100.387C84.7948 100.942 84.6182 101.472 84.4417 102.001C84.366 102.228 84.3156 102.43 84.5678 102.606C84.82 102.758 85.0217 102.909 85.3496 102.758C86.5349 102.203 87.6445 101.547 88.7037 100.816C90.1665 99.8075 91.7805 99.9336 93.4197 100.034C93.7224 100.034 94.0502 100.16 94.025 100.614C94.025 100.892 94.2268 100.866 94.4285 100.892C95.0842 100.967 95.7399 101.068 96.3956 101.144C96.2695 101.295 96.093 101.27 95.9417 101.27C95.1851 101.245 94.4537 101.27 93.6972 101.446C93.4197 101.497 93.2684 101.446 93.2684 101.194C93.2684 100.766 93.0667 100.766 92.7388 100.892C91.9318 101.169 91.0996 101.043 90.2673 101.043C88.729 101.043 87.468 101.976 86.1818 102.758C85.4 103.237 84.5678 103.615 83.9373 104.296V104.22Z" fill="#0272E2"/>
<path d="M57.5344 65.0367C58.2658 64.3307 59.1989 63.9021 60.0563 63.3221C61.6199 62.2631 63.2088 61.2545 64.7976 60.2207C64.8732 60.1703 64.9741 60.1451 65.075 60.0947C65.655 59.7164 66.109 59.7921 66.6386 60.2712C67.4708 61.078 67.7987 61.0528 68.6057 60.2459C68.9083 59.9434 69.2109 59.8425 69.6144 60.0442C69.791 60.3468 69.2614 60.5737 69.5136 60.8511C69.791 61.1537 70.1945 61.2797 70.5728 61.3806C71.6068 61.658 72.6407 62.011 73.7 62.2631C74.0026 62.3388 74.3556 62.364 74.3556 62.8178C74.2043 63.2465 73.7756 63.3221 73.4478 63.5491C73.019 63.8516 72.5651 64.1038 72.1111 64.3811C71.2789 64.835 70.5475 65.4149 69.7153 65.8688C69.6144 65.9444 69.5136 65.9949 69.4127 66.0705C67.8239 67.0539 66.2098 67.9868 64.6715 69.0206C64.4949 69.1467 64.3436 69.298 64.0914 69.1971C62.6035 68.2642 61.1156 67.3312 59.6276 66.3983C58.9215 65.9444 58.2153 65.4906 57.5344 65.0367Z" fill="#76DDFE"/>
<path d="M52.8683 76.9883C53.7257 76.2319 54.8354 75.8032 55.5415 74.8955C57.9625 73.2818 60.4088 71.6428 62.8299 70.0291C62.9055 69.9787 62.9812 69.9534 63.0568 69.9282C63.5108 70.6847 63.2586 71.3655 62.8551 72.0967C61.5185 74.5425 60.3079 77.0639 59.0722 79.535C58.8704 79.9636 58.6939 80.3671 58.82 80.8461C58.6687 81.0731 58.4165 81.0478 58.1895 81.0478C57.7103 80.9722 57.2816 80.7201 56.8781 80.4931C55.5919 79.7619 54.2805 79.1063 52.9187 78.5012C52.5152 78.3247 52.3387 78.0473 52.49 77.6187C52.6161 77.4169 52.7422 77.19 52.8683 76.9883Z" fill="#E2FDFE"/>
<path d="M58.7951 80.7957C58.5682 80.6949 58.4925 80.5184 58.6186 80.2914C58.7195 80.0393 58.8204 79.7871 58.9465 79.535C60.3083 76.837 61.6701 74.1643 63.032 71.4663C63.1833 71.1385 63.5868 70.7603 62.9563 70.4073C62.7293 70.2812 63.0824 70.1047 63.0824 69.9282C63.4103 69.6761 63.7633 69.4492 64.0912 69.197C65.6548 68.1128 67.3192 67.1799 68.9333 66.1713C69.0846 66.0956 69.2107 66.02 69.362 65.9443C69.6898 66.1965 69.3872 66.373 69.2611 66.5495C68.8576 67.0538 68.2271 67.2303 67.7732 67.6841C66.9914 68.2893 66.1339 68.7684 65.2513 69.2222C64.8478 69.4239 64.6964 69.6761 64.7973 70.13C64.8982 70.5082 64.9486 70.9116 65.0747 71.2898C65.4278 72.601 65.6296 73.9374 65.9322 75.2485C66.0835 75.7276 66.1087 76.2319 66.1592 76.7362C66.0583 77.543 65.9322 77.6691 65.1504 77.6943C64.4695 77.6943 63.839 77.6943 63.2589 77.2405C62.8302 76.9127 62.1745 77.064 61.7962 77.4926C61.544 77.77 61.3171 78.0725 61.1153 78.4003C60.6866 79.1063 60.157 79.7619 59.5265 80.3419C59.2743 80.5184 59.1482 80.8714 58.7699 80.8209L58.7951 80.7957Z" fill="#FBFDFD"/>
<path d="M104.668 64.9356C104.668 64.9356 104.668 65.0113 104.668 65.0617C103.558 65.9946 102.373 66.7763 101.011 67.2554C99.1451 64.9608 96.6988 63.3471 94.4039 61.5317C94.0004 61.2039 93.5717 61.1787 93.1177 61.4056C92.0837 61.8847 90.9741 62.1116 89.8897 62.389C89.5366 62.4646 89.2087 62.5907 88.9565 62.868C88.1243 62.7672 87.5695 62.1872 86.9642 61.7082C86.8381 61.3047 87.0399 61.0778 87.4182 60.9517C88.6035 60.6239 89.7636 60.1701 90.9236 59.7919C91.1254 59.7162 91.4028 59.7162 91.4532 59.4388C91.5037 59.1615 91.2767 59.0354 91.1002 58.8841C90.2427 58.2033 89.4357 57.4721 88.553 56.867C86.2833 55.1776 84.0136 53.5134 81.5673 52.1014C81.4412 52.0258 81.3656 51.9501 81.3403 51.824C81.3403 51.2693 81.3403 50.7398 81.3656 50.1851C81.3656 49.9582 81.3151 49.58 81.7943 49.6808C84.9467 51.7736 88.0991 53.8412 91.2515 55.9592C95.337 58.7076 99.3973 61.4812 103.483 64.2296C103.861 64.4818 104.189 64.8096 104.668 64.9356Z" fill="#AEE8FD"/>
<path d="M81.7953 49.6558C81.4422 49.7063 81.5683 49.9836 81.5431 50.2106C81.4675 50.7905 81.6944 51.3704 81.417 51.9252C81.2153 52.2782 80.8118 52.3538 80.5091 52.5303C79.0716 53.3876 77.6846 54.2953 76.3479 55.2787C75.4148 55.9343 74.5069 56.6151 73.5738 57.2959C72.7668 57.9514 71.8841 58.5314 71.0771 59.2122C70.598 59.5147 70.2449 60.0443 69.6144 60.1199C69.1857 60.0947 68.8578 60.1703 68.5552 60.5738C68.0256 61.2798 67.3699 61.305 66.6133 60.5233C66.1089 60.019 65.655 59.9434 65.075 60.1199C66.1089 59.2878 67.269 58.6322 68.3787 57.8758C70.1692 56.6907 71.9598 55.5056 73.7504 54.3205C76.1462 52.7572 78.5672 51.1939 80.9883 49.6054C81.1648 49.4793 81.3161 49.3533 81.5683 49.3785C81.644 49.4541 81.7449 49.5298 81.8205 49.6306L81.7953 49.6558Z" fill="#6BD6FD"/>
<path d="M61.0646 100.69C59.5263 99.8835 58.114 98.8497 56.6513 97.9168C55.9956 97.5134 55.3146 97.0343 55.1633 96.1518C55.6929 95.7736 55.8442 95.1684 56.0208 94.5885C56.1721 94.0842 56.2982 93.5799 56.5504 93.126C56.5756 93.0756 56.626 93.0252 56.6765 92.9747C57.5087 92.1679 57.66 92.2183 58.0131 93.3025C58.1644 93.7564 58.2149 94.1346 57.9122 94.5633C57.66 94.9163 57.8618 95.1936 58.1392 95.4458C59.3497 96.5552 60.762 97.2864 62.4012 97.3621C63.5109 97.4125 64.6458 97.5134 65.7806 97.2108C66.3102 97.0595 66.739 96.8074 66.9155 96.2526C67.0416 95.824 67.3442 95.5466 67.7477 95.3701C68.8069 94.8658 69.8661 94.3615 70.9506 93.9329C71.6063 93.6807 72.1611 93.7564 72.7159 94.185C72.842 94.3868 72.842 94.6137 72.8168 94.8406C72.7664 95.6475 73.1446 96.3283 73.3968 97.0343C73.4725 97.4882 73.296 97.7907 72.842 97.8412C71.9089 97.9672 71.0262 98.295 70.1436 98.6732C69.7905 98.8245 69.4374 98.9254 69.0591 98.9758C68.6052 99.0515 68.5043 99.2532 68.6808 99.6818C69.0591 100.64 69.0087 100.741 67.9747 100.993C67.7729 101.043 67.5712 101.094 67.3694 101.169C65.2006 102.002 63.1326 101.447 61.0646 100.766V100.69Z" fill="#12BAFE"/>
<path d="M61.0637 100.69C61.9716 100.665 62.8038 101.043 63.6865 101.219C64.897 101.472 66.0319 101.371 67.1668 100.993C67.5451 100.866 67.9234 100.766 68.3269 100.715C68.806 100.64 68.8565 100.387 68.6799 100.009C68.5791 99.8075 68.453 99.6058 68.3521 99.404C68.226 99.1015 68.3521 98.8493 68.6295 98.8493C69.6635 98.7989 70.5209 98.219 71.4793 97.9668C71.8576 97.8659 72.2358 97.7147 72.6393 97.7147C73.1185 97.7147 73.295 97.5129 73.2446 97.0591C73.5725 97.0591 73.5977 97.3617 73.749 97.5382C74.0516 97.9164 74.2282 98.3702 74.556 98.7485C74.6317 98.8493 74.6569 98.9502 74.6317 99.0763C74.6317 99.5049 74.9595 99.8579 74.9847 100.261C74.9847 100.463 75.0604 100.816 74.6569 100.564C74.2282 100.312 73.9255 100.715 73.5472 100.766C72.5889 100.866 71.7315 100.589 70.9244 100.16C70.4201 99.8831 69.8905 99.7318 69.3608 99.5301C69.2095 99.4797 69.0834 99.4293 68.9573 99.5553C68.7808 99.7318 68.9069 99.8831 69.0078 100.009C69.4869 100.69 70.0165 101.346 70.5462 101.976C71.681 103.338 72.942 104.573 73.9003 106.086C74.0012 106.262 74.2029 106.464 74.0768 106.641C73.9003 106.868 73.6481 106.666 73.522 106.565C72.6898 105.783 71.5801 105.859 70.6218 105.531C70.1426 105.355 69.6887 105.128 69.1339 105.355C68.8817 105.456 68.6799 105.128 68.4277 105.027C66.9398 104.472 65.6788 103.539 64.317 102.783C64.1657 102.707 64.0144 102.657 63.8631 102.606C63.0308 102.102 62.1986 101.598 61.3411 101.093C61.2403 100.967 61.1646 100.841 61.0637 100.74V100.69Z" fill="#09ACFE"/>
<path d="M52.4904 77.6187C52.4904 77.8961 52.4904 78.1482 52.8182 78.2995C54.5583 79.0307 56.1724 79.9889 57.8621 80.821C57.9629 80.8714 58.0638 80.8966 58.1647 80.9218C58.2656 80.9723 58.3664 81.0227 58.4169 81.1488C58.5934 81.7035 58.3917 82.233 58.3664 82.7625C58.3664 83.292 58.3664 83.7963 58.3664 84.3258C58.3664 84.9309 58.3664 85.5361 58.3664 86.1412C58.2404 86.9985 58.2151 87.881 58.089 88.7636C58.0386 89.0661 57.9882 89.3687 57.8116 89.6461C57.3577 89.9234 57.2568 89.52 57.1559 89.2678C56.5759 87.9063 55.8697 86.5951 55.2645 85.2335C54.6088 83.7711 53.8774 82.3338 53.2217 80.8714C53.0452 80.468 52.5912 80.241 52.566 79.762C52.4399 79.0559 52.2634 78.3247 52.566 77.5935L52.4904 77.6187Z" fill="#8BECFD"/>
<path d="M52.515 79.7869C54.5577 82.6866 55.6421 86.0654 57.2562 89.192C57.3571 89.3937 57.4327 89.6206 57.6597 89.7215C57.7606 89.8223 57.7606 89.9484 57.7101 90.0745C57.3823 91.1083 57.1805 92.1673 56.6509 93.1254C56.0709 93.2767 55.9952 92.7976 55.8439 92.4699C55.4656 91.6126 55.1125 90.7301 54.7847 89.8475C54.4568 88.9398 53.9777 88.1077 53.6246 87.2C53.2463 84.729 52.868 82.258 52.4897 79.7617L52.515 79.7869Z" fill="#6AD7FE"/>
<path d="M53.6492 87.2002C54.204 87.7297 54.3805 88.4609 54.6832 89.0913C55.1623 90.1251 55.4902 91.1841 55.9189 92.2431C56.0702 92.5961 56.1459 93.05 56.625 93.1004C56.3728 93.8821 56.1207 94.6385 55.8937 95.4201C55.7676 95.8236 55.5658 96.0757 55.1371 96.1262C54.6579 95.2941 54.7084 94.3611 54.5571 93.4786C54.204 91.4867 53.9266 89.4947 53.6492 87.5028C53.6492 87.4019 53.6492 87.3011 53.6492 87.2002Z" fill="#46C2FC"/>
<path d="M108.325 90.3515C107.745 91.1584 106.762 91.5618 106.207 92.3939C105.98 92.7469 106.005 93.1251 105.955 93.4781C105.829 94.4111 105.324 95.0919 104.543 95.4953C103.66 95.9492 102.752 96.3778 101.768 96.5795C100.987 96.7308 100.331 97.2603 99.5492 97.5629C98.7422 97.8655 97.9604 98.042 97.1534 97.8907C96.2707 97.7142 95.4385 97.8655 94.6062 97.9663C92.8913 98.1933 91.2269 98.6723 89.7641 99.6809C88.7301 100.387 87.5448 100.715 86.3091 100.816C86.0569 100.816 85.8804 100.967 85.6786 101.068C85.376 101.244 85.1995 101.143 85.1742 100.79C85.1238 100.387 85.1995 99.9835 85.4012 99.6305C85.603 99.2523 85.6786 98.8489 85.7291 98.4202C85.7795 98.0924 85.7291 97.7646 85.4012 97.6133C84.569 97.1847 83.8124 96.6048 82.8541 96.3778C82.4001 96.277 81.9462 96.05 81.6183 95.697C81.4166 95.4953 81.3661 95.6214 81.2653 95.7979C81.1392 96.0248 81.2653 96.4283 80.887 96.5039C80.7104 96.3526 80.6852 96.1257 80.7104 95.924C80.887 94.7389 80.7609 93.5286 80.8113 92.3183C80.8113 92.2426 80.8617 92.1922 80.9122 92.1418C81.3914 91.8392 81.8453 91.9401 82.1984 92.3435C83.4845 93.7807 85.0229 94.8902 86.41 96.2013C86.6874 96.4535 86.99 96.5795 87.3683 96.5795C87.797 96.5795 88.251 96.6552 88.6797 96.5795C90.1172 96.2518 91.6304 96.277 93.0679 95.8483C93.774 95.6466 94.5053 95.5962 95.2367 95.4953C97.2038 95.2432 99.1205 94.6884 100.961 93.9572C102.046 93.5286 103.105 93.0747 104.089 92.3939C104.719 91.9653 105.047 91.5114 104.971 90.7298C104.971 90.6037 104.971 90.4776 104.971 90.3515C105.097 89.7212 105.602 89.5699 106.131 89.4438C107.115 89.2169 107.796 88.637 108.199 87.7292C108.275 87.5275 108.325 87.2754 108.653 87.3006C108.527 88.3092 108.401 89.3177 108.275 90.3263L108.325 90.3515Z" fill="#0782E9"/>
<path d="M101.87 71.5926C103.812 73.1559 105.804 74.6688 107.847 76.106C108.25 76.4338 108.679 76.7364 109.032 77.1398C109.461 77.6441 109.713 78.1988 109.587 78.8544C109.36 79.2074 108.931 79.2074 108.603 79.3839C107.317 79.989 106.056 80.5942 104.745 81.1741C104.543 81.275 104.316 81.3758 104.089 81.3758C104.013 81.3758 103.963 81.3758 103.913 81.3254C103.332 80.3673 102.954 79.3335 102.5 78.3249C101.668 76.5094 100.861 74.6688 100.004 72.8533C99.8775 72.576 99.7766 72.3238 99.6505 72.0465C99.4992 71.6682 99.5496 71.3404 99.827 71.0631C100.004 70.8866 100.104 70.7101 100.13 70.4579C100.231 70.3571 100.357 70.3319 100.457 70.4075C100.937 70.7605 101.517 71.0379 101.845 71.5674L101.87 71.5926Z" fill="#B3EBFC"/>
<path d="M104.063 81.2996C105.904 80.4927 107.669 79.5346 109.561 78.8538C109.561 79.0807 109.561 79.3076 109.586 79.5093C109.485 80.4423 108.955 81.1987 108.552 81.9804C107.392 84.1488 106.434 86.4181 105.299 88.5866C105.173 88.8387 105.072 89.0909 104.769 89.1665C104.618 89.1665 104.517 89.0909 104.441 88.9396C104.189 87.9562 104.29 86.8972 104.038 85.9138C104.012 84.5775 103.861 83.2159 103.836 81.8795C103.836 81.6526 103.836 81.4256 104.063 81.2996Z" fill="#13A8DB"/>
<path d="M104.82 89.0912C105.324 88.1583 105.854 87.2254 106.283 86.2672C107.165 84.25 108.25 82.3337 109.208 80.367C109.334 80.0896 109.46 79.8123 109.612 79.5349C109.612 80.7452 109.309 81.9303 109.208 83.1406C109.082 84.5526 108.88 85.9394 108.729 87.3514C108.552 87.4271 108.502 87.5784 108.452 87.7549C108.073 88.7887 107.367 89.419 106.257 89.646C105.829 89.7468 105.35 89.8477 105.198 90.3772C104.769 90.2763 104.845 89.8729 104.719 89.5955C104.694 89.419 104.719 89.2677 104.82 89.1164V89.0912Z" fill="#038FF4"/>
<path d="M101.868 71.5921C101.237 71.2895 100.834 70.6844 100.178 70.4574C99.4217 70.0792 98.7408 69.6001 98.3877 68.8185C99.1947 68.1125 100.103 67.6082 101.086 67.2048C102.297 66.4988 103.507 65.7675 104.718 65.0615C104.819 65.2128 104.869 65.3893 104.844 65.5658C104.844 66.7005 104.919 67.8099 104.995 68.9446C105.096 70.2053 105.046 71.466 105.046 72.7268C105.046 72.9789 104.995 73.231 104.743 73.3823C104.087 72.9285 103.457 72.4746 102.801 72.0207C102.524 71.8442 102.297 71.5669 101.918 71.6173L101.868 71.5921Z" fill="#1CD4FE"/>
<path d="M104.694 73.3573C104.921 71.8948 104.821 70.4324 104.77 68.97C104.72 67.8353 104.594 66.6754 104.821 65.5408C105.098 67.0789 105.375 68.6169 105.628 70.155C105.88 71.5923 106.107 73.0295 106.359 74.5676C105.703 74.1894 105.174 73.7859 104.694 73.3321V73.3573Z" fill="#40D6FE"/>
<path d="M74.6327 99.051C74.6327 99.051 74.5067 98.8997 74.5067 98.7988C74.4058 98.6475 74.3049 98.471 74.2545 98.2945C74.1536 97.8659 74.4058 97.5633 74.8345 97.5381C74.9102 97.5381 75.011 97.5381 75.0867 97.5633C76.3477 97.9668 77.6086 97.765 78.8444 97.5633C79.0461 97.5381 79.2731 97.4372 79.4496 97.5129C80.0044 97.765 80.4584 97.639 80.8871 97.2607C80.8871 97.8407 80.8871 98.4458 80.8871 99.0258C80.8619 101.093 80.6854 103.136 80.761 105.203C80.5845 106.943 80.6601 108.708 80.6097 110.448C80.6097 111.028 80.4836 111.608 80.5088 112.188C80.5088 112.566 80.3323 112.642 80.0044 112.591C79.147 112.465 78.3904 112.062 77.6591 111.608C76.8016 111.053 76.0198 110.423 75.0867 109.969C74.5066 109.54 73.9014 109.137 73.3213 108.708C73.5988 108.506 73.9266 108.658 74.1536 108.733C75.0363 109.112 75.9189 109.49 76.6755 110.095C76.9781 110.347 77.3564 110.851 77.7347 110.498C77.9869 110.246 77.5077 109.843 77.2808 109.591C76.0198 108.078 74.7336 106.615 73.4727 105.128C73.4727 105.128 73.4474 105.102 73.4222 105.077C73.1953 104.699 72.7161 104.27 72.9178 103.867C73.17 103.413 73.8257 103.464 74.2797 103.514C75.0867 103.615 75.8937 103.489 76.7007 103.665C77.2303 103.791 77.1042 103.312 76.9781 103.035C76.6503 102.405 76.3224 101.774 75.9189 101.194C75.4398 100.488 75.1371 99.6813 74.5571 99.051H74.6327Z" fill="#038CEF"/>
<path d="M81.8955 98.0928C81.8199 98.2693 81.6938 98.4206 81.6433 98.5971C81.4416 99.3031 81.1894 99.4796 80.685 98.9753C80.0798 98.3702 79.3988 98.9249 78.7431 99.0005C77.457 99.1771 76.1708 99.4544 74.8846 98.9501C73.8254 98.5467 73.6993 98.7736 73.9515 100.186C73.9515 100.312 73.9515 100.463 73.9515 100.589C73.2453 99.8074 72.9932 98.5971 72.3879 97.6894C71.7322 96.2269 71.5052 94.6132 71.6061 92.9238C71.1521 91.9657 71.3287 90.9067 71.3791 89.9233C71.5304 87.4523 71.48 84.9813 71.5052 82.5354C71.5052 82.2581 71.5052 81.9807 71.5557 81.7286C71.9339 80.8209 72.287 81.5269 72.5896 81.8294C73.6741 83.0397 74.7837 84.1996 75.9438 85.2838C77.5326 86.7463 79.2727 87.8809 81.0129 89.0156C81.3407 89.2173 81.6938 89.3686 81.8451 89.8729C82.1477 91.6631 81.9964 93.4786 81.946 95.2688C81.946 95.7983 81.8703 96.353 81.8451 96.8825C81.8451 97.286 81.8451 97.7146 81.8451 98.118L81.8955 98.0928Z" fill="#016A99"/>
<path d="M98.3893 68.8183C98.8685 69.499 99.5998 69.8773 100.155 70.4572C100.356 70.6841 100.407 70.8858 100.079 71.0623C99.6503 71.2893 99.5998 71.6171 99.8016 72.0709C101.012 74.6932 102.172 77.3408 103.358 79.9631C103.559 80.3917 103.711 80.8456 103.912 81.2995C103.912 81.4003 103.837 81.476 103.736 81.5264C103.635 81.5768 103.559 81.5768 103.458 81.602C101.996 81.2995 100.785 80.6943 100.256 79.1562C100.003 78.3998 99.4737 77.8703 98.7676 77.5677C98.0363 77.2651 97.7588 76.7356 97.8345 75.9792C97.8597 75.5758 97.9606 75.1723 98.011 74.7941C98.2128 74.0377 98.2128 73.256 98.3137 72.4996C98.3641 72.197 98.2884 71.9196 98.1371 71.6675C97.8093 71.1884 97.8093 70.6589 97.9102 70.1042C97.9858 69.726 97.9606 69.3478 97.6075 69.0956C96.7501 68.5913 95.8674 68.1375 95.0352 67.608C94.3038 67.0028 93.4716 66.5742 92.6646 66.0699C91.6053 65.3639 90.5209 64.6578 89.4113 64.0275C87.8477 62.9433 86.1832 62.0103 84.5692 60.9765C84.1404 60.6992 83.7369 60.3462 83.2073 60.2201C82.0977 59.7662 81.1394 60.0688 80.1306 60.6739C78.7688 61.4808 77.3565 62.2373 75.9946 63.0441C73.5988 64.4561 71.1525 65.7925 68.7819 67.2549C68.4541 67.4567 68.1515 67.7845 67.6975 67.5827C68.0758 67.0784 68.7567 66.9776 69.135 66.4733C69.2359 66.322 69.4881 66.2212 69.3368 65.969C69.4124 65.9186 69.5133 65.8681 69.589 65.8177C70.5977 65.7673 71.2786 65.0109 72.0857 64.5318C72.1361 64.5066 71.9343 64.4309 71.9848 64.3301C72.7414 63.851 73.4727 63.3719 74.2293 62.8928C74.6076 62.3885 75.1876 62.1868 75.6668 61.8338C75.9694 61.6321 76.2468 61.4304 76.5495 61.2539C77.5078 60.7496 78.3905 60.1192 79.3236 59.5897C79.8027 59.2871 80.3071 59.035 80.8367 58.8081C81.0637 58.7072 81.442 58.682 81.3916 58.329C81.3663 57.9508 81.2907 57.5221 80.9124 57.3708C79.8027 56.917 78.7688 56.337 77.7095 55.7823C77.4069 55.631 77.0538 55.6815 76.726 55.7067C76.3981 55.7067 76.1207 55.7067 76.2468 55.2276C77.8861 53.9921 79.5505 52.8322 81.3916 51.9497C81.9464 51.9749 82.3247 52.3784 82.7534 52.6557C84.7709 53.8912 86.7128 55.2528 88.5538 56.7657C88.7051 57.1943 88.3773 57.3456 88.0999 57.4213C86.8641 57.6482 85.8301 58.3794 84.6701 58.8081C84.3926 58.9089 84.0648 58.9846 84.0144 59.3376C83.9639 59.7158 84.317 59.8167 84.544 59.9679C85.1492 60.3966 85.8049 60.7748 86.4606 61.1782C86.6876 61.3295 86.9146 61.4556 87.0659 61.7077C87.6964 62.0607 88.2764 62.565 88.9573 62.8424C89.6382 63.0189 90.1678 63.498 90.7479 63.851C93.0428 65.2378 95.2621 66.7759 97.5823 68.1375C97.8849 68.314 98.2632 68.4905 98.3893 68.8939V68.8183Z" fill="#F2FBFC"/>
<path d="M76.6499 61.3804C75.8429 61.8847 75.0611 62.389 74.2541 62.8681C74.2541 62.5403 74.0019 62.5655 73.7749 62.4898C72.4887 62.1368 71.1773 61.8343 69.9416 61.33C68.9833 60.9517 69.0085 60.8761 69.6138 60.1197C70.0677 59.7919 70.5216 59.4389 71.0008 59.1111C72.6905 59.691 74.3802 60.2205 76.0951 60.6744C76.4482 60.7752 76.9021 60.7752 76.6751 61.3804H76.6499Z" fill="#92E3FD"/>
<path d="M72.0092 64.3054C72.1101 64.4819 72.2614 64.3054 72.4379 64.3558C71.6813 65.0366 70.8743 65.5914 69.9412 65.9444C69.7395 66.02 69.6134 66.0452 69.5881 65.7931C70.3952 65.2888 71.1769 64.8097 71.984 64.3054H72.0092Z" fill="#FBFDFD"/>
<path d="M58.3159 81.0478C58.3159 81.0478 58.215 80.947 58.1646 80.9217C58.3663 80.8713 58.6185 80.9974 58.795 80.7957C58.9968 80.6192 59.2238 80.4679 59.4255 80.2914C59.8542 80.014 60.1317 79.5349 60.6613 79.3332C61.5187 79.0054 62.4266 79.1315 63.3093 79.0811C63.5362 79.0811 63.738 79.2324 63.9145 79.3584C65.0242 80.1401 65.7808 80.0392 66.613 78.9802C66.6634 78.9802 66.7391 79.0054 66.7643 79.0811C67.0669 80.0392 67.3191 80.9974 67.2939 82.0312C67.1678 82.2329 66.9913 82.3085 66.7643 82.3338C65.7303 82.3842 64.7468 82.6868 63.738 82.8885C62.477 83.1406 61.317 82.9137 60.2073 82.3338C59.5264 81.9808 58.8203 81.6782 58.2906 81.073L58.3159 81.0478Z" fill="#C2F1FC"/>
<path d="M67.7219 67.5578C69.0081 67.0787 70.1177 66.1962 71.303 65.5406C74.1024 64.0026 76.826 62.2628 79.6506 60.7499C80.0541 60.5229 80.4324 60.296 80.8359 60.0439C81.6681 59.5144 82.5004 59.8422 83.3074 60.0187C83.4587 60.2708 83.5344 60.5482 83.5596 60.8507C83.7109 61.9854 83.8874 63.12 83.8622 64.2799C83.9126 65.0616 83.4839 65.465 82.8282 65.818C81.4412 66.5744 80.0037 67.2552 78.6166 68.0369C77.9861 68.3899 77.3052 68.6925 76.6495 69.0203C75.1868 69.7515 73.7241 70.4575 72.337 71.3148C71.6057 71.7686 70.7986 72.0964 70.1177 72.6259C69.462 73.1302 68.8315 72.9789 68.2011 72.6259C67.7471 72.399 67.4193 71.9956 67.0914 71.6174C66.587 71.0626 66.0322 70.8105 65.3009 71.2139C65.2 71.2644 65.0739 71.3148 64.9478 71.2139C64.6704 70.7853 64.6956 70.2558 64.5695 69.7767C64.4938 69.4489 64.6956 69.2976 64.973 69.1715C65.9313 68.7177 66.814 68.1377 67.6967 67.5578H67.7219Z" fill="#DCF7FD"/>
<path d="M67.2186 82.0312C67.0673 81.0227 66.9412 79.9889 66.6134 79.0055C66.2099 78.4256 66.1847 77.7195 66.1342 77.0388C66.1342 76.9379 66.1847 76.837 66.109 76.7614C65.9325 76.2571 65.9829 75.7276 65.8568 75.2233C65.7307 74.3912 65.8064 74.2652 66.5377 74.013C66.9665 73.8869 67.3195 73.6348 67.723 73.4583C68.2274 73.2566 68.7318 73.1809 69.211 73.5339C70.1441 74.2904 70.825 75.2737 71.6068 76.1815C72.0103 76.6858 72.4138 77.19 72.8678 77.6691C73.3721 78.1986 73.7252 78.3247 74.3557 77.9969C74.9105 77.7195 75.4653 77.4422 76.0202 77.1144C77.3063 76.3075 78.643 75.6772 80.03 75.072C80.4587 74.8955 80.7362 74.4669 81.2153 74.4417C81.2658 74.4921 81.291 74.5425 81.291 74.6182C81.1901 75.425 80.7866 76.131 80.5596 76.8875C80.4083 77.19 80.3579 77.5683 80.1309 77.8456C79.9291 78.0726 79.7274 78.2743 79.4248 78.3499C78.3403 78.7029 77.382 79.3081 76.4237 79.9132C76.2219 80.0393 76.0202 80.1401 75.8184 80.241C75.087 80.5436 74.8096 80.4931 74.2548 79.9384C74.0278 79.7115 73.8513 79.4594 73.6495 79.2324C73.246 78.7786 72.8678 78.7029 72.3886 79.0055C71.1276 79.7871 69.8162 80.4931 68.3535 80.8209C67.9752 80.8966 67.723 81.1235 67.6474 81.5269C67.5969 81.7539 67.6221 82.0565 67.2439 82.0565L67.2186 82.0312Z" fill="#7FE3FD"/>
<path d="M66.083 76.7613C66.3856 77.4673 66.4361 78.249 66.5874 79.0054C66.6378 79.4593 66.4108 79.7366 66.0073 79.8375C65.2508 80.0392 64.5194 80.2661 63.8889 79.5349C63.6367 79.2323 63.2584 79.1567 62.8045 79.2323C62.0731 79.3332 61.3166 79.2323 60.5852 79.4845C60.106 79.661 59.9043 80.1653 59.3999 80.2661C60.2574 79.4088 60.8878 78.375 61.594 77.3917C62.0479 76.7613 62.9558 76.6604 63.5611 77.1647C64.2168 77.7195 64.9986 77.4673 65.7299 77.4169C66.0073 77.4169 65.9821 76.9882 66.083 76.7361V76.7613Z" fill="#E2FDFE"/>
<path d="M69.2362 73.7359C68.5553 73.282 67.9248 73.5089 67.3196 73.8619C67.0926 73.988 66.8909 74.1393 66.6639 74.1645C66.0082 74.2402 65.7812 74.6184 65.8316 75.2235C65.4281 73.9124 65.2012 72.5508 64.949 71.1892C66.1595 70.5841 66.3108 70.6093 67.2691 71.5674C67.5718 71.87 67.8996 72.1726 68.2275 72.4499C68.631 72.8281 69.1354 73.1055 69.2362 73.7107V73.7359Z" fill="#ACEAFD"/>
<path d="M98.3888 68.8181C95.3625 66.9018 92.3614 64.9855 89.3351 63.0944C89.1838 62.9936 89.0324 62.9432 88.9568 62.7919C89.0072 62.4893 89.1838 62.338 89.4864 62.2624C90.7474 62.0102 92.0083 61.7329 93.1936 61.1529C93.698 60.9008 94.1267 61.0773 94.5302 61.3546C95.8164 62.2624 97.0269 63.2962 98.2627 64.2795C99.0949 64.9351 99.9524 65.6411 100.659 66.4732C100.86 66.7001 100.911 66.9523 101.037 67.1792C100.205 67.8096 99.2715 68.2634 98.3888 68.7929V68.8181Z" fill="#99E8FD"/>
<path d="M87.0906 61.6328C86.1071 61.0025 85.1235 60.3973 84.14 59.767C83.6608 59.4644 83.686 59.0105 84.2156 58.8088C85.5018 58.3045 86.6619 57.4976 88.049 57.2455C88.3516 57.1951 88.5534 57.0438 88.5786 56.7412C89.4108 57.1446 90.0413 57.8254 90.7726 58.3802C91.0501 58.5819 91.3023 58.7836 91.5292 59.0357C91.8571 59.3887 91.7814 59.6913 91.3275 59.8426C90.1169 60.246 88.8812 60.6495 87.6455 61.0529C87.3176 61.1538 86.9645 61.2042 87.0654 61.6833L87.0906 61.6328Z" fill="#C9F1FC"/>
<path d="M76.2462 55.1775C76.2966 55.4296 76.3723 55.5809 76.7001 55.5053C77.3054 55.354 77.835 55.5305 78.3394 55.8835C79.096 56.3878 79.9282 56.7912 80.8109 57.0938C81.1892 57.2199 81.744 58.1276 81.6431 58.4806C81.5927 58.6823 81.4414 58.8084 81.2396 58.8336C80.5587 58.9849 79.9786 59.3883 79.3986 59.7161C78.8186 59.2118 78.062 59.0353 77.3811 58.758C76.2462 58.3041 75.1618 57.7494 73.9008 57.5981C73.6738 57.5729 73.4216 57.5224 73.4721 57.1947C74.3548 56.4634 75.2626 55.7826 76.2462 55.1775Z" fill="#DCF7FD"/>
<path d="M73.4969 57.22C73.4969 57.22 73.6483 57.4469 73.7744 57.4721C75.3884 57.5982 76.7754 58.4303 78.2382 58.985C78.4904 59.0858 78.7425 59.1615 78.9947 59.2624C79.2217 59.3632 79.3982 59.4893 79.3982 59.7666C78.4651 60.3214 77.5572 60.8509 76.6241 61.4056C76.6241 61.1787 76.6241 60.9769 76.3467 60.9265C74.8588 60.6996 73.4969 60.044 72.0595 59.691C71.6559 59.5901 71.1516 59.7414 71.0002 59.1615C71.782 58.4555 72.6395 57.8503 73.4969 57.2704V57.22Z" fill="#B7EDFD"/>
<path d="M72.7661 87.0494C72.8417 89.4196 72.64 91.7897 72.64 94.1347C71.5555 93.6304 70.6224 94.1599 69.6893 94.6138C69.0336 94.9164 68.3779 95.2441 67.697 95.5467C67.4448 95.6728 67.1926 95.8241 67.1422 96.1014C66.9152 97.2361 65.9821 97.463 65.1246 97.5135C63.4349 97.5891 61.6948 97.7152 60.0808 96.9335C59.1981 96.5049 58.4415 95.9502 57.7606 95.2694C57.5084 95.0172 57.5589 94.7651 57.7606 94.4877C58.0128 94.1347 57.8867 92.9496 57.6345 92.647C57.5084 92.4958 57.3823 92.521 57.2562 92.647C57.0797 92.8235 56.878 92.9748 56.7014 93.1513C56.9032 91.9915 57.4076 90.882 57.685 89.7474C58.038 88.6127 58.0128 87.4024 58.2146 86.2173C58.4415 85.9652 58.6685 85.7887 59.0216 85.9904C59.7529 86.3938 60.5347 86.4695 61.3418 86.2678C62.0731 86.0913 62.7288 86.1921 63.2332 86.7721C63.8132 87.3772 64.4437 87.3772 65.1751 87.0746C66.0577 86.6964 66.89 86.1921 67.6718 85.6374C67.924 85.4609 68.2014 85.2844 68.4788 85.1583C69.311 84.7297 70.0676 84.8053 70.8242 85.4105C71.2529 85.7635 71.7321 86.0913 72.2869 86.2678C72.5391 86.3434 72.6904 86.5451 72.7661 86.7973C72.8165 86.8729 72.8417 86.9738 72.8417 87.0746L72.7661 87.0494Z" fill="#26D2FE"/>
<path d="M67.2178 82.031C67.2178 82.031 67.3692 81.8545 67.3692 81.7789C67.3944 80.8712 68.0501 80.6695 68.7814 80.5182C70.0172 80.2408 71.1016 79.6104 72.1608 78.9296C72.8165 78.501 73.3209 78.5262 73.8001 79.1314C74.9601 80.5686 74.9854 80.5686 76.549 79.6609C77.4568 79.1314 78.3647 78.5262 79.3987 78.2236C79.6509 78.148 79.8527 77.9211 80.0796 77.7698C80.2562 77.9967 80.1049 78.1984 80.0796 78.4001C79.9788 78.6523 79.9031 78.9296 79.8275 79.207C79.777 79.3583 79.7014 79.4844 79.6761 79.6104C79.3735 81.2998 78.1125 81.7789 76.6498 82.031C76.2211 82.1067 75.9185 81.9302 75.6411 81.6528C75.1115 81.1485 74.9601 81.1233 74.3297 81.5015C73.8253 81.8041 73.2957 82.0563 72.7661 82.3084C72.3626 82.4849 72.3878 82.6866 72.6904 82.9388C72.8669 83.09 73.0687 83.1909 73.2452 83.3422C73.6487 83.67 73.674 84.0734 73.2452 84.3256C71.6816 85.2081 70.3955 85.5863 68.9327 84.2751C68.4031 83.7961 67.9996 83.7456 67.3944 84.1238C66.663 84.5525 65.9064 84.9055 65.1751 85.3089C63.8385 86.0654 62.4514 85.9897 61.3922 84.6029C60.8878 83.9473 60.3834 83.1909 59.526 82.8883C58.9459 82.6614 58.8198 82.7118 58.6181 83.317C58.5424 83.4935 58.5676 83.6952 58.5172 83.8717C58.492 84.0482 58.5676 84.3256 58.2398 84.3508C58.1641 83.2666 58.3155 82.1823 58.3659 81.0981C58.7946 81.2998 59.2233 81.5015 59.6269 81.7789C61.0896 82.7875 62.6784 83.1153 64.3933 82.611C65.3264 82.3336 66.3099 82.2832 67.2683 82.0815L67.2178 82.031Z" fill="#53DCFD"/>
<path d="M58.1898 84.3262C58.4167 83.8471 58.2654 83.2672 58.5681 82.7881C58.7446 82.4855 58.8707 82.4603 59.1985 82.5612C60.2577 82.8637 60.9134 83.721 61.4935 84.5027C62.477 85.8391 63.8137 85.8391 65.0998 85.133C65.8816 84.7044 66.6634 84.2505 67.4704 83.8471C68.0001 83.5697 68.5044 83.6454 68.9584 84.074C70.1689 85.2087 72.0351 85.2339 73.2457 84.1245C73.4726 83.9227 73.4726 83.6958 73.1952 83.5193C72.9178 83.3428 72.6152 83.1663 72.363 82.9394C72.0603 82.6872 72.0099 82.3847 72.4386 82.2334C73.1196 81.9812 73.7753 81.6282 74.4057 81.25C74.8849 80.9726 75.2884 80.9222 75.6415 81.4517C75.9693 81.956 76.4233 82.0317 76.9529 81.7795C77.6086 81.4769 78.5165 81.6282 78.92 80.8466C79.2226 80.2918 79.4244 79.7119 79.6766 79.1572C79.954 78.5773 80.4331 78.2999 81.0636 78.199C81.568 78.1234 82.0472 77.9973 82.5515 77.9217C83.1064 77.8208 83.2829 77.9973 83.3333 78.6025C83.0812 79.1824 83.0811 79.8632 82.6776 80.3675C82.1985 80.7457 81.6184 80.7457 81.0636 80.6953C79.8531 80.544 79.0965 81.0735 78.7434 82.2082C78.6426 82.5612 78.4913 82.9142 78.2895 83.242C77.9869 83.7462 77.659 83.7967 77.2051 83.4437C76.9277 83.242 76.7007 82.8385 76.3224 82.9142C75.7424 83.0402 75.238 83.368 74.7336 83.6706C74.5066 83.7967 74.6075 83.9984 74.7588 84.1497C75.011 84.3766 75.2884 84.5531 75.5406 84.78C76.1711 85.36 76.0954 85.9147 75.3136 86.3181C75.0362 86.4694 74.7084 86.4694 74.4562 86.5198C74.6327 86.5198 74.8345 86.419 75.0614 86.4694C75.2128 86.5198 75.4397 86.5451 75.2127 86.7972C74.3805 87.0241 73.5231 86.7972 72.6908 86.9485C72.4891 86.5703 72.1864 86.3938 71.7829 86.2425C71.4046 86.1164 71.0516 85.8391 70.7489 85.5617C69.7402 84.654 69.034 84.9061 67.874 85.6625C66.9661 86.2677 66.0834 86.8729 65.0494 87.2763C64.3685 87.5284 63.7632 87.6545 63.2336 86.9989C62.5527 86.1668 61.6448 86.2929 60.7621 86.5198C60.1569 86.6711 59.5516 86.5198 59.0977 86.2425C58.7194 86.0156 58.4672 86.0912 58.1646 86.2425C58.1646 85.6121 58.1646 84.9818 58.1646 84.3514L58.1898 84.3262Z" fill="#33D6FE"/>
<path d="M104.82 89.5958C104.946 89.848 105.072 90.1001 105.198 90.3523C105.4 91.4869 104.921 92.1929 103.937 92.7981C102.096 93.8823 100.104 94.5631 98.061 95.143C96.5983 95.5465 95.1104 95.6221 93.6477 95.9499C92.2102 96.3029 90.7222 96.3281 89.2847 96.7063C88.5282 96.908 87.7464 96.7568 86.9646 96.782C86.7628 96.782 86.6367 96.6307 86.4854 96.5046C85.3253 95.496 84.14 94.4874 83.0052 93.4536C82.7277 93.2015 82.4756 92.9241 82.2486 92.6216C81.9207 92.1929 81.5424 91.9912 81.0128 92.2181C80.912 92.0921 80.8615 91.966 80.8867 91.8147C81.0633 91.0583 80.8363 90.327 80.7102 89.621C81.0128 89.2176 81.5929 89.142 81.8703 88.7385C82.2234 88.4612 82.6016 88.209 83.0304 88.0577C84.367 87.5282 85.754 87.503 87.1663 87.5534C87.9986 87.6039 88.856 87.6795 89.6126 88.1082C89.7387 88.4864 89.4108 88.5872 89.2091 88.7133C88.2255 89.3941 87.1663 89.974 86.0819 90.5288C85.7288 90.68 85.401 90.8313 85.0731 91.0078C84.6948 91.2095 84.594 91.4617 84.8462 91.8147C85.4262 92.6468 85.981 93.4789 86.7376 94.1597C87.1915 94.5631 87.3429 94.5883 87.7212 94.1344C88.2255 93.5293 88.856 93.1763 89.663 93.1511C91.3527 93.1511 93.0424 92.9746 94.7069 92.7224C95.9174 92.5207 97.1531 92.5207 98.3384 92.0416C98.9437 91.8147 99.5742 91.8651 100.179 92.0668C100.709 92.2686 101.213 92.1677 101.667 91.8399C102.071 91.5373 102.525 91.3104 102.979 91.1087C103.71 90.7809 104.366 90.3523 104.795 89.621L104.82 89.5958Z" fill="#118EEE"/>
<path d="M104.996 79.3332C104.996 79.3332 105.148 79.1567 105.223 79.0811C105.299 79.0811 105.4 79.1063 105.475 79.1315C105.475 80.6444 105.349 82.1824 105.526 83.6701C105.728 85.1578 105.652 86.6454 105.702 88.1331C105.551 88.8643 105.097 89.3686 104.441 89.6207C102.247 90.5033 100.482 92.1926 98.3383 93.1508C97.6322 93.4786 96.9261 93.8568 96.1695 94.0585C95.539 94.235 95.0851 94.0585 94.959 93.3273C94.9337 92.8986 95.1607 92.5708 95.3877 92.2431C98.1366 88.4861 100.885 84.7291 103.533 80.8965C103.937 80.3166 104.366 79.7114 104.971 79.3332H104.996Z" fill="#3DB4F7"/>
<path d="M104.82 89.5959C104.82 90.3523 104.189 90.6045 103.71 90.9071C102.979 91.3357 102.222 91.6635 101.516 92.1426C101.188 92.3695 100.86 92.4704 100.457 92.2939C99.2966 91.7644 98.2374 92.3443 97.1277 92.5208C95.5893 92.7729 94.051 92.9747 92.5126 93.1512C91.4282 93.2772 90.3185 93.1512 89.2341 93.3277C88.6793 93.4033 88.2001 93.7563 87.8723 94.2606C87.4687 94.8658 87.2922 94.8405 86.7374 94.3615C85.9052 93.6302 85.2999 92.6973 84.6442 91.7896C84.392 91.4114 84.4424 91.1844 84.7955 90.9827C85.2242 90.7558 85.653 90.5793 86.0817 90.3776C86.0817 91.5122 87.04 92.1174 87.5948 92.9494C87.7209 93.1512 87.9227 93.0755 88.0488 92.899C88.2505 92.6217 88.3766 92.3191 88.5027 92.0165C89.0071 90.7558 89.4106 89.4698 89.8394 88.1839C90.2681 87.7048 90.5959 87.0997 91.2769 86.8979C91.3525 86.8979 91.3777 86.9484 91.4029 87.024C91.3525 87.3518 91.0751 87.5535 90.8986 87.7805C90.5707 88.1839 90.6464 88.4865 91.0247 88.789C91.6299 89.2681 92.3613 89.369 93.0926 89.4194C94.2023 89.495 95.2867 89.722 96.3711 89.8733C96.6738 89.9237 96.9764 90.0246 97.2286 90.2263C97.6825 90.6045 98.2374 90.8314 98.767 91.0584C99.1957 91.2601 99.6496 91.1844 100.104 91.0584C101.138 90.7558 102.045 90.2011 102.953 89.6463C103.458 89.3438 103.962 88.9655 104.593 88.9403C104.643 89.0412 104.744 89.0664 104.845 89.0664C104.845 89.2429 104.845 89.3942 104.845 89.5707L104.82 89.5959Z" fill="#1295F3"/>
<path d="M98.516 88.5874C97.9864 89.117 97.4568 89.6465 97.1289 90.3525C96.221 89.8986 95.2122 89.8986 94.2287 89.7221C93.2956 89.5456 92.312 89.6465 91.4294 89.2682C91.3033 89.2178 91.1519 89.1674 91.0259 89.0917C90.2441 88.5118 90.2188 88.2597 90.8493 87.5284C91.0006 87.3267 91.1772 87.1502 91.3537 86.9737C91.6311 86.3181 92.2364 85.9903 92.7408 85.5617C94.0269 84.5027 95.2627 83.368 96.4732 82.2334C97.2802 82.309 98.062 82.6872 98.8943 82.6368C100.231 82.7629 101.492 82.5107 102.601 81.7795C102.879 81.5778 103.232 81.5778 103.535 81.4265C103.61 81.4265 103.711 81.4265 103.787 81.4265C102.274 83.4941 100.735 85.5365 99.2221 87.6041C98.9699 87.9319 98.6168 88.184 98.516 88.6127V88.5874Z" fill="#1AA7FC"/>
<path d="M81.1903 74.6181C81.1903 74.6181 81.1903 74.5424 81.1903 74.492C81.0642 74.2651 81.1903 74.0382 81.2912 73.8364C81.5938 73.1304 81.7199 72.3488 82.0982 71.668C82.527 71.1133 83.107 70.8611 83.7627 70.6342C85.0237 70.2055 86.1837 69.4995 87.3438 68.844C87.9743 68.5162 88.5796 68.1127 89.2101 67.7849C89.891 67.4067 90.5215 66.9781 91.1015 66.4486C91.5554 66.0199 92.0598 65.5913 92.766 65.9191C93.573 66.3729 94.4304 66.8016 95.1366 67.4319C94.4052 67.4824 93.9261 67.8858 93.3964 68.3397C92.4381 69.1465 91.2528 69.6256 90.1432 70.2055C88.2013 71.2393 86.3098 72.3488 84.3932 73.3826C83.8131 73.6852 83.2331 73.9625 82.5774 74.0634C82.073 74.139 81.7452 74.6181 81.2156 74.6181H81.1903Z" fill="#68E3FE"/>
<path d="M98.1622 74.744C98.1117 75.1726 98.0865 75.576 98.0361 76.0047C97.8091 76.3073 98.2126 76.7611 97.8091 77.0385C97.456 76.4586 97.6326 75.7778 97.3552 75.2483C97.1534 76.0551 97.1282 76.9628 96.8003 77.8201C96.5734 78.0471 96.3464 78.2488 96.0185 78.3244C94.0262 78.8287 92.2357 79.8625 90.3442 80.6442C89.2093 81.1233 88.0745 81.5771 87.0909 82.384C87.0153 82.4344 86.9396 82.4596 86.864 82.4344C86.6118 82.1066 86.9144 81.9049 87.0657 81.678C87.6205 80.8459 88.2258 80.0642 88.7554 79.2069C89.4363 78.2992 89.9911 77.3159 90.7477 76.4838C91.5295 76.0047 92.387 75.6769 93.2696 75.4248C94.3541 75.1222 95.3628 74.6431 96.4725 74.391C96.876 74.2901 97.1282 74.0127 97.1534 73.5841C97.2291 72.8277 97.456 72.1217 97.4813 71.3652C97.5317 71.0879 97.5569 70.7853 97.8091 70.5583C98.0613 70.7853 98.0109 71.1383 97.9856 71.3652C97.8848 72.4242 98.2378 73.4076 98.1874 74.4666C98.1874 74.5675 98.1874 74.6683 98.137 74.7692L98.1622 74.744Z" fill="#93DBFE"/>
<path d="M92.7401 65.9193C92.16 65.8437 91.6557 66.0706 91.2774 66.474C90.6721 67.1296 89.9155 67.5583 89.1589 68.0121C87.5954 68.9451 85.9813 69.7519 84.3925 70.6345C84.2916 70.6849 84.1655 70.7353 84.0394 70.7605C83.3333 70.8866 82.7028 71.2144 82.1984 71.7439C81.9967 71.4161 82.2489 71.1135 82.2993 70.811C82.6776 69.7772 82.9802 68.7181 83.3333 67.6843C83.7116 66.9531 84.3169 66.4993 85.1239 66.2471C85.8048 66.0202 86.4605 65.6924 87.1414 65.3898C87.6206 65.1881 87.9736 64.8603 88.2511 64.4317C88.5285 64.003 88.8815 63.6248 89.4868 63.9022C90.6217 64.4821 91.7061 65.1629 92.7401 65.9193Z" fill="#81E8FE"/>
<path d="M81.1889 74.6181C81.7438 74.1642 82.3995 73.9625 83.1056 73.7608C84.0639 73.4834 84.9214 72.9539 85.8041 72.4496C87.6451 71.4158 89.5365 70.4324 91.3775 69.3734C92.2854 68.8691 93.2437 68.4909 93.9247 67.6084C94.2273 67.205 94.7065 67.331 95.1352 67.4319C95.9674 67.8858 96.7997 68.3648 97.6319 68.8187C97.6319 69.1717 97.4049 69.1465 97.1527 69.0961C96.4214 68.5413 96.0179 68.5666 95.3369 69.1969C94.883 69.6256 94.4038 70.029 93.8238 70.1803C92.4872 70.5333 91.4532 71.3906 90.2679 72.021C89.0321 72.6765 87.872 73.4834 86.5859 74.0381C86.0815 74.2651 85.6275 74.5676 85.1988 74.8954C84.2405 75.6014 83.2065 76.1561 82.0212 76.3579C81.4664 76.4587 80.9872 76.7865 80.4324 76.8622C80.6846 76.1057 80.9368 75.3493 81.1889 74.5928V74.6181Z" fill="#52DFFE"/>
<path d="M89.4862 63.9018C88.9818 63.9018 88.5531 64.0783 88.3513 64.5322C88.0739 65.1374 87.5443 65.3643 87.0399 65.6164C86.5103 65.8686 85.9807 66.1207 85.4259 66.2972C84.5937 66.5494 83.9128 66.9528 83.4588 67.684C83.2571 67.4571 83.3327 67.2049 83.4084 66.978C83.5849 66.3224 83.4588 65.5912 83.7614 64.9609C83.8371 64.8096 83.8371 64.5826 83.711 64.4313C83.711 63.1706 83.5849 61.9099 83.3579 60.6492C83.3327 60.4474 83.3579 60.2457 83.3579 60.0188C85.3502 61.2291 87.3426 62.4394 89.3097 63.6749C89.3853 63.7253 89.461 63.8262 89.5114 63.9018H89.4862Z" fill="#9BECFD"/>
<path d="M97.7844 77.013C98.0618 76.7356 97.734 76.2818 98.0366 76.0044C97.9357 76.7104 98.2383 77.1391 98.894 77.3912C99.7011 77.719 100.231 78.3493 100.508 79.1814C100.71 79.8622 101.139 80.3665 101.719 80.6943C102.299 81.0221 102.879 81.3499 103.56 81.4003C102.147 82.3333 100.685 83.014 98.9193 82.7619C98.2131 82.4845 97.6079 82.0055 96.9269 81.7029C96.7 81.602 96.5234 81.4003 96.5234 81.123C96.6748 80.4926 96.9774 79.9127 97.1539 79.2823C97.3052 78.7528 97.4313 78.1981 97.507 77.6433C97.5574 77.3912 97.5826 77.1391 97.7844 76.9625V77.013Z" fill="#B9EDFD"/>
<path d="M97.1531 69.0455C97.3548 69.0455 97.5061 68.9951 97.607 68.8186C98.1871 69.0455 98.2375 69.4994 98.1114 70.0037C97.9853 70.5584 97.9853 71.0375 98.3132 71.5418C98.8175 72.2982 98.3636 73.1303 98.3384 73.9119C98.3384 74.1641 98.3888 74.4919 98.1618 74.744C98.1618 74.4162 98.1366 74.0884 98.0357 73.7607C97.7583 72.7521 97.8088 71.7435 97.834 70.7097C97.7835 70.9618 97.7079 71.214 97.6575 71.4661C97.5566 71.6426 97.4305 71.7687 97.2287 71.8191C95.9425 72.1721 94.7572 72.7016 93.6476 73.4329C93.345 73.6346 93.0171 73.685 93.118 73.1051C93.7737 71.8948 94.5303 70.7349 95.539 69.802C95.993 69.3985 96.4974 69.0455 97.1531 69.0707V69.0455Z" fill="#CFEFFD"/>
<path d="M83.6865 64.4058C83.9891 65.1622 83.6109 65.8934 83.6109 66.6499C83.6109 67.0029 83.4848 67.3307 83.4343 67.6837C83.1569 68.7427 82.8038 69.8017 82.4256 70.8355C82.1986 71.2389 81.8707 71.4658 81.4672 71.6928C79.7271 72.5753 77.9617 73.4578 76.2216 74.3403C75.0111 74.9707 73.8258 75.6262 72.6405 76.2818C72.2622 76.4835 71.8587 76.6096 71.4804 76.2818C70.7238 75.4497 69.9673 74.5924 69.2107 73.7604C68.908 73.3065 68.4541 73.0039 68.2019 72.4996C69.0846 73.0291 69.7403 72.6509 70.5725 72.1718C71.8083 71.4154 73.0692 70.6842 74.3806 70.0286C76.1964 69.0957 78.0626 68.2636 79.828 67.2298C80.8115 66.6499 81.8203 66.1204 82.8543 65.6161C83.3839 65.3639 83.7117 65.0613 83.6613 64.431L83.6865 64.4058Z" fill="#BBF1FD"/>
<path d="M97.1539 69.0455C95.1364 69.7011 94.3042 71.5166 93.245 73.0799C92.9171 73.685 92.6649 74.3406 92.0344 74.6936C90.95 74.5927 89.8908 74.4667 88.8064 74.5171C87.0158 74.618 85.5783 75.3492 84.4434 76.7612C84.3173 76.9125 84.2165 77.1142 83.9895 77.1646C83.8382 77.1646 83.6616 77.0638 83.5103 77.1394C82.4511 77.7446 81.1145 77.5428 80.1562 78.3749C80.0805 78.4254 80.0049 78.4254 79.9292 78.3749C79.9796 78.1732 80.0049 77.9463 80.0553 77.7446C80.1814 77.442 80.3075 77.1646 80.4336 76.862C80.7867 76.5847 81.1397 76.3325 81.5937 76.2821C83.2581 76.0804 84.5695 75.1222 85.9062 74.2397C86.1836 74.0632 86.4862 73.9119 86.7888 73.7607C88.6803 72.8529 90.4708 71.7435 92.2866 70.6593C92.5893 70.4828 92.9171 70.3315 93.2702 70.2306C94.1276 70.0037 94.8338 69.575 95.4138 68.9195C95.9182 68.3647 96.8513 68.4404 97.2044 69.0707L97.1539 69.0455Z" fill="#3FDBFE"/>
<path d="M71.4801 76.2573C72.3375 76.5347 72.9428 75.9043 73.5733 75.5513C75.5151 74.4923 77.4822 73.5341 79.4493 72.5256C80.4581 71.9961 81.5677 71.643 82.4 70.8362C82.3243 71.1388 82.2234 71.4161 82.1478 71.7187C81.8199 72.6516 81.4669 73.5594 81.139 74.4923C80.6851 74.9714 80.0546 75.1731 79.4746 75.4504C77.7849 76.2573 76.1456 77.165 74.5316 78.098C73.7498 78.5518 73.2958 78.451 72.6906 77.7954C72.2618 77.2911 71.7575 76.8372 71.4548 76.2573H71.4801Z" fill="#99ECFE"/>
<path d="M79.929 78.4004C80.4838 77.8205 81.1648 77.5935 81.9466 77.5179C82.4762 77.4422 82.9553 77.2657 83.4093 77.0136C83.6615 76.8623 83.8884 76.8119 83.9641 77.1901C83.9641 77.7196 83.5858 78.4508 83.1823 78.6525C83.1823 78.1482 82.9805 77.997 82.4762 78.123C82.1483 78.2239 81.7952 78.2743 81.4422 78.2995C80.736 78.3752 80.1308 78.6525 79.6516 79.1568C79.6516 78.8795 79.7273 78.6273 79.9038 78.4004H79.929Z" fill="#37D7FE"/>
<path d="M80.7608 89.4699C79.298 87.9823 77.5327 87.1502 75.4899 86.8224C75.4143 86.8224 75.3386 86.7467 75.263 86.7215C75.1117 86.5198 74.8847 86.5955 74.6829 86.5955C74.5064 86.5955 74.3299 86.5955 74.1533 86.545C74.582 86.4442 75.0108 86.3181 75.3638 86.0912C75.9187 85.7634 75.9691 85.4356 75.5152 85.0069C75.2377 84.7296 74.8847 84.5279 74.582 84.2757C74.1785 83.9479 74.2038 83.6706 74.6829 83.4436C75.036 83.2671 75.4395 83.1663 75.7421 82.9393C76.2465 82.5863 76.5996 82.6872 77.0031 83.0906C77.7345 83.7966 77.8605 83.7714 78.2893 82.8133C78.4658 82.4351 78.6171 82.0568 78.7937 81.6534C79.1467 80.7961 79.525 80.544 80.4581 80.5187C81.1643 80.5187 81.9208 80.6448 82.6018 80.2666C82.8287 80.4935 82.7531 80.7709 82.7026 81.0483C82.4 82.5107 82.2235 83.9731 82.0974 85.4608C81.9208 86.1164 82.0722 86.772 82.0217 87.4275C81.9965 87.9066 82.0722 88.3857 81.9461 88.8396C81.6182 89.1673 81.3408 89.596 80.786 89.4447L80.7608 89.4699Z" fill="#1DCEFE"/>
<path d="M81.9206 85.4352C81.9206 83.9728 82.198 82.5608 82.4754 81.1487C82.5259 80.8462 82.5763 80.5688 82.5763 80.2662C82.9546 79.7619 82.8537 79.1064 83.1816 78.6021C83.4337 78.123 83.6859 77.6439 83.9634 77.1396C84.9217 75.5763 86.3592 74.6686 88.1245 74.3912C89.4611 74.1643 90.7978 74.3156 92.1092 74.5677C92.21 74.6686 92.21 74.8199 92.1092 74.9207C91.63 75.4755 91.3274 76.1563 90.7221 76.6101C90.1168 77.4926 89.5368 78.4256 88.8307 79.2577C88.3011 80.1402 87.2923 80.1654 86.4853 80.594C85.5774 81.0983 84.6191 81.527 83.7868 82.1573C83.0807 82.6868 82.7781 83.4181 82.7024 84.2754C82.652 84.8049 82.6015 85.3596 82.3745 85.8639C82.2989 86.0656 82.2232 86.3682 81.9458 86.2925C81.7441 86.2421 81.8702 85.9647 81.8449 85.7882C81.8449 85.6622 81.8197 85.5361 81.8954 85.4352H81.9206Z" fill="#E4F7FD"/>
<path d="M96.6231 81.1485C96.6736 81.552 97.0771 81.6024 97.3293 81.7537C97.8589 82.0815 98.4893 82.2832 98.8928 82.7875C98.0102 82.8379 97.2032 82.4849 96.3709 82.3084C95.6648 82.7623 95.1352 83.4178 94.5047 83.9473C94.2525 84.1491 94.076 84.4769 93.6977 84.5021C91.781 84.729 89.9905 85.2837 88.4269 86.494C87.872 86.9227 87.3172 87.3765 86.712 87.5026C86.8381 87.427 87.0398 87.3513 87.1659 87.6791C85.7032 87.6035 84.2909 87.7547 82.8786 88.2086C82.7021 87.9817 82.8786 87.8052 82.9795 87.6539C84.0387 85.9393 85.2492 84.3256 86.3589 82.6614C86.4598 82.5353 86.5606 82.384 86.7624 82.4345C87.8973 81.4007 89.3348 80.9216 90.6966 80.2912C92.0332 79.6609 93.3951 79.1061 94.7569 78.501C95.3622 78.2236 96.0935 78.3245 96.5727 77.7698C96.6736 77.8706 96.6988 77.9715 96.724 78.1228C96.6231 79.207 96.3709 80.2912 96.1944 81.3755C96.2953 81.2494 96.3709 81.1233 96.5475 81.1485H96.6231Z" fill="#72CFFE"/>
<path d="M86.8377 82.4093C85.9045 83.7457 84.9462 85.1073 84.0131 86.4689C83.6348 87.0236 83.1809 87.5531 82.9539 88.2339C82.626 88.4608 82.273 88.6625 81.9451 88.8895C81.6677 88.486 81.819 88.0322 81.819 87.6287C81.819 86.8975 81.7181 86.1663 81.9451 85.4603C81.9451 85.7124 81.9451 85.9898 81.9956 86.3932C82.4495 85.7124 82.5504 85.0568 82.5756 84.4013C82.626 82.964 83.5087 82.0059 84.8201 81.3755C85.5767 81.0225 86.2828 80.5434 87.0898 80.2157C87.7203 79.9635 88.4265 79.8626 88.8804 79.2827C88.4769 80.1652 87.8212 80.8712 87.2916 81.6781C87.1403 81.9302 86.9133 82.132 86.8377 82.4345V82.4093Z" fill="#C9EFFD"/>
<path d="M87.2171 87.7044C87.0406 87.5279 86.7884 87.6539 86.511 87.5279C87.9233 86.9731 88.8816 85.8133 90.2182 85.2585C91.2522 84.8299 92.3366 84.603 93.3958 84.3508C93.5219 84.3256 93.648 84.3256 93.7489 84.4517C93.8246 84.5525 93.7741 84.6534 93.6985 84.729C92.841 85.435 92.0844 86.2671 91.227 86.9731C90.7983 87.3766 90.3947 87.78 89.966 88.2087C89.8651 88.3599 89.739 88.3347 89.613 88.2087C88.8312 87.9061 88.0494 87.7548 87.2171 87.7044Z" fill="#C4EEFD"/>
<path d="M89.6135 88.2087C89.6135 88.2087 89.8404 88.2087 89.9665 88.2087C89.5882 89.5703 89.0838 90.9067 88.6047 92.2179C88.6047 92.2683 88.5795 92.3439 88.529 92.3944C88.3525 92.7474 88.2516 93.2517 87.8229 93.3021C87.4194 93.3525 87.2933 92.8482 87.0663 92.5709C86.7637 92.1926 86.4863 91.8144 86.1836 91.4362C85.9314 91.1084 85.8558 90.7554 86.0828 90.3772C87.2933 89.6964 88.529 89.0913 89.6135 88.234V88.2087Z" fill="#2AA3F6"/>
<path d="M90.7476 76.6349C91.1006 75.9037 91.7815 75.3489 92.1094 74.5925C92.4877 74.0882 92.866 73.5839 93.2443 73.0796C93.3451 73.1553 93.0425 73.6091 93.4208 73.357C94.7322 72.4493 96.1949 71.9702 97.6576 71.4407C97.6576 72.2223 97.3802 72.9535 97.3298 73.71C97.3046 74.1638 96.9767 74.416 96.5984 74.5421C94.6061 75.122 92.639 75.7524 90.7476 76.6097V76.6349Z" fill="#B3E6FD"/>
<path d="M96.6492 78.1484C96.6492 78.0223 96.6492 77.8962 96.6492 77.7702C96.9014 76.9129 96.977 76.0304 97.1536 75.1731C97.1788 75.0218 97.1536 74.8453 97.3301 74.8201C97.5066 74.8201 97.4814 75.0218 97.5318 75.1479C97.6579 75.753 97.8345 76.3582 97.784 76.9885C97.6579 77.7954 97.5823 78.6023 97.2797 79.3839C97.0275 78.9805 97.0527 78.4762 96.6744 78.1484H96.6492Z" fill="#57CDF9"/>
<path d="M96.6486 78.1485C97.3295 78.325 97.2287 78.9049 97.2539 79.384C97.1278 79.9892 96.8504 80.5691 96.5982 81.1238C96.3208 81.2751 96.346 81.6533 95.9929 81.8298C96.2199 80.5439 96.4216 79.3336 96.6234 78.1233L96.6486 78.1485Z" fill="#26B6F1"/>
<path d="M88.7294 94.4876C87.7711 95.824 86.2327 97.0847 83.736 98.2698C83.6099 99.1775 83.4082 100.11 83.2568 100.665C85.0978 101.119 87.2919 100.993 88.3763 100.867C88.3259 100.312 88.452 99.6566 88.6033 98.875C88.8555 97.5638 89.1581 95.9248 88.7294 94.4624V94.4876Z" fill="#2585F3"/>
<path fill-rule="evenodd" clip-rule="evenodd" d="M79.4249 70.0794C79.4249 69.7516 79.5006 69.449 79.6015 69.1717C79.1727 68.743 78.9962 68.1126 79.1727 67.5327C78.8197 67.9361 78.6179 68.4657 78.6179 69.0456C78.6179 69.7012 78.8953 70.3063 79.3241 70.735C79.3997 70.8358 79.5006 70.9115 79.6015 70.9871C79.5006 70.7097 79.4249 70.4072 79.4249 70.0794Z" fill="#BDFAFD"/>
<path fill-rule="evenodd" clip-rule="evenodd" d="M93.8751 75.778C93.749 76.0806 93.5725 76.358 93.3203 76.5849C93.169 76.7362 92.9925 76.8623 92.8159 76.9883C93.5221 76.9883 94.1525 76.711 94.6065 76.2571C95.0604 75.8033 95.3378 75.1729 95.3378 74.4669C95.3378 74.366 95.3378 74.2652 95.3378 74.1643C95.3378 74.9964 94.7326 75.7024 93.9003 75.778" fill="#BDFAFD"/>
<defs>
<linearGradient id="paint0_linear_2026_13" x1="117.094" y1="37.3294" x2="45.954" y2="126.028" gradientUnits="userSpaceOnUse">
<stop stop-color="white"/>
<stop offset="0.13" stop-color="#FCFCFC"/>
<stop offset="1" stop-color="#F2F2F2"/>
</linearGradient>
<linearGradient id="paint1_linear_2026_13" x1="81.2979" y1="138.289" x2="81.2979" y2="25.783" gradientUnits="userSpaceOnUse">
<stop stop-color="white"/>
<stop offset="0.13" stop-color="#FCFCFC"/>
<stop offset="1" stop-color="#F2F2F2"/>
</linearGradient>
</defs>
</svg>
