<svg width="45" height="45" viewBox="0 0 45 45" fill="none" xmlns="http://www.w3.org/2000/svg">
<path d="M33.2365 0.432617H11.1744C5.01413 0.432617 0 5.44675 0 11.607V33.6692C0 39.8294 5.01413 44.8435 11.1744 44.8435H33.2365C39.3968 44.8435 44.4109 39.8294 44.4109 33.6692V11.607C44.4109 5.44675 39.3968 0.432617 33.2365 0.432617Z" fill="url(#paint0_linear_1_372)"/>
<path d="M24.0676 21.062L31.4455 12.4663H29.7264L23.3512 19.9159L18.2655 12.4663H12.3918L20.1279 23.7123L12.3918 32.6661H14.1109L20.8442 24.7867L26.2165 32.6661H32.0902L24.0676 20.9903V21.062ZM21.7037 23.8556L20.9158 22.7095L14.684 13.8273H17.3343L22.3484 20.9903L23.1364 22.1364L29.6547 31.4484H27.0044L21.7037 23.8556Z" fill="white"/>
<defs>
<linearGradient id="paint0_linear_1_372" x1="3.27351" y1="3.71329" x2="41.1374" y2="41.5628" gradientUnits="userSpaceOnUse">
<stop stop-color="#23004A"/>
<stop offset="1"/>
</linearGradient>
</defs>
</svg>
