<svg width="45" height="45" viewBox="0 0 45 45" fill="none" xmlns="http://www.w3.org/2000/svg">
<path d="M33.2365 0H11.1744C5.01413 0 0 5.01413 0 11.1744V33.2365C0 39.3968 5.01413 44.4109 11.1744 44.4109H33.2365C39.3968 44.4109 44.4109 39.3968 44.4109 33.2365V11.1744C44.4109 5.01413 39.3968 0 33.2365 0Z" fill="url(#paint0_linear_1_378)"/>
<path d="M27.2911 8.38086L28.9386 8.52412H29.8698C29.8698 8.59575 31.6605 9.24042 31.6605 9.24042L32.3052 10.3149L32.4485 10.6014L35.6002 11.6042L37.0328 12.5354L37.391 13.395L37.2477 14.1829L36.6747 14.9709L35.6002 16.1886L32.735 18.8389L33.5946 23.3516L21.2025 35.6721L9.16858 22.9218L15.6153 16.9049L19.4117 10.6014L24.1393 8.52412L27.2911 8.38086Z" fill="white"/>
<path d="M31.3028 11.3892C31.3028 12.5353 30.2999 13.4665 29.1538 13.3948C28.151 13.3948 27.2914 12.4636 27.2914 11.3892C27.2914 11.031 27.3631 10.7445 27.5063 10.458C27.5063 10.3863 27.6496 10.3863 27.7212 10.458C28.0077 10.8161 28.4375 11.031 28.8673 11.031C29.512 11.031 30.085 10.3863 30.085 9.74167C30.085 9.59841 30.085 9.52678 30.2283 9.59841C30.9446 9.88494 31.3744 10.6012 31.3744 11.3892H31.3028Z" fill="black"/>
<path d="M32.019 10.8165C32.019 10.8165 34.8843 11.5328 36.2452 12.3923C37.8927 13.4668 36.5318 14.971 36.5318 14.971C36.5318 14.971 38.1076 13.8966 37.1764 12.6072C36.1736 11.1746 32.5205 10.4583 32.5205 10.4583C31.7325 8.0945 29.3687 8.66754 29.3687 8.66754C29.512 8.73917 31.8758 9.31222 31.9474 10.8881L32.019 10.8165Z" fill="url(#paint1_linear_1_378)"/>
<path d="M39.1106 18.9823C38.8241 18.5525 38.5376 18.1944 38.1794 17.8362L35.9589 15.6157C35.3859 16.0455 34.8128 16.4752 34.1681 16.8334H34.0965C33.4518 17.1915 32.7355 17.4064 32.0909 17.6213C31.5894 17.7646 31.088 17.8362 30.5866 17.9078C30.3001 18.0511 30.0852 18.1944 29.8703 18.3376C27.5065 19.9851 25.859 23.0652 25.859 26.6468C25.859 30.2283 25.9306 28.2943 26.1455 29.0822L22.6356 32.5921C22.3491 32.8786 21.9193 32.8786 21.6328 32.5921L14.1116 25.0709C14.8279 24.4978 15.401 23.7815 15.9024 22.9936C16.9052 21.4177 17.2633 19.627 17.1917 17.9795C17.1201 19.3405 16.6903 20.7014 15.9024 21.9192C15.2577 22.9936 14.3981 23.8532 13.4669 24.4978L11.8194 22.8503C11.5329 22.5638 11.5329 22.134 11.8194 21.8475L16.9768 16.6901C17.0485 17.1199 17.1201 17.5497 17.1917 17.9795V16.4036C17.8364 14.398 19.4123 12.4639 21.7044 11.3178C22.4207 10.9597 23.137 10.6732 23.8534 10.5299C24.8562 10.2434 25.9306 10.1718 26.9335 10.2434C27.3632 9.38382 28.2228 8.81077 29.2256 8.81077L26.8618 6.44697L26.7902 6.37534C24.2831 3.9399 20.2002 3.9399 17.6931 6.44697L13.4669 10.6732L6.23226 17.9078C4.44149 19.6986 3.86845 22.4206 4.72802 24.7127C4.94291 25.2858 5.22943 25.7872 5.58758 26.2886C5.80247 26.5751 6.01737 26.8617 6.23226 27.0765L17.6931 38.5374C20.2002 41.0445 24.3548 41.0445 26.8618 38.5374L30.2285 35.1708L38.3227 27.0765C40.4716 24.9276 40.7581 21.561 39.2539 19.0539L39.1106 18.9823ZM32.3774 22.7071L28.1512 26.9333C27.1484 23.9964 27.7214 20.9163 29.4405 18.7674L32.3774 21.7043C32.6639 21.9908 32.6639 22.4206 32.3774 22.7071Z" fill="url(#paint2_linear_1_378)"/>
<defs>
<linearGradient id="paint0_linear_1_378" x1="3.27351" y1="3.28068" x2="41.1374" y2="41.1374" gradientUnits="userSpaceOnUse">
<stop stop-color="#5865F2"/>
<stop offset="0.7" stop-color="#641EE1"/>
<stop offset="1" stop-color="#6A00DB"/>
</linearGradient>
<linearGradient id="paint1_linear_1_378" x1="29.4403" y1="11.7906" x2="37.5418" y2="11.7906" gradientUnits="userSpaceOnUse">
<stop stop-color="#8D6BFF"/>
<stop offset="1" stop-color="#7961FF"/>
</linearGradient>
<linearGradient id="paint2_linear_1_378" x1="19.928" y1="4.81379" x2="24.0826" y2="36.2596" gradientUnits="userSpaceOnUse">
<stop stop-color="#8D6BFF"/>
<stop offset="1" stop-color="#793CFF"/>
</linearGradient>
</defs>
</svg>
