<svg width="39" height="39" viewBox="0 0 39 39" fill="none" xmlns="http://www.w3.org/2000/svg">
<path d="M0 19.3403C0 30.0284 8.65221 38.6806 19.3402 38.6806C19.3402 28.0063 10.6743 19.3403 0 19.3403Z" fill="white"/>
<path d="M19.3402 0C12.1323 0 5.84609 3.93407 2.53101 9.78016C0.921618 12.6 0 15.8601 0 19.3402C3.79652 19.3402 7.33168 18.2535 10.3166 16.3553C15.7363 12.9302 19.3402 6.87775 19.3402 0Z" fill="white"/>
<path d="M35.2694 8.36314C36.5074 6.20353 37.3328 3.79632 37.6491 1.23779C35.0081 1.45788 32.5183 2.20068 30.2762 3.39741C24.8015 6.2723 20.8812 11.692 20.0834 18.0883C26.6035 17.5518 32.202 13.7691 35.2694 8.36314Z" fill="white"/>
<path d="M21.9125 29.0517C20.2756 31.8853 19.3403 35.1729 19.3403 38.6806C22.5866 38.6806 25.654 37.8827 28.3364 36.4522C34.4851 33.2334 38.6805 26.7821 38.6805 19.3403C31.5139 19.3403 25.2551 23.2469 21.9125 29.0517Z" fill="white"/>
</svg>
