<svg width="38" height="45" viewBox="0 0 38 45" fill="none" xmlns="http://www.w3.org/2000/svg">
<path fill-rule="evenodd" clip-rule="evenodd" d="M37.248 25.7655V38.9474C37.248 42.1097 34.5053 44.6973 31.1542 44.6973H6.09396C2.74049 44.6973 0.000152588 42.1097 0.000152588 38.9474V25.7655C0.000152588 22.6029 2.74049 20.0156 6.09396 20.0156H31.1542C34.5053 20.0156 37.248 22.6029 37.248 25.7655Z" fill="#D42927"/>
<path fill-rule="evenodd" clip-rule="evenodd" d="M2.59033 24.4248V26.4472L5.17557 26.4542V40.3785H7.76545V26.4932H10.8719V24.4364L2.59062 24.4248H2.59033Z" fill="#FFFFFE"/>
<path fill-rule="evenodd" clip-rule="evenodd" d="M10.3645 28.5618L10.3721 35.9095C10.3747 37.0369 10.3453 37.8761 10.382 38.2591C10.4445 38.9333 10.4204 39.7187 11.0463 40.1674C12.2127 41.0067 14.4464 40.0414 15.0039 38.8408L14.999 40.3735L17.0799 40.3761L17.0776 28.5618H14.4877V35.977C14.4877 37.0494 14.5529 37.5848 14.4854 37.7743C14.2744 38.3484 13.3289 38.9601 12.9576 37.8371C12.8968 37.641 12.9503 37.0468 12.9503 36.028L12.941 28.5615H10.3654L10.3645 28.5618Z" fill="#FFFFFE"/>
<path fill-rule="evenodd" clip-rule="evenodd" d="M18.6317 24.4393L18.6191 40.2772L20.746 40.2455L20.9399 39.2584C23.6584 41.754 25.368 40.0444 25.363 37.0544L25.3587 30.88C25.3561 28.5302 23.5955 27.1217 21.2067 29.0226L21.2189 24.4341L18.6317 24.439V24.4393ZM21.175 30.5721C21.175 30.0605 21.6845 29.6409 22.3055 29.6409C22.9265 29.6409 23.4404 30.0605 23.4404 30.5721V37.5002C23.4404 38.0118 22.9312 38.4291 22.3055 38.4291C21.6799 38.4291 21.175 38.0118 21.175 37.5002V30.5721Z" fill="#FFFFFE"/>
<path fill-rule="evenodd" clip-rule="evenodd" d="M28.3412 28.4917C27.8491 28.8455 27.4731 29.3187 27.2546 29.9563C27.0343 30.5912 26.9249 31.4598 26.9249 32.5656V36.2444C26.9249 42.3624 34.3552 41.497 33.47 36.2346L31.5273 36.2468C31.525 36.3219 31.5224 36.4112 31.5224 36.5087V37.5926C31.5224 38.1717 31.0425 38.6423 30.4602 38.6423H30.0796C29.4979 38.6423 29.0174 38.1717 29.0174 37.5926V34.7406H33.4648V33.0676C33.4648 31.8451 33.4331 30.6229 33.3338 29.9219C33.014 27.7106 29.9099 27.3588 28.3409 28.4917H28.3412ZM30.3787 30.1189C31.0137 30.1189 31.5355 30.6378 31.5355 31.2704L31.5087 32.694H29.0547L29.0666 31.2704C29.0666 30.6378 29.5855 30.1189 30.2213 30.1189H30.379H30.3787Z" fill="#FFFFFE"/>
<path fill-rule="evenodd" clip-rule="evenodd" d="M9.02605 8.08715L9.03129 17.4992H11.7547L11.7574 8.08307L14.9746 0.0168779H11.9966L10.2843 6.00709L8.55056 0H5.60187L9.02605 8.08715Z" fill="white"/>
<path fill-rule="evenodd" clip-rule="evenodd" d="M15.0523 6.55935C14.8587 7.22428 14.7586 8.14296 14.7586 9.3218V12.5737C14.7586 13.6478 14.8096 14.4553 14.9187 14.9937C15.0278 15.53 15.2074 15.9906 15.462 16.3686C15.714 16.7472 16.0687 17.0336 16.5267 17.2195C16.9824 17.4116 17.538 17.5009 18.1956 17.5009C18.7846 17.5009 19.3061 17.3947 19.7618 17.1712C20.2131 16.9532 20.5839 16.6113 20.8722 16.1507C21.1658 15.6874 21.3547 15.1927 21.4423 14.6587C21.5299 14.1279 21.5756 13.2887 21.5756 12.1515V9.04506C21.5756 8.14558 21.5273 7.47861 21.4321 7.03484C21.3352 6.59834 21.1586 6.17144 20.8964 5.75648C20.6394 5.34181 20.2707 5.00716 19.7883 4.75021C19.3104 4.49325 18.7383 4.3623 18.0711 4.3623C17.2758 4.3623 16.6234 4.56397 16.1144 4.96613C15.6028 5.36654 15.2481 5.89732 15.052 6.55935H15.0523ZM17.0188 14.1984V7.6631C17.0188 6.96965 17.538 6.40162 18.1686 6.40162C18.7992 6.40162 19.3128 6.96965 19.3128 7.6631V14.1984C19.3128 14.8941 18.7989 15.4616 18.1686 15.4616C17.5383 15.4616 17.0188 14.8941 17.0188 14.1984Z" fill="white"/>
<path fill-rule="evenodd" clip-rule="evenodd" d="M23.2101 4.83789V13.1191C23.2101 14.174 23.2293 14.8773 23.2611 15.2335C23.2928 15.5874 23.3748 15.927 23.5081 16.2573C23.6417 16.5794 23.8477 16.8439 24.1314 17.0427C24.4076 17.2394 24.7647 17.3363 25.1913 17.3363C25.5649 17.3363 25.8946 17.2368 26.1833 17.0284C26.4693 16.8198 26.7114 16.5119 26.9082 16.0995L26.8599 17.1151H29.7477V4.83789H27.4756V14.3925C27.4756 14.9114 27.0484 15.3331 26.5272 15.3331C26.0061 15.3331 25.5818 14.9114 25.5818 14.3925V4.83789H23.2104H23.2101Z" fill="white"/>
</svg>
