<svg width="45" height="45" viewBox="0 0 45 45" fill="none" xmlns="http://www.w3.org/2000/svg">
<path d="M33.2365 0H11.1744C5.01413 0 0 5.01413 0 11.1744V33.2365C0 39.3968 5.01413 44.4109 11.1744 44.4109H33.2365C39.3968 44.4109 44.4109 39.3968 44.4109 33.2365V11.1744C44.4109 5.01413 39.3968 0 33.2365 0Z" fill="url(#paint0_linear_1_375)"/>
<path d="M9.45566 21.4895C9.45566 21.4895 20.5584 16.9051 24.4264 15.3292C25.9307 14.6846 30.9448 12.6073 30.9448 12.6073C30.9448 12.6073 33.237 11.7477 33.0937 13.8966C33.0937 14.7562 32.5207 17.9079 32.0193 21.3462C31.2313 26.1455 30.4434 31.4461 30.4434 31.4461C30.4434 31.4461 30.3001 32.9503 29.2257 33.1652C28.1512 33.4518 26.3604 32.3057 26.0023 32.0192C25.7158 31.8043 21.2031 28.939 19.4839 27.5064C19.0541 27.1483 18.5527 26.3603 19.4839 25.4291C21.7761 23.2802 24.5697 20.7015 26.2172 18.9824C27.0051 18.1945 27.7214 16.4037 24.5697 18.6243C19.9853 21.776 15.5442 24.7128 15.5442 24.7128C15.5442 24.7128 14.5414 25.3575 12.6074 24.7128C10.6734 24.1398 8.45283 23.3519 8.45283 23.3519C8.45283 23.3519 6.94859 22.4207 9.52729 21.3462L9.45566 21.4895Z" fill="white"/>
<defs>
<linearGradient id="paint0_linear_1_375" x1="3.295" y1="3.25919" x2="41.1159" y2="41.1517" gradientUnits="userSpaceOnUse">
<stop stop-color="#2CB5E5"/>
<stop offset="0.7" stop-color="#6C6EF5"/>
<stop offset="1" stop-color="#9146FF"/>
</linearGradient>
</defs>
</svg>
