<svg width="468" height="536" viewBox="0 0 468 536" fill="none" xmlns="http://www.w3.org/2000/svg">
<path d="M153.826 228.145C182.144 199.857 182.144 153.993 153.826 125.706C125.507 97.4178 79.5937 97.4178 51.2752 125.706C22.9567 153.993 22.9567 199.857 51.2752 228.145C79.5937 256.433 125.507 256.433 153.826 228.145Z" fill="url(#paint0_linear_1_140)"/>
<path d="M140.966 117.383C132.919 112.202 124.098 108.751 114.747 107.126C105.715 105.555 96.5708 105.744 87.5684 107.69C78.566 109.633 70.1606 113.236 62.5836 118.392C54.7404 123.732 48.1335 130.513 42.9495 138.552C37.763 146.59 34.3078 155.401 32.681 164.742C31.1089 173.764 31.2979 182.899 33.2456 191.891C35.1909 200.884 38.7978 209.28 43.9595 216.849C49.3052 224.684 56.0936 231.283 64.1408 236.464C72.188 241.645 81.0088 245.097 90.3594 246.722C99.3917 248.292 108.536 248.103 117.538 246.158C126.541 244.214 134.946 240.611 142.523 235.455C150.366 230.115 156.973 223.334 162.16 215.296C167.346 207.257 170.801 198.446 172.428 189.106C174 180.083 173.811 170.949 171.863 161.956C169.918 152.964 166.311 144.567 161.15 136.999C155.804 129.164 149.015 122.564 140.968 117.383H140.966Z" fill="url(#paint1_linear_1_140)"/>
<path d="M149.194 103.11C147.712 102.156 145.717 102.618 144.811 104.149C144.02 105.488 144.364 107.262 145.6 108.207C146.908 109.206 148.707 109.004 149.774 107.871C188.318 133.013 199.398 184.745 174.425 223.449C149.453 262.155 97.7148 273.446 58.872 248.767C59.464 247.325 58.9043 245.606 57.4516 244.831C56.0785 244.098 54.3198 244.517 53.4268 245.79C52.4044 247.246 52.8074 249.251 54.2899 250.208C55.5785 251.038 57.2501 250.794 58.2625 249.713C77.2648 261.79 99.8292 265.825 121.864 261.067C136.543 257.896 149.819 251.075 160.689 241.305C170.612 232.387 185.224 231.067 196.443 238.29L208.502 246.056C207.908 247.497 208.465 249.219 209.917 249.997C211.291 250.732 213.049 250.312 213.945 249.037C214.967 247.581 214.564 245.576 213.082 244.619C211.796 243.792 210.126 244.03 209.114 245.109L197.054 237.344C185.836 230.12 181 216.285 185.032 203.575C189.45 189.65 190.184 174.753 187.01 160.093C182.246 138.082 169.246 119.222 150.386 106.925C150.953 105.558 150.483 103.935 149.194 103.108V103.11ZM55.2501 249.442C53.9243 248.908 53.5611 247.231 54.5486 246.195C55.1009 245.616 55.9765 245.427 56.7178 245.725C58.0436 246.259 58.4068 247.939 57.4217 248.973C56.8695 249.552 55.9939 249.741 55.2526 249.44L55.2501 249.442ZM212.121 245.39C213.447 245.924 213.81 247.601 212.825 248.637C212.273 249.216 211.398 249.405 210.656 249.107C209.33 248.573 208.965 246.893 209.952 245.859C210.505 245.28 211.38 245.091 212.121 245.392V245.39ZM149.361 106.465C148.826 107.789 147.147 108.152 146.11 107.168C145.53 106.616 145.341 105.742 145.642 105.001C146.177 103.677 147.856 103.314 148.893 104.298C149.473 104.85 149.662 105.724 149.361 106.465Z" fill="#5469FF"/>
<path d="M253.344 535.888C321.468 535.888 376.694 480.723 376.694 412.672C376.694 344.622 321.468 289.457 253.344 289.457C185.22 289.457 129.995 344.622 129.995 412.672C129.995 480.723 185.22 535.888 253.344 535.888Z" fill="url(#paint2_linear_1_140)"/>
<path d="M373.965 412.673C373.965 396.404 370.776 380.626 364.488 365.774C358.413 351.426 349.714 338.54 338.637 327.472C327.558 316.405 314.657 307.718 300.294 301.65C285.426 295.368 269.628 292.183 253.345 292.183C237.061 292.183 221.263 295.368 206.395 301.65C192.032 307.718 179.132 316.407 168.052 327.472C156.973 338.54 148.276 351.426 142.202 365.774C135.913 380.626 132.724 396.407 132.724 412.673C132.724 428.938 135.913 444.72 142.202 459.571C148.276 473.919 156.975 486.805 168.052 497.873C179.132 508.94 192.032 517.627 206.395 523.695C221.265 529.977 237.061 533.162 253.345 533.162C269.628 533.162 285.426 529.977 300.294 523.695C314.657 517.627 327.558 508.938 338.637 497.873C349.717 486.805 358.413 473.919 364.488 459.571C370.776 444.72 373.965 428.938 373.965 412.673Z" fill="url(#paint3_linear_1_140)"/>
<path d="M397.454 411.887C397.23 373.615 382.213 337.67 355.099 310.585C337.037 292.543 315.037 279.862 291.038 273.34C269.128 267.386 253.777 247.733 253.777 225.052V200.671C256.25 200.218 258.133 198.054 258.133 195.452C258.133 192.456 255.633 190.03 252.605 190.15C249.959 190.254 247.735 192.379 247.523 195.018C247.299 197.808 249.25 200.193 251.862 200.671V225.052C251.862 247.733 236.511 267.388 214.601 273.34C190.601 279.86 168.601 292.54 150.539 310.585C123.425 337.67 108.408 373.618 108.184 411.887C105.704 412.334 103.818 414.501 103.818 417.105C103.818 420.102 106.318 422.527 109.346 422.408C111.993 422.303 114.216 420.179 114.428 417.542C114.654 414.754 112.706 412.369 110.102 411.887C110.57 333.667 174.41 270.174 252.822 270.174C331.234 270.174 395.074 333.667 395.541 411.887C392.935 412.369 390.989 414.754 391.213 417.542C391.427 420.179 393.651 422.303 396.295 422.408C399.323 422.527 401.822 420.102 401.822 417.105C401.822 414.501 399.934 412.334 397.457 411.887H397.454ZM108.463 413.775C110.853 413.318 112.92 415.383 112.463 417.771C112.206 419.105 111.129 420.181 109.794 420.437C107.403 420.892 105.338 418.829 105.794 416.442C106.047 415.107 107.124 414.031 108.46 413.775H108.463ZM253.483 198.785C251.093 199.242 249.026 197.174 249.483 194.786C249.74 193.452 250.817 192.376 252.153 192.123C254.543 191.668 256.608 193.733 256.153 196.118C255.896 197.453 254.819 198.529 253.483 198.785ZM399.842 416.442C400.3 418.829 398.233 420.894 395.842 420.437C394.507 420.181 393.43 419.105 393.173 417.771C392.716 415.383 394.783 413.318 397.173 413.775C398.509 414.031 399.586 415.107 399.842 416.442Z" fill="#4239C9"/>
<path d="M290.474 113.735C311.435 92.7971 311.435 58.8497 290.474 37.9116C269.513 16.9735 235.529 16.9735 214.568 37.9116C193.608 58.8497 193.608 92.7971 214.568 113.735C235.529 134.673 269.513 134.673 290.474 113.735Z" fill="url(#paint4_linear_1_140)"/>
<path d="M305.011 75.8222C305.011 68.7429 303.623 61.8773 300.887 55.4142C298.243 49.1698 294.459 43.564 289.638 38.7484C284.817 33.9328 279.203 30.1533 272.954 27.5119C266.484 24.7786 259.611 23.3921 252.524 23.3921C245.437 23.3921 238.564 24.7786 232.094 27.5119C225.843 30.1533 220.231 33.9328 215.41 38.7484C210.589 43.564 206.806 49.1723 204.162 55.4142C201.425 61.8773 200.037 68.7429 200.037 75.8222C200.037 82.9015 201.425 89.7671 204.162 96.2302C206.806 102.475 210.589 108.08 215.41 112.896C220.231 117.712 225.846 121.491 232.094 124.132C238.564 126.866 245.437 128.252 252.524 128.252C259.611 128.252 266.484 126.866 272.954 124.132C279.206 121.491 284.817 117.712 289.638 112.896C294.459 108.08 298.243 102.472 300.887 96.2302C303.623 89.7671 305.011 82.9015 305.011 75.8222Z" fill="url(#paint5_linear_1_140)"/>
<path d="M317.279 75.2139C317.279 73.9093 316.192 72.8533 314.874 72.9055C313.722 72.9502 312.754 73.8746 312.662 75.0226C312.565 76.2352 313.411 77.2738 314.545 77.4825C314.341 111.52 286.563 139.149 252.442 139.149C218.32 139.149 190.542 111.52 190.338 77.4825C191.472 77.2738 192.318 76.2352 192.221 75.0226C192.129 73.8746 191.161 72.9502 190.01 72.9055C188.694 72.8533 187.604 73.9093 187.604 75.2139C187.604 76.347 188.425 77.2887 189.505 77.485C189.602 94.1384 196.136 109.78 207.935 121.566C215.795 129.418 225.367 134.935 235.81 137.772C245.345 140.364 252.024 148.914 252.024 158.784V169.394C250.887 169.603 250.039 170.639 250.136 171.854C250.228 173.002 251.195 173.927 252.347 173.971C253.663 174.024 254.753 172.967 254.753 171.663C254.753 170.532 253.934 169.591 252.857 169.392V158.782C252.857 148.912 259.536 140.359 269.071 137.77C279.513 134.932 289.088 129.413 296.946 121.564C308.744 109.778 315.279 94.1359 315.376 77.4825C316.456 77.2887 317.277 76.3445 317.277 75.2114L317.279 75.2139ZM188.465 75.5046C188.266 74.466 189.166 73.5689 190.206 73.7652C190.788 73.877 191.256 74.3442 191.368 74.9256C191.567 75.9643 190.666 76.8638 189.626 76.665C189.044 76.5532 188.577 76.0861 188.465 75.5046ZM253.892 171.375C254.091 172.413 253.19 173.313 252.151 173.114C251.569 173.002 251.101 172.535 250.989 171.954C250.79 170.915 251.69 170.015 252.73 170.214C253.312 170.326 253.78 170.793 253.892 171.375ZM315.257 76.665C314.217 76.8638 313.317 75.9643 313.516 74.9256C313.628 74.3442 314.095 73.877 314.677 73.7652C315.717 73.5664 316.618 74.466 316.419 75.5046C316.307 76.0861 315.839 76.5532 315.257 76.665Z" fill="#7726F7"/>
<path d="M430.348 243.669C451.143 222.897 451.143 189.219 430.348 168.447C409.553 147.674 375.839 147.674 355.044 168.447C334.249 189.219 334.249 222.897 355.044 243.669C375.839 264.441 409.553 264.441 430.348 243.669Z" fill="url(#paint6_linear_1_140)"/>
<path d="M357.156 168.042C352.017 172.836 347.975 178.489 345.137 184.847C342.395 190.99 340.888 197.528 340.656 204.279C340.425 211.03 341.482 217.657 343.796 223.971C346.191 230.509 349.84 236.425 354.639 241.559C359.437 246.693 365.096 250.73 371.462 253.568C377.611 256.306 384.156 257.812 390.915 258.043C397.673 258.274 404.307 257.218 410.628 254.907C417.173 252.515 423.096 248.869 428.235 244.076C433.374 239.283 437.417 233.63 440.255 227.271C442.996 221.129 444.504 214.591 444.735 207.84C444.966 201.088 443.909 194.461 441.596 188.147C439.2 181.61 435.551 175.693 430.752 170.56C425.954 165.426 420.295 161.388 413.929 158.553C407.78 155.815 401.235 154.309 394.477 154.078C387.718 153.847 381.084 154.903 374.763 157.214C368.218 159.606 362.296 163.252 357.156 168.045V168.042Z" fill="url(#paint7_linear_1_140)"/>
<path d="M349.818 160.687C337.796 172.033 330.866 187.357 330.301 203.883C329.923 214.891 332.4 225.561 337.413 235.048C341.987 243.708 340.303 254.336 333.139 261.02L325.438 268.203C324.567 267.557 323.328 267.602 322.507 268.368C321.56 269.25 321.532 270.753 322.46 271.672C323.274 272.475 324.599 272.549 325.495 271.841C326.443 271.091 326.622 269.771 326.002 268.807L333.704 261.624C340.868 254.942 351.599 253.988 359.935 259.139C369.067 264.782 379.554 267.98 390.574 268.355C407.118 268.922 422.897 263.062 435.051 251.856C435.924 252.504 437.163 252.462 437.986 251.694C438.934 250.812 438.961 249.309 438.033 248.389C437.22 247.587 435.894 247.512 434.999 248.22C434.051 248.971 433.872 250.288 434.486 251.249C409.643 274.147 370.778 272.736 347.676 248.022C324.572 223.307 325.818 184.482 350.388 161.286C351.308 161.964 352.634 161.877 353.447 160.983C354.218 160.138 354.233 158.811 353.487 157.946C352.634 156.957 351.131 156.885 350.184 157.767C349.36 158.535 349.233 159.768 349.823 160.682L349.818 160.687ZM435.561 251.212C434.713 250.593 434.755 249.334 435.645 248.775C436.143 248.461 436.8 248.484 437.275 248.829C438.123 249.448 438.081 250.708 437.19 251.267C436.693 251.58 436.036 251.558 435.561 251.212ZM324.925 268.85C325.774 269.468 325.731 270.728 324.841 271.287C324.343 271.6 323.687 271.578 323.214 271.23C322.366 270.611 322.41 269.351 323.298 268.792C323.796 268.479 324.453 268.502 324.925 268.847V268.85ZM350.552 158.592C351.171 157.745 352.432 157.787 352.992 158.677C353.306 159.174 353.283 159.83 352.937 160.304C352.318 161.152 351.057 161.109 350.497 160.22C350.184 159.723 350.206 159.067 350.552 158.592Z" fill="#4811BF"/>
<path d="M205.046 382.356H206.892V392.464H206.145C202.805 392.464 199.831 392.962 197.224 393.958C194.616 394.954 192.404 396.375 190.588 398.221C188.801 400.037 187.424 402.234 186.457 404.812C185.52 407.391 185.051 410.276 185.051 413.47V424.104C185.051 426.39 185.271 428.411 185.71 430.169C186.179 431.897 186.838 433.348 187.688 434.52C188.566 435.662 189.592 436.526 190.764 437.112C191.936 437.669 193.254 437.947 194.719 437.947C196.096 437.947 197.341 437.654 198.454 437.068C199.597 436.482 200.563 435.662 201.354 434.607C202.175 433.523 202.79 432.264 203.2 430.828C203.64 429.363 203.859 427.767 203.859 426.038C203.859 424.31 203.64 422.713 203.2 421.248C202.79 419.783 202.175 418.523 201.354 417.469C200.534 416.385 199.538 415.55 198.366 414.964C197.194 414.378 195.876 414.085 194.411 414.085C192.419 414.085 190.661 414.554 189.138 415.491C187.644 416.399 186.472 417.571 185.622 419.007C184.772 420.442 184.318 421.951 184.26 423.533L180.437 421.072C180.524 418.816 180.993 416.678 181.843 414.656C182.722 412.635 183.923 410.848 185.446 409.295C186.999 407.713 188.859 406.482 191.027 405.604C193.195 404.695 195.642 404.241 198.366 404.241C201.354 404.241 203.977 404.812 206.232 405.955C208.518 407.098 210.422 408.665 211.945 410.657C213.469 412.649 214.611 414.949 215.373 417.557C216.135 420.164 216.516 422.947 216.516 425.906C216.516 429.012 216.003 431.897 214.978 434.563C213.981 437.229 212.531 439.559 210.627 441.551C208.752 443.543 206.496 445.096 203.859 446.209C201.223 447.322 198.264 447.879 194.982 447.879C191.584 447.879 188.493 447.264 185.71 446.033C182.956 444.773 180.583 443.016 178.591 440.76C176.599 438.504 175.061 435.823 173.977 432.718C172.922 429.612 172.395 426.214 172.395 422.522V417.601C172.395 412.444 173.142 407.728 174.636 403.45C176.159 399.144 178.342 395.423 181.184 392.288C184.025 389.124 187.453 386.678 191.467 384.949C195.48 383.221 200.007 382.356 205.046 382.356ZM235.983 417.864L225.876 415.447L229.523 383.016H265.471V393.255H239.938L238.356 407.449C239.206 406.951 240.495 406.424 242.224 405.867C243.952 405.281 245.886 404.988 248.024 404.988C251.13 404.988 253.884 405.472 256.286 406.438C258.688 407.405 260.725 408.812 262.395 410.657C264.094 412.503 265.383 414.759 266.262 417.425C267.141 420.091 267.58 423.108 267.58 426.478C267.58 429.319 267.141 432.029 266.262 434.607C265.383 437.156 264.05 439.441 262.263 441.463C260.476 443.455 258.234 445.022 255.539 446.165C252.844 447.308 249.65 447.879 245.959 447.879C243.205 447.879 240.539 447.469 237.961 446.648C235.412 445.828 233.112 444.612 231.062 443.001C229.04 441.39 227.414 439.441 226.184 437.156C224.982 434.842 224.353 432.205 224.294 429.246H236.862C237.038 431.062 237.507 432.63 238.269 433.948C239.06 435.237 240.1 436.233 241.389 436.937C242.678 437.64 244.187 437.991 245.915 437.991C247.526 437.991 248.903 437.684 250.046 437.068C251.188 436.453 252.111 435.604 252.814 434.52C253.518 433.406 254.03 432.117 254.353 430.652C254.704 429.158 254.88 427.547 254.88 425.818C254.88 424.09 254.675 422.522 254.265 421.116C253.854 419.71 253.225 418.494 252.375 417.469C251.525 416.443 250.441 415.652 249.123 415.096C247.834 414.539 246.325 414.261 244.597 414.261C242.253 414.261 240.437 414.627 239.147 415.359C237.888 416.092 236.833 416.927 235.983 417.864ZM275.578 398.704V395.32C275.578 392.889 276.105 390.677 277.16 388.685C278.215 386.692 279.768 385.096 281.818 383.895C283.869 382.693 286.389 382.093 289.377 382.093C292.453 382.093 295.017 382.693 297.067 383.895C299.147 385.096 300.7 386.692 301.726 388.685C302.78 390.677 303.308 392.889 303.308 395.32V398.704C303.308 401.077 302.78 403.26 301.726 405.252C300.7 407.244 299.162 408.841 297.111 410.042C295.061 411.243 292.512 411.844 289.465 411.844C286.447 411.844 283.898 411.243 281.818 410.042C279.768 408.841 278.215 407.244 277.16 405.252C276.105 403.26 275.578 401.077 275.578 398.704ZM283.972 395.32V398.704C283.972 399.729 284.162 400.711 284.543 401.648C284.953 402.557 285.568 403.304 286.389 403.89C287.238 404.446 288.264 404.725 289.465 404.725C290.725 404.725 291.75 404.446 292.541 403.89C293.332 403.304 293.918 402.557 294.299 401.648C294.68 400.711 294.87 399.729 294.87 398.704V395.32C294.87 394.236 294.665 393.24 294.255 392.332C293.874 391.395 293.273 390.647 292.453 390.091C291.662 389.505 290.637 389.212 289.377 389.212C288.205 389.212 287.209 389.505 286.389 390.091C285.568 390.647 284.953 391.395 284.543 392.332C284.162 393.24 283.972 394.236 283.972 395.32ZM306.164 434.695V431.312C306.164 428.909 306.691 426.712 307.746 424.72C308.83 422.728 310.397 421.131 312.448 419.93C314.528 418.729 317.077 418.128 320.095 418.128C323.142 418.128 325.69 418.729 327.741 419.93C329.792 421.131 331.345 422.728 332.399 424.72C333.454 426.712 333.981 428.909 333.981 431.312V434.695C333.981 437.098 333.454 439.295 332.399 441.287C331.374 443.279 329.836 444.876 327.785 446.077C325.734 447.278 323.2 447.879 320.183 447.879C317.136 447.879 314.572 447.278 312.492 446.077C310.412 444.876 308.83 443.279 307.746 441.287C306.691 439.295 306.164 437.098 306.164 434.695ZM314.602 431.312V434.695C314.602 435.75 314.836 436.746 315.305 437.684C315.773 438.621 316.418 439.368 317.238 439.925C318.088 440.481 319.069 440.76 320.183 440.76C321.589 440.76 322.688 440.481 323.479 439.925C324.27 439.368 324.812 438.621 325.104 437.684C325.427 436.746 325.588 435.75 325.588 434.695V431.312C325.588 430.257 325.383 429.275 324.973 428.367C324.562 427.43 323.947 426.683 323.127 426.126C322.336 425.54 321.325 425.247 320.095 425.247C318.864 425.247 317.839 425.54 317.019 426.126C316.228 426.683 315.627 427.43 315.217 428.367C314.807 429.275 314.602 430.257 314.602 431.312ZM323.215 392.156L291.97 442.166L285.817 438.914L317.062 388.904L323.215 392.156Z" fill="#4439D1"/>
<path d="M69.7129 155.681V197H61.5566V165.083L51.7578 168.198V161.77L68.835 155.681H69.7129ZM90.8115 178.224L84.2979 176.666L86.6484 155.766H109.814V162.364H93.3604L92.3408 171.512C92.8883 171.191 93.7191 170.851 94.833 170.492C95.9469 170.115 97.193 169.926 98.5713 169.926C100.573 169.926 102.347 170.237 103.896 170.86C105.444 171.483 106.756 172.39 107.832 173.579C108.927 174.769 109.758 176.222 110.324 177.94C110.891 179.659 111.174 181.603 111.174 183.774C111.174 185.606 110.891 187.352 110.324 189.014C109.758 190.656 108.899 192.129 107.747 193.432C106.595 194.715 105.151 195.726 103.414 196.462C101.677 197.198 99.6191 197.566 97.2402 197.566C95.4655 197.566 93.7474 197.302 92.0859 196.773C90.4434 196.245 88.9613 195.461 87.6396 194.423C86.3369 193.384 85.2891 192.129 84.4961 190.656C83.722 189.165 83.3161 187.465 83.2783 185.559H91.3779C91.4912 186.729 91.7933 187.739 92.2842 188.589C92.7939 189.42 93.4642 190.062 94.2949 190.515C95.1257 190.968 96.098 191.194 97.2119 191.194C98.2503 191.194 99.1377 190.996 99.874 190.6C100.61 190.203 101.205 189.656 101.658 188.957C102.111 188.24 102.442 187.409 102.649 186.465C102.876 185.502 102.989 184.464 102.989 183.35C102.989 182.236 102.857 181.226 102.593 180.319C102.328 179.413 101.923 178.63 101.375 177.969C100.827 177.308 100.129 176.798 99.2793 176.439C98.4486 176.081 97.4762 175.901 96.3623 175.901C94.8519 175.901 93.6813 176.137 92.8506 176.609C92.0387 177.081 91.359 177.619 90.8115 178.224ZM116.328 165.876V163.695C116.328 162.128 116.668 160.703 117.348 159.419C118.027 158.135 119.028 157.106 120.35 156.332C121.671 155.558 123.295 155.171 125.221 155.171C127.203 155.171 128.855 155.558 130.177 156.332C131.517 157.106 132.518 158.135 133.179 159.419C133.858 160.703 134.198 162.128 134.198 163.695V165.876C134.198 167.405 133.858 168.812 133.179 170.096C132.518 171.38 131.527 172.409 130.205 173.183C128.883 173.957 127.241 174.344 125.277 174.344C123.333 174.344 121.69 173.957 120.35 173.183C119.028 172.409 118.027 171.38 117.348 170.096C116.668 168.812 116.328 167.405 116.328 165.876ZM121.737 163.695V165.876C121.737 166.537 121.86 167.169 122.105 167.773C122.37 168.359 122.766 168.84 123.295 169.218C123.842 169.576 124.503 169.756 125.277 169.756C126.089 169.756 126.75 169.576 127.26 169.218C127.77 168.84 128.147 168.359 128.393 167.773C128.638 167.169 128.761 166.537 128.761 165.876V163.695C128.761 162.997 128.629 162.355 128.364 161.77C128.119 161.165 127.732 160.684 127.203 160.325C126.693 159.948 126.033 159.759 125.221 159.759C124.465 159.759 123.824 159.948 123.295 160.325C122.766 160.684 122.37 161.165 122.105 161.77C121.86 162.355 121.737 162.997 121.737 163.695ZM136.039 189.07V186.89C136.039 185.341 136.379 183.925 137.059 182.642C137.757 181.358 138.767 180.329 140.089 179.555C141.429 178.781 143.072 178.394 145.017 178.394C146.98 178.394 148.623 178.781 149.944 179.555C151.266 180.329 152.267 181.358 152.946 182.642C153.626 183.925 153.966 185.341 153.966 186.89V189.07C153.966 190.618 153.626 192.035 152.946 193.318C152.285 194.602 151.294 195.631 149.973 196.405C148.651 197.179 147.018 197.566 145.073 197.566C143.11 197.566 141.458 197.179 140.117 196.405C138.777 195.631 137.757 194.602 137.059 193.318C136.379 192.035 136.039 190.618 136.039 189.07ZM141.477 186.89V189.07C141.477 189.75 141.628 190.392 141.93 190.996C142.232 191.6 142.647 192.082 143.176 192.44C143.723 192.799 144.356 192.979 145.073 192.979C145.979 192.979 146.688 192.799 147.197 192.44C147.707 192.082 148.056 191.6 148.245 190.996C148.453 190.392 148.557 189.75 148.557 189.07V186.89C148.557 186.21 148.424 185.577 148.16 184.992C147.896 184.388 147.499 183.907 146.971 183.548C146.461 183.17 145.81 182.981 145.017 182.981C144.224 182.981 143.563 183.17 143.034 183.548C142.524 183.907 142.137 184.388 141.873 184.992C141.609 185.577 141.477 186.21 141.477 186.89ZM147.027 161.656L126.892 193.885L122.927 191.789L143.062 159.561L147.027 161.656Z" fill="#4E6AFF"/>
<path d="M227.014 59.2295V92H220.545V66.6865L212.773 69.1572V64.0586L226.317 59.2295H227.014ZM259.672 72.7734V78.4336C259.672 80.8893 259.41 83.0081 258.886 84.79C258.362 86.557 257.605 88.0094 256.617 89.1475C255.644 90.2705 254.483 91.1016 253.136 91.6406C251.788 92.1797 250.291 92.4492 248.644 92.4492C247.326 92.4492 246.098 92.2845 244.96 91.9551C243.822 91.6107 242.796 91.0791 241.883 90.3604C240.984 89.6416 240.206 88.7357 239.547 87.6426C238.903 86.5345 238.409 85.2168 238.064 83.6895C237.72 82.1621 237.548 80.4102 237.548 78.4336V72.7734C237.548 70.3177 237.81 68.2139 238.334 66.4619C238.873 64.695 239.629 63.25 240.603 62.127C241.591 61.0039 242.759 60.1803 244.106 59.6562C245.454 59.1172 246.951 58.8477 248.599 58.8477C249.916 58.8477 251.137 59.0199 252.26 59.3643C253.398 59.6937 254.424 60.2103 255.337 60.9141C256.25 61.6178 257.029 62.5238 257.673 63.6318C258.317 64.7249 258.811 66.0352 259.155 67.5625C259.5 69.0749 259.672 70.8118 259.672 72.7734ZM253.181 79.2871V71.8975C253.181 70.7145 253.113 69.6813 252.979 68.7979C252.859 67.9144 252.672 67.1657 252.417 66.5518C252.162 65.9229 251.848 65.4137 251.474 65.0244C251.099 64.6351 250.673 64.3506 250.193 64.1709C249.714 63.9912 249.183 63.9014 248.599 63.9014C247.865 63.9014 247.214 64.0436 246.645 64.3281C246.09 64.6126 245.619 65.0693 245.229 65.6982C244.84 66.3122 244.541 67.1357 244.331 68.1689C244.136 69.1872 244.039 70.43 244.039 71.8975V79.2871C244.039 80.4701 244.099 81.5107 244.219 82.4092C244.354 83.3076 244.548 84.0788 244.803 84.7227C245.072 85.3516 245.387 85.8682 245.746 86.2725C246.12 86.6618 246.547 86.9463 247.026 87.126C247.521 87.3057 248.06 87.3955 248.644 87.3955C249.362 87.3955 249.999 87.2533 250.553 86.9688C251.122 86.6693 251.601 86.2051 251.99 85.5762C252.395 84.9323 252.694 84.0938 252.889 83.0605C253.083 82.0273 253.181 80.7695 253.181 79.2871ZM263.984 67.3154V65.5859C263.984 64.3431 264.254 63.2126 264.793 62.1943C265.332 61.1761 266.126 60.36 267.174 59.7461C268.222 59.1322 269.51 58.8252 271.037 58.8252C272.609 58.8252 273.92 59.1322 274.968 59.7461C276.031 60.36 276.825 61.1761 277.349 62.1943C277.888 63.2126 278.157 64.3431 278.157 65.5859V67.3154C278.157 68.5283 277.888 69.6439 277.349 70.6621C276.825 71.6803 276.038 72.4964 274.99 73.1104C273.942 73.7243 272.639 74.0312 271.082 74.0312C269.54 74.0312 268.237 73.7243 267.174 73.1104C266.126 72.4964 265.332 71.6803 264.793 70.6621C264.254 69.6439 263.984 68.5283 263.984 67.3154ZM268.274 65.5859V67.3154C268.274 67.8395 268.372 68.3411 268.566 68.8203C268.776 69.2845 269.09 69.6663 269.51 69.9658C269.944 70.2503 270.468 70.3926 271.082 70.3926C271.726 70.3926 272.25 70.2503 272.654 69.9658C273.059 69.6663 273.358 69.2845 273.553 68.8203C273.747 68.3411 273.845 67.8395 273.845 67.3154V65.5859C273.845 65.0319 273.74 64.5228 273.53 64.0586C273.336 63.5794 273.029 63.1976 272.609 62.9131C272.205 62.6136 271.681 62.4639 271.037 62.4639C270.438 62.4639 269.929 62.6136 269.51 62.9131C269.09 63.1976 268.776 63.5794 268.566 64.0586C268.372 64.5228 268.274 65.0319 268.274 65.5859ZM279.617 85.7109V83.9814C279.617 82.7536 279.887 81.6305 280.426 80.6123C280.98 79.5941 281.781 78.778 282.829 78.1641C283.892 77.5501 285.195 77.2432 286.737 77.2432C288.295 77.2432 289.597 77.5501 290.646 78.1641C291.694 78.778 292.487 79.5941 293.026 80.6123C293.565 81.6305 293.835 82.7536 293.835 83.9814V85.7109C293.835 86.9388 293.565 88.0618 293.026 89.0801C292.502 90.0983 291.716 90.9144 290.668 91.5283C289.62 92.1423 288.325 92.4492 286.782 92.4492C285.225 92.4492 283.915 92.1423 282.852 91.5283C281.788 90.9144 280.98 90.0983 280.426 89.0801C279.887 88.0618 279.617 86.9388 279.617 85.7109ZM283.93 83.9814V85.7109C283.93 86.25 284.049 86.7591 284.289 87.2383C284.529 87.7174 284.858 88.0993 285.277 88.3838C285.712 88.6683 286.213 88.8105 286.782 88.8105C287.501 88.8105 288.062 88.6683 288.467 88.3838C288.871 88.0993 289.148 87.7174 289.298 87.2383C289.463 86.7591 289.545 86.25 289.545 85.7109V83.9814C289.545 83.4424 289.44 82.9408 289.23 82.4766C289.021 81.9974 288.706 81.6156 288.287 81.3311C287.883 81.0316 287.366 80.8818 286.737 80.8818C286.108 80.8818 285.584 81.0316 285.165 81.3311C284.761 81.6156 284.454 81.9974 284.244 82.4766C284.035 82.9408 283.93 83.4424 283.93 83.9814ZM288.332 63.9688L272.362 89.5293L269.218 87.8672L285.188 62.3066L288.332 63.9688Z" fill="#821DFF"/>
<path d="M367.014 190.229V223H360.545V197.687L352.773 200.157V195.059L366.317 190.229H367.014ZM399.672 203.773V209.434C399.672 211.889 399.41 214.008 398.886 215.79C398.362 217.557 397.605 219.009 396.617 220.147C395.644 221.271 394.483 222.102 393.136 222.641C391.788 223.18 390.291 223.449 388.644 223.449C387.326 223.449 386.098 223.285 384.96 222.955C383.822 222.611 382.796 222.079 381.883 221.36C380.984 220.642 380.206 219.736 379.547 218.643C378.903 217.535 378.409 216.217 378.064 214.689C377.72 213.162 377.548 211.41 377.548 209.434V203.773C377.548 201.318 377.81 199.214 378.334 197.462C378.873 195.695 379.629 194.25 380.603 193.127C381.591 192.004 382.759 191.18 384.106 190.656C385.454 190.117 386.951 189.848 388.599 189.848C389.916 189.848 391.137 190.02 392.26 190.364C393.398 190.694 394.424 191.21 395.337 191.914C396.25 192.618 397.029 193.524 397.673 194.632C398.317 195.725 398.811 197.035 399.155 198.562C399.5 200.075 399.672 201.812 399.672 203.773ZM393.181 210.287V202.897C393.181 201.715 393.113 200.681 392.979 199.798C392.859 198.914 392.672 198.166 392.417 197.552C392.162 196.923 391.848 196.414 391.474 196.024C391.099 195.635 390.673 195.351 390.193 195.171C389.714 194.991 389.183 194.901 388.599 194.901C387.865 194.901 387.214 195.044 386.645 195.328C386.09 195.613 385.619 196.069 385.229 196.698C384.84 197.312 384.541 198.136 384.331 199.169C384.136 200.187 384.039 201.43 384.039 202.897V210.287C384.039 211.47 384.099 212.511 384.219 213.409C384.354 214.308 384.548 215.079 384.803 215.723C385.072 216.352 385.387 216.868 385.746 217.272C386.12 217.662 386.547 217.946 387.026 218.126C387.521 218.306 388.06 218.396 388.644 218.396C389.362 218.396 389.999 218.253 390.553 217.969C391.122 217.669 391.601 217.205 391.99 216.576C392.395 215.932 392.694 215.094 392.889 214.061C393.083 213.027 393.181 211.77 393.181 210.287ZM403.984 198.315V196.586C403.984 195.343 404.254 194.213 404.793 193.194C405.332 192.176 406.126 191.36 407.174 190.746C408.222 190.132 409.51 189.825 411.037 189.825C412.609 189.825 413.92 190.132 414.968 190.746C416.031 191.36 416.825 192.176 417.349 193.194C417.888 194.213 418.157 195.343 418.157 196.586V198.315C418.157 199.528 417.888 200.644 417.349 201.662C416.825 202.68 416.038 203.496 414.99 204.11C413.942 204.724 412.639 205.031 411.082 205.031C409.54 205.031 408.237 204.724 407.174 204.11C406.126 203.496 405.332 202.68 404.793 201.662C404.254 200.644 403.984 199.528 403.984 198.315ZM408.274 196.586V198.315C408.274 198.84 408.372 199.341 408.566 199.82C408.776 200.285 409.09 200.666 409.51 200.966C409.944 201.25 410.468 201.393 411.082 201.393C411.726 201.393 412.25 201.25 412.654 200.966C413.059 200.666 413.358 200.285 413.553 199.82C413.747 199.341 413.845 198.84 413.845 198.315V196.586C413.845 196.032 413.74 195.523 413.53 195.059C413.336 194.579 413.029 194.198 412.609 193.913C412.205 193.614 411.681 193.464 411.037 193.464C410.438 193.464 409.929 193.614 409.51 193.913C409.09 194.198 408.776 194.579 408.566 195.059C408.372 195.523 408.274 196.032 408.274 196.586ZM419.617 216.711V214.981C419.617 213.754 419.887 212.631 420.426 211.612C420.98 210.594 421.781 209.778 422.829 209.164C423.892 208.55 425.195 208.243 426.737 208.243C428.295 208.243 429.597 208.55 430.646 209.164C431.694 209.778 432.487 210.594 433.026 211.612C433.565 212.631 433.835 213.754 433.835 214.981V216.711C433.835 217.939 433.565 219.062 433.026 220.08C432.502 221.098 431.716 221.914 430.668 222.528C429.62 223.142 428.325 223.449 426.782 223.449C425.225 223.449 423.915 223.142 422.852 222.528C421.788 221.914 420.98 221.098 420.426 220.08C419.887 219.062 419.617 217.939 419.617 216.711ZM423.93 214.981V216.711C423.93 217.25 424.049 217.759 424.289 218.238C424.529 218.717 424.858 219.099 425.277 219.384C425.712 219.668 426.213 219.811 426.782 219.811C427.501 219.811 428.062 219.668 428.467 219.384C428.871 219.099 429.148 218.717 429.298 218.238C429.463 217.759 429.545 217.25 429.545 216.711V214.981C429.545 214.442 429.44 213.941 429.23 213.477C429.021 212.997 428.706 212.616 428.287 212.331C427.883 212.032 427.366 211.882 426.737 211.882C426.108 211.882 425.584 212.032 425.165 212.331C424.761 212.616 424.454 212.997 424.244 213.477C424.035 213.941 423.93 214.442 423.93 214.981ZM428.332 194.969L412.362 220.529L409.218 218.867L425.188 193.307L428.332 194.969Z" fill="#4E0AC7"/>
<defs>
<linearGradient id="paint0_linear_1_140" x1="30.7077" y1="184.364" x2="173.316" y2="169.585" gradientUnits="userSpaceOnUse">
<stop stop-color="white"/>
<stop offset="0.13" stop-color="#FCFCFC"/>
<stop offset="1" stop-color="#F2F2F2"/>
</linearGradient>
<linearGradient id="paint1_linear_1_140" x1="162.154" y1="215.303" x2="43.0192" y2="138.443" gradientUnits="userSpaceOnUse">
<stop stop-color="white"/>
<stop offset="0.13" stop-color="#FCFCFC"/>
<stop offset="1" stop-color="#F2F2F2"/>
</linearGradient>
<linearGradient id="paint2_linear_1_140" x1="176.512" y1="316.914" x2="328.834" y2="507.175" gradientUnits="userSpaceOnUse">
<stop stop-color="white"/>
<stop offset="0.13" stop-color="#FCFCFC"/>
<stop offset="1" stop-color="#F2F2F2"/>
</linearGradient>
<linearGradient id="paint3_linear_1_140" x1="253.345" y1="533.162" x2="253.345" y2="292.18" gradientUnits="userSpaceOnUse">
<stop stop-color="white"/>
<stop offset="0.13" stop-color="#FCFCFC"/>
<stop offset="1" stop-color="#F2F2F2"/>
</linearGradient>
<linearGradient id="paint4_linear_1_140" x1="219.09" y1="34.1533" x2="285.37" y2="116.946" gradientUnits="userSpaceOnUse">
<stop stop-color="white"/>
<stop offset="0.13" stop-color="#FCFCFC"/>
<stop offset="1" stop-color="#F2F2F2"/>
</linearGradient>
<linearGradient id="paint5_linear_1_140" x1="252.522" y1="128.252" x2="252.522" y2="23.3921" gradientUnits="userSpaceOnUse">
<stop stop-color="white"/>
<stop offset="0.13" stop-color="#FCFCFC"/>
<stop offset="1" stop-color="#F2F2F2"/>
</linearGradient>
<linearGradient id="paint6_linear_1_140" x1="385.086" y1="258.478" x2="400.16" y2="154.393" gradientUnits="userSpaceOnUse">
<stop stop-color="white"/>
<stop offset="0.13" stop-color="#FCFCFC"/>
<stop offset="1" stop-color="#F2F2F2"/>
</linearGradient>
<linearGradient id="paint7_linear_1_140" x1="430.753" y1="170.55" x2="354.714" y2="241.634" gradientUnits="userSpaceOnUse">
<stop stop-color="white"/>
<stop offset="0.13" stop-color="#FCFCFC"/>
<stop offset="1" stop-color="#F2F2F2"/>
</linearGradient>
</defs>
</svg>
